<?xml version="1.0" encoding="utf-8"?>
<!-- Generator: Adobe Illustrator 27.5.0, SVG Export Plug-In . SVG Version: 6.00 Build 0)  -->
<svg version="1.1" xmlns="http://www.w3.org/2000/svg" xmlns:xlink="http://www.w3.org/1999/xlink" x="0px" y="0px"
	 viewBox="0 0 500 500" style="enable-background:new 0 0 500 500;" xml:space="preserve">
<g id="BACKGROUND">
	<rect style="fill:#FFFFFF;" width="500" height="500"/>
</g>
<g id="OBJECTS">
	<linearGradient id="SVGID_1_" gradientUnits="userSpaceOnUse" x1="128.3574" y1="123.1678" x2="131.0406" y2="141.6816">
		<stop  offset="0" style="stop-color:#000000;stop-opacity:0"/>
		<stop  offset="1" style="stop-color:#000000"/>
	</linearGradient>
	<path style="opacity:0.22;fill:url(#SVGID_1_);" d="M50.83,142.124l150.944-10.28c3.48-0.237,6.182-3.129,6.182-6.618V76.248
		c0-3.605-2.88-6.55-6.484-6.631L50.529,66.218c-3.721-0.084-6.782,2.91-6.782,6.631v62.656
		C43.746,139.347,46.998,142.385,50.83,142.124z"/>
	<g>
		<g>
			<path style="fill:#BA8E63;" d="M155.308,59.742c-0.575,0-1.124-0.333-1.372-0.892c-11.18-25.176-24.624-40.684-24.758-40.838
				c-0.545-0.624-0.482-1.571,0.141-2.117c0.623-0.546,1.571-0.482,2.117,0.141c0.138,0.157,13.88,16.009,25.243,41.596
				c0.336,0.757-0.005,1.644-0.762,1.98C155.719,59.701,155.511,59.742,155.308,59.742z"/>
		</g>
		<path style="fill:#AFAFAF;" d="M112.807,15.025v2c0,0,9,0,11,1s4.852,3.41,4.852,3.41l0-7.586
			C128.659,13.85,118.807,15.025,112.807,15.025z"/>
		<ellipse style="fill:#DADADA;" cx="130.307" cy="17.025" rx="3.5" ry="5"/>
		<g>
			<path style="fill:#BA8E63;" d="M92.412,57.648c-0.232,0-0.468-0.054-0.688-0.168c-0.736-0.381-1.023-1.286-0.643-2.021
				c2.242-4.331,22.25-42.337,34.153-43.105c0.833-0.044,1.541,0.574,1.594,1.4s-0.574,1.54-1.4,1.594
				c-2.38,0.153-8.085,3.05-19.562,20.727c-6.688,10.302-12.067,20.66-12.121,20.763C93.479,57.352,92.955,57.648,92.412,57.648z"/>
		</g>
		<g>
			<defs>
				<path id="SVGID_00000179636376271669974330000001106524127161972667_" d="M92.412,57.648c-0.232,0-0.468-0.054-0.688-0.168
					c-0.736-0.381-1.023-1.286-0.643-2.021c2.242-4.331,22.25-42.337,34.153-43.105c0.833-0.044,1.541,0.574,1.594,1.4
					s-0.574,1.54-1.4,1.594c-2.38,0.153-8.085,3.05-19.562,20.727c-6.688,10.302-12.067,20.66-12.121,20.763
					C93.479,57.352,92.955,57.648,92.412,57.648z"/>
			</defs>
			<clipPath id="SVGID_00000165225199480355693320000018374733693576079010_">
				<use xlink:href="#SVGID_00000179636376271669974330000001106524127161972667_"  style="overflow:visible;"/>
			</clipPath>
			<g style="clip-path:url(#SVGID_00000165225199480355693320000018374733693576079010_);">
				<path style="fill:none;stroke:#FFFFFF;stroke-miterlimit:10;" d="M92.413,50.478c0,0,4.451,0.382,7.795-1.146"/>
				<path style="fill:none;stroke:#FFFFFF;stroke-miterlimit:10;" d="M96.31,44.173c0,0,3.324,1.146,5.712,0"/>
				<path style="fill:none;stroke:#FFFFFF;stroke-miterlimit:10;" d="M99.166,38.442c0,0,3.907,1.058,6.199-0.808"/>
				<path style="fill:none;stroke:#FFFFFF;stroke-miterlimit:10;" d="M103.455,31.946c0,0,4.394,1.242,6.687,0"/>
				<path style="fill:none;stroke:#FFFFFF;stroke-miterlimit:10;" d="M108.872,24.782c0,0,2.894,2.102,5.377,0.764"/>
				<path style="fill:none;stroke:#FFFFFF;stroke-miterlimit:10;" d="M114.25,18.095c0,0,2.961,2.388,5.063,1.624"/>
				<path style="fill:none;stroke:#FFFFFF;stroke-miterlimit:10;" d="M120.733,12.65c0,0,2.388,3.439,4.926,3.343"/>
			</g>
		</g>
		<g>
			<defs>
				<path id="SVGID_00000167386023627991958860000011514464809976230571_" d="M155.308,59.742c-0.575,0-1.124-0.333-1.372-0.892
					c-11.18-25.176-24.624-40.684-24.758-40.838c-0.545-0.624-0.482-1.571,0.141-2.117c0.623-0.546,1.571-0.482,2.117,0.141
					c0.138,0.157,13.88,16.009,25.243,41.596c0.336,0.757-0.005,1.644-0.762,1.98C155.719,59.701,155.511,59.742,155.308,59.742z"/>
			</defs>
			<clipPath id="SVGID_00000063612218098302983180000001346552423673423248_">
				<use xlink:href="#SVGID_00000167386023627991958860000011514464809976230571_"  style="overflow:visible;"/>
			</clipPath>
			<g style="clip-path:url(#SVGID_00000063612218098302983180000001346552423673423248_);">
				<path style="fill:none;stroke:#FFFFFF;stroke-miterlimit:10;" d="M135.934,20.961c0,0-1.433,2.77-4.681,2.197"/>
				<path style="fill:none;stroke:#FFFFFF;stroke-miterlimit:10;" d="M138.704,24.304c0,0-0.096,3.821-2.77,4.585"/>
				<path style="fill:none;stroke:#FFFFFF;stroke-miterlimit:10;" d="M142.807,31.087c0,0-0.378,4.681-2.193,5.158"/>
				<path style="fill:none;stroke:#FFFFFF;stroke-miterlimit:10;" d="M147.396,37.633c0,0,0.191,3.961-2.866,5.011"/>
				<path style="fill:none;stroke:#FFFFFF;stroke-miterlimit:10;" d="M151.408,44.683c0,0-0.287,3.545-2.388,5.243"/>
				<path style="fill:none;stroke:#FFFFFF;stroke-miterlimit:10;" d="M155.307,52.895c0,0-0.842,3.123-3.899,3.887"/>
			</g>
		</g>
		<path style="fill:#35292B;" d="M210.813,130.397L34.116,143.416c-0.201,0.015-0.402,0.019-0.604,0.011l-5.513-0.207
			c-2.899-0.109-5.192-2.49-5.192-5.391V55.42c0-2.979,2.415-5.395,5.395-5.395h5.605l176.755,4.854
			c2.92,0.081,5.245,2.472,5.245,5.393v64.745C215.807,127.841,213.629,130.187,210.813,130.397z"/>
		<path style="fill:#5A4741;" d="M39.972,142.985l170.673-12.503c2.993-0.222,5.309-2.715,5.309-5.717V60.441
			c0-3.102-2.468-5.642-5.569-5.73L39.712,49.898c-3.229-0.092-5.896,2.5-5.896,5.73v81.639
			C33.816,140.601,36.648,143.231,39.972,142.985z"/>
		<path style="fill:#D10C21;" d="M203.248,123.754L52.055,134.051c-4.599,0.313-8.501-3.333-8.501-7.942V66.234
			c0-4.467,3.674-8.059,8.14-7.958l151.192,3.404c4.326,0.097,7.781,3.632,7.781,7.958v46.174
			C210.667,119.999,207.425,123.47,203.248,123.754z"/>
		<path style="fill:#F12E3B;" d="M50.637,134.149l150.944-10.28c3.48-0.237,6.182-3.129,6.182-6.618V68.274
			c0-3.605-2.88-6.55-6.484-6.631L50.336,58.244c-3.721-0.084-6.782,2.91-6.782,6.631v62.656
			C43.553,131.372,46.805,134.41,50.637,134.149z"/>
		<path style="fill:none;stroke:#FFFFFF;stroke-miterlimit:10;" d="M50.178,130.164c-1.447,0-2.625-1.181-2.625-2.633V64.875
			c0-1.452,1.18-2.633,2.631-2.633l151.006,3.4c1.419,0.032,2.574,1.213,2.574,2.632v48.978c0,1.379-1.078,2.533-2.454,2.627
			l-150.945,10.28C50.302,130.162,50.24,130.164,50.178,130.164z"/>
		<g>
			<g>
				<path style="fill:#D10C21;" d="M54.267,112.849c0-10.264,0-20.528,0-30.792c1.438-0.001,2.158-0.002,3.596-0.003
					c-0.001,4.345-0.001,7.361-0.002,13.128c1.634-0.043,2.452-0.064,4.087-0.105c0.001-5.71,0.002-8.695,0.003-13.025
					c1.465-0.001,2.198-0.002,3.663-0.003c-0.001,10.044-0.001,20.089-0.001,30.133c-1.468,0.084-2.201,0.126-3.667,0.212
					c0.001-4.005,0.002-6.897,0.003-12.561c-1.636,0.06-2.453,0.091-4.087,0.152c-0.001,5.718-0.001,8.639-0.002,12.649
					C56.42,112.719,55.702,112.762,54.267,112.849z"/>
				<path style="fill:#D10C21;" d="M73.398,81.759c3.532-0.001,5.467,2.136,5.474,6.989c0.01,6.309,0.015,10.16,0.025,16.289
					c0.008,4.715-1.93,6.774-5.477,6.97c-3.547,0.196-5.481-1.634-5.481-6.447c-0.001-6.256-0.001-10.242-0.002-16.694
					C67.937,83.903,69.866,81.761,73.398,81.759z M73.417,108.403c1.149-0.06,1.87-0.794,1.868-2.9
					c-0.006-6.367-0.01-10.456-0.016-17.022c-0.002-2.172-0.723-2.905-1.868-2.9c-1.145,0.006-1.865,0.75-1.864,2.938
					c0.003,6.616,0.005,10.754,0.008,17.164C71.547,107.803,72.268,108.463,73.417,108.403z"/>
				<path style="fill:#D10C21;" d="M84.682,105.101c0.006,2.068,0.732,2.682,1.883,2.624s1.873-0.744,1.865-2.798
					c-0.033-8.876-0.049-15.235-0.082-22.891c1.361-0.001,2.041-0.001,3.402-0.001c0.04,7.541,0.059,13.69,0.099,22.448
					c0.021,4.601-1.814,6.664-5.371,6.852c-3.557,0.188-5.404-1.664-5.414-6.357c-0.018-8.932-0.027-15.348-0.045-22.938
					c1.439-0.001,2.159-0.001,3.598-0.002C84.644,89.711,84.657,96.166,84.682,105.101z"/>
				<path style="fill:#D10C21;" d="M99.045,81.752c3.5-0.001,5.321,2.134,5.357,6.742c0.003,0.362,0.004,0.544,0.007,0.91
					c-1.364,0.016-2.046,0.024-3.41,0.039c-0.003-0.486-0.005-0.728-0.008-1.206c-0.014-2.063-0.675-2.775-1.821-2.77
					c-1.146,0.005-1.796,0.725-1.784,2.803c0.036,5.983,7.103,7.568,7.168,15.602c0.037,4.5-1.79,6.584-5.352,6.767
					c-3.561,0.183-5.421-1.695-5.444-6.284c-0.004-0.705-0.005-1.063-0.009-1.789c1.368-0.057,2.052-0.085,3.421-0.142
					c0.005,0.838,0.007,1.252,0.012,2.062c0.012,2.024,0.741,2.635,1.894,2.578c1.153-0.057,1.872-0.737,1.858-2.748
					c-0.041-5.792-7.112-7.312-7.153-15.719C93.759,83.889,95.545,81.753,99.045,81.752z"/>
				<path style="fill:#D10C21;" d="M115.114,93.628c0.018,1.675,0.027,2.521,0.045,4.19c-1.985,0.064-2.977,0.095-4.963,0.159
					c0.032,3.461,0.048,5.194,0.081,8.276c2.504-0.121,3.755-0.182,6.258-0.303c0.019,1.492,0.028,2.208,0.046,3.539
					c-3.956,0.201-5.935,0.302-9.893,0.503c-0.098-9.314-0.147-18.14-0.246-27.962c3.926-0.001,5.889-0.002,9.815-0.003
					c0.019,1.396,0.028,2.14,0.046,3.677c-2.489,0.011-3.734,0.017-6.223,0.028c0.031,3.029,0.046,4.697,0.077,8.003
					C112.14,93.693,113.131,93.671,115.114,93.628z"/>
				<path style="fill:#D10C21;" d="M127.894,87.188c0.014,0.901,0.02,1.359,0.034,2.283c-1.085,0.013-1.627,0.02-2.712,0.034
					c0.037,2.688,0.056,4.093,0.093,6.843c-0.842,0.025-1.263,0.037-2.105,0.062c-0.087-6.698-0.131-10.376-0.218-15.777
					c2.218,0,3.328,0,5.546,0c0.014,0.772,0.02,1.172,0.034,1.994c-1.38,0.001-2.071,0.002-3.451,0.003
					c0.027,1.739,0.041,2.669,0.068,4.579C126.268,87.201,126.81,87.197,127.894,87.188z"/>
				<path style="fill:#D10C21;" d="M132.553,80.479c2.059,0,3.207,1.194,3.248,3.554c0.054,3.069,0.082,4.751,0.136,8.11
					c0.042,2.583-1.061,4.108-3.126,4.171c-2.065,0.062-3.215-1.42-3.254-4.046c-0.05-3.414-0.076-5.126-0.126-8.22
					C129.393,81.667,130.495,80.479,132.553,80.479z M132.776,93.977c0.669-0.016,1.082-0.47,1.064-1.631
					c-0.055-3.509-0.083-5.271-0.138-8.456c-0.018-1.053-0.445-1.43-1.112-1.43s-1.08,0.378-1.062,1.434
					c0.054,3.194,0.081,4.966,0.135,8.495C131.679,93.556,132.107,93.993,132.776,93.977z"/>
				<path style="fill:#D10C21;" d="M141.529,93.901c-0.017-1.004-0.026-1.507-0.043-2.504c-0.025-1.474-0.455-2.001-1.409-1.989
					c-0.29,0.004-0.435,0.006-0.725,0.009c0.044,2.566,0.066,3.896,0.11,6.51c-0.841,0.025-1.261,0.038-2.102,0.063
					c-0.106-6.456-0.159-9.951-0.265-15.358c1.265,0,1.898,0,3.164,0c2.173,0,3.128,0.989,3.171,3.235
					c0.009,0.458,0.013,0.689,0.022,1.156c0.029,1.527-0.391,2.571-1.317,3.089c1.058,0.498,1.423,1.667,1.452,3.313
					c0.017,0.974,0.026,1.465,0.043,2.445c0.014,0.772,0.043,1.339,0.263,1.922c-0.855,0.026-1.283,0.039-2.138,0.065
					C141.632,95.451,141.552,95.202,141.529,93.901z M139.314,87.19c0.328-0.003,0.492-0.004,0.82-0.007
					c0.782-0.006,1.252-0.414,1.23-1.616c-0.011-0.592-0.016-0.886-0.027-1.464c-0.02-1.048-0.352-1.487-1.096-1.486
					c-0.404,0-0.606,0.001-1.01,0.001C139.264,84.37,139.281,85.296,139.314,87.19z"/>
				<path style="fill:#D10C21;" d="M155.237,81.74c3.499-0.001,5.34,2.125,5.415,6.191c0.006,0.319,0.009,0.479,0.015,0.801
					c-1.359,0.018-2.038,0.027-3.398,0.045c-0.008-0.427-0.012-0.64-0.02-1.064c-0.034-1.827-0.701-2.489-1.845-2.484
					s-1.785,0.677-1.75,2.52c0.1,5.306,7.141,6.368,7.276,13.552c0.076,4.023-1.703,6.199-5.23,6.396
					c-3.526,0.197-5.405-1.763-5.483-5.881c-0.012-0.632-0.018-0.951-0.03-1.593c1.361-0.059,2.041-0.089,3.401-0.149
					c0.014,0.74,0.021,1.108,0.035,1.836c0.035,1.82,0.766,2.402,1.909,2.341c1.143-0.061,1.848-0.716,1.814-2.522
					c-0.099-5.201-7.145-6.233-7.284-13.683C149.984,83.873,151.738,81.741,155.237,81.74z"/>
				<path style="fill:#D10C21;" d="M171.053,106.543c-0.276-1.668-0.415-2.529-0.692-4.281c-1.753,0.095-2.631,0.143-4.388,0.236
					c-0.215,1.794-0.322,2.677-0.536,4.377c-1.313,0.077-1.971,0.115-3.286,0.19c1.271-9.379,1.909-15.595,3.193-25.061
					c2.105-0.001,3.158-0.002,5.262-0.004c1.63,9.421,2.439,15.149,4.04,24.324C173.211,106.413,172.492,106.457,171.053,106.543z
					 M169.817,98.944c-0.775-5.006-1.163-7.669-1.943-12.656c-0.604,4.997-0.905,7.696-1.505,12.813
					C167.749,99.038,168.438,99.007,169.817,98.944z"/>
				<path style="fill:#D10C21;" d="M179.529,81.993c0.109,8.008,0.164,12.529,0.273,20.66c2.339-0.138,3.507-0.208,5.838-0.351
					c0.013,1.34,0.02,2.006,0.033,3.323c-3.739,0.246-5.615,0.365-9.376,0.598c-0.145-9.258-0.217-14.851-0.362-24.227
					C177.373,81.995,178.092,81.995,179.529,81.993z"/>
				<path style="fill:#D10C21;" d="M195.547,91.659c0.002,1.315,0.003,1.972,0.004,3.287c-1.946,0.084-2.92,0.125-4.871,0.206
					c0.016,2.745,0.024,4.117,0.04,6.835c2.439-0.154,3.657-0.232,6.087-0.392c0,1.308,0,1.962,0,3.271
					c-3.823,0.271-5.742,0.402-9.592,0.658c-0.082-9.212-0.123-14.271-0.204-23.538c3.919-0.005,5.879-0.007,9.796-0.012
					c0,1.308,0,1.962,0,3.271c-2.473,0.02-3.71,0.03-6.184,0.048c0.015,2.592,0.023,3.899,0.038,6.511
					C192.617,91.746,193.594,91.717,195.547,91.659z"/>
			</g>
		</g>
		<g>
			<g>
				<path style="fill:#FFFFFF;" d="M58.219,82.551c-0.001,4.263-0.001,7.14-0.001,12.664c2.924-0.077,4.387-0.115,7.314-0.189
					c0.001-5.429,0.001-8.252,0.002-12.485c0.79-0.001,1.185-0.001,1.975-0.002c-0.001,9.858-0.001,19.717-0.002,29.575
					c-0.791,0.045-1.187,0.068-1.978,0.114c0.001-4.303,0.001-7.471,0.002-13.54c-2.928,0.1-4.391,0.15-7.314,0.253
					c-0.001,6.176-0.001,9.404-0.002,13.717c-0.78,0.047-1.169,0.07-1.948,0.117c0-10.074,0-20.149,0-30.223
					C57.047,82.552,57.438,82.552,58.219,82.551z"/>
				<path style="fill:#FFFFFF;" d="M83.857,96.797c0.021,10.706-3.152,14.952-7.029,15.165c-4.013,0.221-6.825-4.421-6.826-14.138
					c-0.001-10.193,2.983-15.696,7.023-15.698C81.154,82.123,83.839,87.567,83.857,96.797z M72.092,97.663
					c0.002,6.827,1.759,11.929,4.846,11.763c3.11-0.167,4.861-5.291,4.849-12.384c-0.01-6.213-1.593-12.19-4.849-12.178
					C73.704,84.876,72.09,90.647,72.092,97.663z"/>
				<path style="fill:#FFFFFF;" d="M88.318,82.521c0.021,5.873,0.032,10.096,0.053,17.281c0.02,6.798,1.542,8.943,3.575,8.839
					c2.259-0.116,3.692-2.497,3.661-9.094c-0.033-7.067-0.05-11.19-0.083-17.03c0.79-0.001,1.185-0.001,1.976-0.001
					c0.036,5.744,0.054,9.755,0.09,16.697c0.048,9.141-2.399,11.771-5.7,11.943c-3.12,0.163-5.478-1.915-5.502-11.373
					c-0.018-7.187-0.027-11.407-0.046-17.26C87.133,82.522,87.528,82.521,88.318,82.521z"/>
				<path style="fill:#FFFFFF;" d="M100.773,106.437c0.888,0.897,2.182,1.571,3.539,1.503c2.013-0.101,3.173-1.872,3.149-4.667
					c-0.022-2.591-0.86-4.209-2.91-5.607c-2.411-1.645-4.039-4.209-4.064-8.271c-0.028-4.49,1.905-7.281,4.846-7.282
					c1.549-0.001,2.677,0.571,3.357,1.203c-0.205,1.057-0.308,1.61-0.514,2.745c-0.499-0.476-1.517-1.256-2.887-1.252
					c-2.067,0.007-2.838,2.189-2.825,4.137c0.018,2.668,0.95,4.054,3.056,5.579c2.58,1.868,3.912,4.3,3.948,8.373
					c0.038,4.278-1.672,7.403-5.271,7.587c-1.471,0.075-3.083-0.47-3.903-1.286C100.486,108.146,100.582,107.589,100.773,106.437z"
					/>
				<path style="fill:#FFFFFF;" d="M119.973,96.98c-2.362,0.071-3.544,0.107-5.906,0.178c0.041,4.159,0.061,6.269,0.102,9.883
					c2.641-0.131,3.961-0.196,6.6-0.326c0.014,1.078,0.022,1.599,0.036,2.589c-3.429,0.175-5.144,0.262-8.574,0.436
					c-0.107-9.137-0.161-17.487-0.268-27.234c3.269-0.002,4.904-0.003,8.172-0.005c0.014,1.05,0.021,1.597,0.036,2.723
					c-2.49,0.009-3.734,0.014-6.224,0.024c0.036,3.315,0.054,5.169,0.09,8.823c2.361-0.053,3.541-0.08,5.902-0.134
					C119.952,95.153,119.959,95.765,119.973,96.98z"/>
				<path style="fill:#FFFFFF;" d="M127.028,80.694c1.899,0,2.849,0,4.748,0c0.01,0.573,0.015,0.868,0.026,1.468
					c-1.444,0.001-2.167,0.001-3.611,0.001c0.03,1.848,0.045,2.844,0.075,4.895c1.336-0.01,2.004-0.014,3.34-0.024
					c0.01,0.655,0.015,0.986,0.025,1.654c-1.336,0.014-2.005,0.021-3.341,0.036c0.041,2.852,0.061,4.354,0.102,7.295
					c-0.457,0.013-0.685,0.02-1.142,0.033C127.161,89.534,127.117,85.987,127.028,80.694z"/>
				<path style="fill:#FFFFFF;" d="M141.062,87.705c0.091,5.221-1.709,8.255-3.965,8.323c-2.335,0.07-4.024-3.265-4.097-7.952
					c-0.077-4.918,1.612-7.596,3.966-7.596C139.372,80.479,140.983,83.204,141.062,87.705z M134.217,88.018
					c0.052,3.298,1.122,6.379,2.919,6.334c1.809-0.046,2.782-3.09,2.723-6.546c-0.052-3.026-1.022-5.912-2.918-5.911
					C135.057,81.895,134.163,84.628,134.217,88.018z"/>
				<path style="fill:#FFFFFF;" d="M142.417,80.871c0.572-0.178,1.394-0.275,2.179-0.275c1.216,0,2.006,0.335,2.572,1.093
					c0.451,0.604,0.724,1.547,0.745,2.65c0.036,1.889-0.672,3.218-1.592,3.764c0,0.027,0.001,0.04,0.001,0.067
					c0.688,0.396,1.111,1.467,1.351,3.053c0.322,2.131,0.563,3.622,0.756,4.211c-0.471,0.014-0.707,0.021-1.178,0.035
					c-0.152-0.432-0.378-1.766-0.654-3.678c-0.305-2.115-0.785-2.897-1.82-2.952c-0.429,0.005-0.644,0.008-1.074,0.013
					c0.047,2.643,0.07,4.017,0.116,6.72c-0.456,0.013-0.684,0.02-1.14,0.034C142.575,89.43,142.523,86.124,142.417,80.871z
					 M143.678,87.369c0.466-0.004,0.699-0.006,1.165-0.01c1.217-0.01,1.968-1.16,1.937-2.803c-0.035-1.856-0.885-2.614-2.078-2.623
					c-0.545-0.004-0.94,0.082-1.122,0.163C143.619,84.102,143.639,85.174,143.678,87.369z"/>
				<path style="fill:#FFFFFF;" d="M155.09,103.783c0.892,0.823,2.184,1.457,3.528,1.384c1.993-0.109,3.124-1.81,3.077-4.307
					c-0.044-2.314-0.89-3.702-2.938-4.902c-2.421-1.419-4.059-3.6-4.126-7.192c-0.074-3.97,1.823-6.675,4.761-6.677
					c1.548-0.001,2.681,0.551,3.365,1.146c-0.196,0.997-0.294,1.505-0.489,2.535c-0.502-0.431-1.524-1.146-2.893-1.14
					c-2.064,0.008-2.81,2.009-2.778,3.735c0.044,2.364,0.987,3.553,3.096,4.864c2.583,1.605,3.921,3.652,3.988,7.279
					c0.071,3.81-1.586,6.942-5.147,7.141c-1.456,0.082-3.061-0.465-3.885-1.253C154.825,105.374,154.913,104.849,155.09,103.783z"/>
				<path style="fill:#FFFFFF;" d="M168.76,99.248c-0.571,3.115-0.856,4.666-1.424,7.562c-0.803,0.047-1.205,0.07-2.009,0.117
					c1.864-9.215,2.799-15.178,4.683-24.467c0.942-0.001,1.413-0.002,2.355-0.003c2.225,9.261,3.331,14.787,5.515,23.721
					c-0.825,0.051-1.238,0.076-2.064,0.127c-0.687-2.813-1.032-4.293-1.723-7.304C171.961,99.1,170.895,99.15,168.76,99.248z
					 M173.65,96.565c-0.635-2.788-0.953-4.212-1.591-7.016c-0.362-1.59-0.611-3.026-0.859-4.404c-0.018,0-0.027,0-0.044,0
					c-0.199,1.416-0.42,2.895-0.686,4.393c-0.542,2.851-0.812,4.315-1.352,7.203C170.932,96.672,171.839,96.637,173.65,96.565z"/>
				<path style="fill:#FFFFFF;" d="M179.741,82.447c0.78-0.001,1.17-0.002,1.95-0.003c0.111,8.171,0.166,12.778,0.276,21.002
					c2.552-0.155,3.826-0.233,6.368-0.393c0.009,0.988,0.014,1.48,0.023,2.457c-3.305,0.218-4.962,0.324-8.284,0.532
					C179.941,96.989,179.874,91.632,179.741,82.447z"/>
				<path style="fill:#FFFFFF;" d="M198.144,94.329c-2.318,0.095-3.478,0.141-5.802,0.233c0.02,3.309,0.03,4.965,0.051,8.232
					c2.571-0.166,3.854-0.25,6.414-0.423c0,0.97,0,1.455,0,2.424c-3.314,0.235-4.977,0.349-8.311,0.572
					c-0.071-9.003-0.106-13.874-0.177-22.937c3.262-0.006,4.892-0.009,8.152-0.015c0,0.97,0.001,1.455,0.001,2.426
					c-2.475,0.017-3.713,0.026-6.189,0.042c0.018,2.875,0.027,4.327,0.044,7.228c2.328-0.07,3.491-0.106,5.815-0.178
					C198.143,92.891,198.143,93.37,198.144,94.329z"/>
			</g>
		</g>
	</g>
	<g>
		<path style="fill:#D10C21;" d="M420.705,85.925v28.861c0,7.799-6.219,14.176-14.016,14.371l-113.73,2.842
			c-8.077,0.202-14.735-6.291-14.735-14.371V99.191c0-7.295,5.464-13.433,12.71-14.279l113.73-13.267
			C413.205,70.65,420.705,77.325,420.705,85.925z"/>
		<path style="fill:#F12E3B;" d="M412.697,84.889v31.808c0,6.848-5.46,12.447-12.306,12.618l-109.229,2.73
			c-7.092,0.177-12.937-5.523-12.937-12.618V97.63c0-6.405,4.797-11.794,11.159-12.537l109.229-12.742
			C406.112,71.477,412.697,77.338,412.697,84.889z"/>
		
			<linearGradient id="SVGID_00000044167244525741984050000009987399467872436618_" gradientUnits="userSpaceOnUse" x1="346.4273" y1="103.6291" x2="333.0063" y2="152.5505">
			<stop  offset="0" style="stop-color:#000000;stop-opacity:0"/>
			<stop  offset="1" style="stop-color:#000000"/>
		</linearGradient>
		<path style="opacity:0.22;fill:url(#SVGID_00000044167244525741984050000009987399467872436618_);" d="M412.694,84.893V116.7
			c0,6.839-5.455,12.444-12.306,12.617l-109.228,2.722c-7.093,0.185-12.94-5.524-12.94-12.617V97.625
			c0-6.401,4.798-11.787,11.164-12.536l16.596-1.938l3.921-0.45l70.477-8.223l4.521-0.519l13.713-1.603
			C406.109,71.48,412.694,77.339,412.694,84.893z"/>
		<path style="fill:none;stroke:#FFFFFF;stroke-miterlimit:10;" d="M290.839,127.435c-4.413,0-8.002-3.592-8.002-8.008V97.63
			c0-4.064,3.044-7.484,7.081-7.955l109.23-12.741c0.315-0.037,0.635-0.056,0.949-0.056c4.404,0,7.986,3.593,7.986,8.01v31.808
			c0,4.379-3.431,7.896-7.808,8.006L290.839,127.435z"/>
		<path style="opacity:0.64;fill:#D10C21;" d="M309.902,82.702l-1.822,6.931c0,0-1.926-2.099-2.099-6.481L309.902,82.702z"/>
		<path style="opacity:0.64;fill:#D10C21;" d="M384.9,73.96l-2.503,9.492c0,0-2.641-2.895-2.018-8.973L384.9,73.96z"/>
		<path style="fill:#D10C21;" d="M405.754,148.614v23.492c0,6.348-5.062,11.539-11.409,11.697l-92.571-6.913
			c-6.575,0.164-11.993-5.121-11.993-11.697v-15.007c0-5.938,4.447-10.934,10.345-11.622l92.571-1.572
			C399.65,136.181,405.754,141.614,405.754,148.614z"/>
		<path style="fill:#F12E3B;" d="M399.236,147.77v25.89c0,5.574-4.445,10.131-10.017,10.27l-88.908-7.004
			c-5.773,0.144-10.53-4.496-10.53-10.27v-17.741c0-5.213,3.905-9.6,9.083-10.204l88.908-1.145
			C393.876,136.854,399.236,141.625,399.236,147.77z"/>
		
			<linearGradient id="SVGID_00000147195858410269202450000001811974925008674984_" gradientUnits="userSpaceOnUse" x1="345.327" y1="158.2955" x2="335.7671" y2="193.143">
			<stop  offset="0" style="stop-color:#000000;stop-opacity:0"/>
			<stop  offset="1" style="stop-color:#000000"/>
		</linearGradient>
		<path style="opacity:0.22;fill:url(#SVGID_00000147195858410269202450000001811974925008674984_);" d="M399.235,147.77v25.891
			c0,5.57-4.44,10.126-10.022,10.264l-88.907-7c-5.766,0.15-10.53-4.498-10.53-10.264v-17.749c0-5.213,3.91-9.595,9.088-10.195
			l16.273-0.208l4.417-0.058l48.934-0.634l4.406-0.058l14.877-0.196C393.872,136.848,399.235,141.623,399.235,147.77z"/>
		<path style="fill:none;stroke:#FFFFFF;stroke-miterlimit:10;" d="M300.049,173.175c-3.592,0-6.513-2.924-6.513-6.518v-17.741
			c0-3.308,2.478-6.092,5.763-6.475l88.909-1.145c0.257-0.03,0.517-0.045,0.773-0.045c3.584,0,6.501,2.925,6.501,6.52v25.89
			c0,3.565-2.792,6.427-6.356,6.517L300.049,173.175z"/>
		<path style="opacity:0.64;fill:#D10C21;" d="M319.555,138.451l-2.422,9.203c0,0-2.687-2.941-1.995-9.146L319.555,138.451z"/>
		<path style="opacity:0.64;fill:#D10C21;" d="M372.894,137.76l-2.364,8.961c0,0-2.629-2.872-2.041-8.903L372.894,137.76z"/>
		<path style="fill:none;stroke:#BA8E63;stroke-width:2;stroke-linecap:round;stroke-linejoin:round;stroke-miterlimit:10;" d="
			M307.731,63.02c0,0-2.528,19.962-0.976,26.615"/>
		<path style="fill:none;stroke:#BA8E63;stroke-width:2;stroke-linecap:round;stroke-linejoin:round;stroke-miterlimit:10;" d="
			M381.265,54.123c0,0-1.568,19.492,0,29.215"/>
		<path style="fill:none;stroke:#BA8E63;stroke-width:2;stroke-linecap:round;stroke-linejoin:round;stroke-miterlimit:10;" d="
			M316.336,127.768c0,0-1.255,14.436,0,19.887"/>
		<path style="fill:none;stroke:#BA8E63;stroke-width:2;stroke-linecap:round;stroke-linejoin:round;stroke-miterlimit:10;" d="
			M369.659,127.435c0,0-1.568,12.991,0,19.578"/>
		<path style="fill:#B7B6B6;" d="M455.8,263.6c0,0,3.589-13.589,11.898-16.705c0,0-5.193-1.246-8.101,0
			c0,0,2.077-16.203,12.879-18.072c0,0-11.124-1.039-16.675,12.048l-2.689,10.179L455.8,263.6z"/>
		<path style="fill:#B7B6B6;" d="M234.979,209.303c-0.435-0.109,10.059,6.517,11.901,18.985l11.755,0.517
			c0,0-0.279-13.834,6.521-20.209c0,0-7.336,2.853-8.076,12.467c0,0,0.85-20.118-8.359-27.768c0,0,5.242,18.56,3.967,28.76
			c0,0,0.283-7.264-5.525-11.07c0,0,1.983,6.537,1.7,10.078C248.863,221.062,246.313,212.136,234.979,209.303z"/>
		<polygon style="fill:#35292B;" points="265.156,44.266 265.156,227.852 260.469,229.137 254.908,228.071 254.908,43.445 
			260.469,42.379 		"/>
		<polygon style="fill:#35292B;" points="455.8,10.368 455.8,263.6 446.811,264.848 436.228,262.82 436.228,8.696 446.811,6.668 		
			"/>
		<polygon style="fill:#5A4741;" points="260.469,42.379 260.469,229.137 254.908,228.071 254.908,43.445 		"/>
		<polygon style="fill:#5A4741;" points="446.811,6.668 446.811,264.848 436.228,262.82 436.228,8.696 		"/>
		<polygon style="fill:#35292B;" points="253.403,71.548 252.007,73.502 254.908,75.094 461.259,50.347 461.259,35.255 
			455.8,33.152 451.727,40.021 		"/>
		<polyline style="fill:#5A4741;" points="301.674,66.781 265.156,71.548 265.156,61.976 436.228,36.319 436.228,49.219 
			427.744,50.326 360.756,59.07 		"/>
		<polygon style="fill:#5A4741;" points="265.156,61.976 265.156,71.548 252.007,73.502 252.007,64.13 		"/>
		<polygon style="fill:#5A4741;" points="455.8,33.152 455.8,46.285 436.228,49.219 436.228,36.319 		"/>
		<path style="fill:#DADADA;" d="M403.227,226.061c-0.796-0.199,18.411,11.928,21.782,34.748l22.819,5.762
			c0,0-1.815-30.137,10.632-41.806c0,0-13.428,5.222-14.781,22.819c0,0,1.556-36.822-15.299-50.825c0,0,9.595,33.97,7.261,52.64
			c0,0,0.519-13.296-10.113-20.262c0,0,3.63,11.964,3.112,18.447C428.64,247.584,423.972,231.247,403.227,226.061z"/>
		<circle style="fill:#BA8E63;" cx="441.413" cy="41.378" r="1.248"/>
		<circle style="fill:#BA8E63;" cx="256.156" cy="68.73" r="1.248"/>
		<g style="opacity:0.64;">
			<g>
				<path style="fill:#D10C21;" d="M306.423,120.125c0-11.554,0-11.394,0-22.968c1.849-0.155,2.774-0.239,4.622-0.415
					c-0.01,4.941-0.014,6.617-0.024,10.144c2.092-0.155,3.138-0.236,5.234-0.402c0.016-3.615,0.024-5.341,0.039-10.27
					c1.881-0.199,2.822-0.303,4.702-0.517c-0.041,11.498-0.062,12.388-0.103,23.87c-1.88,0.068-2.818,0.103-4.691,0.173
					c0.016-4.922,0.024-6.646,0.039-10.259c-2.094,0.135-3.14,0.201-5.229,0.328c-0.01,3.526-0.014,5.2-0.024,10.133
					C309.158,120.013,308.244,120.05,306.423,120.125z"/>
				<path style="fill:#D10C21;" d="M330.982,94.169c4.53-0.566,7.001,1.87,6.997,5.879c-0.005,5.211-0.008,7.312-0.014,12.52
					c-0.004,4.006-2.504,6.835-7.059,6.983c-4.556,0.149-7.025-2.528-7.009-6.313c0.021-4.921,0.031-6.732,0.052-11.658
					C323.966,97.792,326.451,94.735,330.982,94.169z M330.917,115.628c1.475-0.057,2.405-0.832,2.409-2.595
					c0.013-5.333,0.019-7.381,0.032-12.718c0.004-1.764-0.918-2.393-2.387-2.219c-1.47,0.175-2.395,1.017-2.401,2.748
					c-0.019,5.237-0.028,7.18-0.047,12.413C328.518,114.988,329.441,115.685,330.917,115.628z"/>
				<path style="fill:#D10C21;" d="M345.389,112.525c0.003,1.852,0.933,2.539,2.41,2.489c1.478-0.05,2.404-0.805,2.398-2.693
					c-0.023-8.155-0.035-11.224-0.058-20.258c1.743-0.218,2.615-0.326,4.358-0.537c0.033,8.947,0.049,12.187,0.082,20.349
					c0.017,4.288-2.335,7.099-6.899,7.22c-4.566,0.121-6.934-2.566-6.933-6.621c0.001-7.719,0.002-10.37,0.003-19.218
					c1.845-0.237,2.767-0.355,4.612-0.591C345.373,101.665,345.378,104.523,345.389,112.525z"/>
				<path style="fill:#D10C21;" d="M363.839,90.113c4.482-0.485,6.799,2.051,6.824,6.584c0.002,0.356,0.003,0.534,0.005,0.889
					c-1.741,0.14-2.612,0.214-4.355,0.366c-0.003-0.461-0.004-0.692-0.007-1.156c-0.011-2-0.854-2.704-2.32-2.554
					c-1.466,0.15-2.301,1.021-2.291,2.991c0.03,5.673,9.046,5.939,9.09,14.034c0.025,4.533-2.296,7.31-6.832,7.403
					c-4.535,0.093-6.912-2.603-6.932-6.93c-0.003-0.664-0.005-0.994-0.008-1.649c1.75-0.08,2.625-0.119,4.373-0.193
					c0.004,0.776,0.006,1.166,0.01,1.953c0.01,1.966,0.94,2.68,2.409,2.642s2.387-0.805,2.376-2.803
					c-0.033-5.755-9.063-5.988-9.099-13.72C357.063,93.64,359.356,90.598,363.839,90.113z"/>
				<path style="fill:#D10C21;" d="M384.247,101.065c0.002,1.67,0.003,2.504,0.004,4.174c-2.505,0.073-3.761,0.117-6.277,0.215
					c0.013,3.357,0.02,5.034,0.033,8.442c3.157-0.053,4.73-0.075,7.861-0.108c0,1.677,0,2.516,0,4.193
					c-4.929,0.055-7.417,0.09-12.419,0.173c-0.058-11.829-0.087-16.804-0.145-28.637c5.026-0.442,7.539-0.629,12.564-0.885
					c0,1.677,0,2.516,0,4.193c-3.174,0.165-4.762,0.267-7.941,0.502c0.013,3.243,0.019,4.839,0.031,8.034
					C380.478,101.227,381.736,101.167,384.247,101.065z"/>
			</g>
		</g>
		<g>
			<g>
				<path style="fill:#FFFFFF;" d="M306.704,97.082c-0.005,4.765-0.008,6.392-0.013,9.783c3.611-0.261,5.421-0.403,9.043-0.699
					c0.016-3.535,0.024-5.243,0.041-9.991c0.979-0.106,1.468-0.161,2.447-0.271c-0.041,11.349-0.061,12.24-0.101,23.589
					c-0.978,0.036-1.466,0.054-2.443,0.09c0.018-5.32,0.027-7.122,0.045-11.052c-3.621,0.252-5.429,0.374-9.036,0.6
					c-0.006,3.764-0.009,5.46-0.015,10.8c-0.957,0.038-1.435,0.058-2.389,0.097c0-11.414,0-11.321,0-22.735
					C305.251,97.212,305.736,97.17,306.704,97.082z"/>
				<path style="fill:#FFFFFF;" d="M338.426,105.875c-0.002,8.175-3.954,13.534-8.762,13.689c-4.976,0.161-8.434-5.381-8.404-11.906
					c0.032-6.844,3.751-13.007,8.752-13.636C335.124,93.379,338.427,98.827,338.426,105.875z M323.848,107.397
					c-0.02,4.672,2.134,9.38,5.962,9.243c3.855-0.138,6.044-5.107,6.05-10.421c0.005-4.653-1.935-9.756-5.966-9.264
					C325.89,97.444,323.869,102.596,323.848,107.397z"/>
				<path style="fill:#FFFFFF;" d="M343.985,92.709c0.01,6.834,0.015,9.399,0.025,15.236c0.009,5.522,1.889,8.155,4.405,8.08
					c2.796-0.083,4.572-2.933,4.548-8.64c-0.026-6.114-0.039-8.896-0.066-15.783c0.977-0.118,1.466-0.176,2.442-0.291
					c0.029,6.796,0.044,9.606,0.073,15.696c0.039,8.02-2.988,11.912-7.074,12.017c-3.862,0.099-6.779-3.45-6.785-10.991
					c-0.005-5.729-0.007-8.228-0.012-15.012C342.519,92.895,343.008,92.833,343.985,92.709z"/>
				<path style="fill:#FFFFFF;" d="M359.323,113.812c1.091,0.958,2.682,1.765,4.349,1.727c2.473-0.056,3.901-2.093,3.885-4.911
					c-0.015-2.611-1.043-4.112-3.554-5.309c-2.985-1.423-4.967-3.44-4.987-7.267c-0.022-4.229,2.375-7.918,6.01-8.289
					c1.914-0.195,3.305,0.373,4.141,1.03c-0.26,1.251-0.39,1.87-0.65,3.096c-0.613-0.453-1.866-1.187-3.558-1.019
					c-2.553,0.254-3.512,2.67-3.502,4.544c0.014,2.567,1.162,3.684,3.75,4.963c3.17,1.567,4.791,3.752,4.813,7.881
					c0.023,4.338-2.08,8.288-6.499,8.375c-1.806,0.036-3.788-0.754-4.796-1.752C358.965,115.634,359.084,115.022,359.323,113.812z"
					/>
				<path style="fill:#FFFFFF;" d="M382.905,104.259c-2.88,0.087-4.323,0.141-7.216,0.264c0.016,4.096,0.024,6.136,0.041,10.31
					c3.213-0.051,4.814-0.072,7.999-0.103c0,1.261,0,1.892,0,3.153c-4.125,0.045-6.204,0.073-10.381,0.139
					c-0.043-9.513-0.089-19.026-0.132-28.54c4.039-0.335,6.059-0.478,10.098-0.69c0,1.262,0.001,1.893,0.001,3.154
					c-3.068,0.165-4.602,0.266-7.673,0.497c0.014,3.659,0.021,5.453,0.036,9.046c2.896-0.154,4.342-0.221,7.227-0.333
					C382.904,102.398,382.904,103.018,382.905,104.259z"/>
			</g>
		</g>
		<g>
			<g>
				<path style="fill:#D10C21;" d="M315.755,155.308c0,0.482,0,0.714,0,1.168c-0.913-0.021-1.37-0.031-2.283-0.053
					c0,1.287,0,1.858,0,3.076c-0.708-0.037-1.062-0.055-1.77-0.093c0-2.899,0-3.93,0-8.392c1.872,0,2.807,0,4.679,0
					c0,0.64,0,0.942,0,1.52c-1.164-0.003-1.746-0.004-2.91-0.007c0,1.212,0,1.744,0,2.747
					C314.385,155.288,314.842,155.295,315.755,155.308z"/>
				<path style="fill:#D10C21;" d="M319.772,150.886c1.738,0,2.687,1.078,2.687,2.631c0,2.02,0,2.848,0.001,4.517
					c0,1.284-0.948,1.957-2.686,1.871c-1.737-0.086-2.686-0.82-2.686-2.047c0-1.595,0-2.386-0.001-4.367
					C317.087,151.967,318.035,150.886,319.772,150.886z M319.773,158.794c0.563,0.023,0.917-0.174,0.917-0.738
					c0-1.706-0.001-2.547-0.001-4.644c0-0.693-0.354-0.986-0.918-0.987c-0.562-0.001-0.916,0.29-0.916,0.979
					c0,2.084,0.001,2.911,0.001,4.591C318.857,158.551,319.211,158.772,319.773,158.794z"/>
				<path style="fill:#D10C21;" d="M327.136,159.15c0-0.519,0-0.778,0-1.304c0-0.778-0.354-1.085-1.159-1.102
					c-0.244-0.005-0.366-0.008-0.61-0.013c0,1.384,0,2.02,0,3.351c-0.707-0.033-1.061-0.05-1.769-0.083
					c-0.001-3.223-0.001-4.495-0.001-8.985c1.067,0,1.601,0,2.669,0c1.834,0,2.622,0.894,2.622,2.431c0,0.313,0,0.467,0,0.768
					c0,0.988-0.37,1.577-1.158,1.855c0.885,0.305,1.174,0.979,1.174,1.863c0,0.523,0,0.781,0,1.298c0,0.406,0.016,0.705,0.192,1.026
					c-0.72-0.033-1.081-0.049-1.801-0.082C327.2,159.955,327.136,159.822,327.136,159.15z M325.367,155.49
					c0.276,0.004,0.414,0.005,0.691,0.009c0.659,0.008,1.061-0.206,1.061-0.958c0-0.37,0-0.559,0-0.946
					c0-0.703-0.273-1.039-0.901-1.04c-0.341-0.001-0.511-0.001-0.852-0.001C325.367,153.822,325.367,154.395,325.367,155.49z"/>
				<path style="fill:#D10C21;" d="M339.072,166.465c0-1.117,0.001-1.644,0.001-2.671c0.001-1.517-0.606-2.06-1.985-2.131
					c-0.419-0.021-0.628-0.032-1.047-0.053c-0.001,2.502-0.001,3.748-0.002,6.905c-1.212-0.092-1.819-0.138-3.031-0.231
					c0.001-7.757,0.001-8.831,0.002-16.163c1.831,0.001,2.746,0.002,4.577,0.003c3.144,0.002,4.494,1.461,4.493,4.004
					c0,0.518,0,0.773-0.001,1.279c-0.001,1.655-0.635,2.678-1.986,3.133c1.515,0.576,2.012,1.781,2.011,3.513
					c0,1.025-0.001,1.55-0.001,2.656c0,0.87,0.027,1.542,0.329,2.284c-1.235-0.091-1.852-0.137-3.087-0.229
					C339.181,168.252,339.072,167.911,339.072,166.465z M336.042,159.439c0.474,0.017,0.711,0.025,1.185,0.042
					c1.13,0.04,1.82-0.324,1.82-1.577c0-0.617,0-0.928,0.001-1.564c0-1.152-0.467-1.7-1.544-1.707
					c-0.584-0.004-0.876-0.006-1.461-0.011C336.043,156.675,336.043,157.581,336.042,159.439z"/>
				<path style="fill:#D10C21;" d="M351.286,159.498c-0.001,0.958-0.001,1.434-0.002,2.396c-1.665-0.079-2.498-0.118-4.163-0.196
					c-0.001,1.922-0.002,2.883-0.003,4.983c2.095,0.148,3.142,0.222,5.237,0.37c-0.001,1.039-0.001,1.57-0.002,2.674
					c-3.308-0.245-4.961-0.366-8.268-0.611c0.004-7.741,0.006-9.556,0.009-16.987c3.309,0.002,4.963,0.003,8.272,0.005
					c-0.001,1.071-0.001,1.589-0.002,2.604c-2.096-0.015-3.143-0.022-5.239-0.036c-0.001,1.942-0.002,2.844-0.003,4.664
					C348.789,159.418,349.621,159.445,351.286,159.498z"/>
				<path style="fill:#D10C21;" d="M356.929,170.066c-1.092-0.082-1.638-0.123-2.73-0.204c0.006-7.723,0.008-10.213,0.014-17.728
					c1.522,0.001,2.283,0.001,3.806,0.002c1.243,4.519,1.864,6.491,3.108,10.841c0.003-4.285,0.005-6.303,0.008-10.839
					c1.081,0.001,1.622,0.001,2.703,0.002c-0.005,7.604-0.007,10.739-0.012,18.452c-1.247-0.097-1.871-0.145-3.118-0.24
					c-1.507-5.703-2.261-8.088-3.768-13.215C356.935,162.236,356.933,164.475,356.929,170.066z"/>
				<path style="fill:#D10C21;" d="M374.509,152.151c0,1.103,0,1.655,0,2.758c-1.269-0.011-1.903-0.017-3.172-0.028
					c-0.002,6.538-0.003,9.696-0.004,16.309c-1.215-0.1-1.823-0.149-3.037-0.246c0.003-6.611,0.005-9.626,0.008-16.089
					c-1.269-0.01-1.903-0.015-3.172-0.025c0.001-1.064,0.001-1.601,0.002-2.689C368.882,152.144,370.758,152.146,374.509,152.151z"
					/>
			</g>
		</g>
		<g>
			<g>
				<path style="fill:#FFFFFF;" d="M309.775,151.413c1.628,0,2.442,0,4.07,0c0,0.473,0,0.701,0,1.139
					c-1.238-0.002-1.857-0.003-3.094-0.005c0,1.338,0,1.915,0,2.998c1.144,0.017,1.715,0.025,2.859,0.041c0,0.354,0,0.527,0,0.865
					c-1.143-0.023-1.715-0.035-2.859-0.059c0,1.4,0,2.005,0,3.301c-0.39-0.02-0.586-0.03-0.976-0.05
					C309.775,156.807,309.775,155.771,309.775,151.413z"/>
				<path style="fill:#FFFFFF;" d="M321.695,156.116c0,2.938-1.579,4.163-3.507,4.069c-1.996-0.097-3.398-1.569-3.398-4.021
					c0-2.572,1.491-4.931,3.508-4.931C320.361,151.234,321.695,153.584,321.695,156.116z M315.832,156.158
					c0,1.745,0.876,3.16,2.411,3.224c1.547,0.065,2.421-1.311,2.421-3.232c0-1.683-0.786-3.788-2.411-3.79
					C316.639,152.36,315.831,154.365,315.832,156.158z"/>
				<path style="fill:#FFFFFF;" d="M322.965,151.56c0.493-0.145,1.2-0.227,1.872-0.227c1.043,0,1.714,0.291,2.186,0.88
					c0.376,0.47,0.594,1.171,0.594,1.914c0,1.272-0.627,2.018-1.423,2.315c0,0.016,0,0.023,0,0.039
					c0.583,0.241,0.929,0.867,1.11,1.735c0.243,1.168,0.426,1.964,0.582,2.291c-0.403-0.018-0.605-0.027-1.008-0.045
					c-0.123-0.237-0.298-0.948-0.505-1.977c-0.229-1.137-0.628-1.604-1.513-1.658c-0.368-0.007-0.551-0.01-0.919-0.017
					c0,1.462,0,2.128,0,3.52c-0.39-0.018-0.585-0.027-0.976-0.045C322.966,157.139,322.966,155.857,322.965,151.56z M323.941,155.97
					c0.399,0.005,0.598,0.008,0.997,0.014c1.042,0.014,1.704-0.63,1.704-1.719c0-1.231-0.714-1.858-1.738-1.866
					c-0.467-0.004-0.807,0.061-0.964,0.123C323.941,154.031,323.941,154.697,323.941,155.97z"/>
				<path style="fill:#FFFFFF;" d="M331.987,153.054c0.846-0.233,2.058-0.365,3.213-0.364c1.789,0.002,2.942,0.478,3.751,1.437
					c0.645,0.765,1.018,1.907,1.018,3.134c-0.001,2.099-1.079,3.382-2.444,3.865c0,0.027,0,0.041,0,0.068
					c1,0.451,1.593,1.562,1.903,3.268c0.417,2.293,0.728,4.12,0.998,4.872c-0.692-0.051-1.038-0.077-1.73-0.128
					c-0.212-0.551-0.509-2.203-0.864-4.264c-0.392-2.279-1.076-3.059-2.595-3.201c-0.631-0.031-0.946-0.046-1.577-0.077
					c-0.001,2.592-0.001,3.87-0.002,7.165c-0.669-0.051-1.003-0.076-1.672-0.127C331.986,161.195,331.986,159.979,331.987,153.054z
					 M333.659,160.208c0.685,0.027,1.027,0.04,1.712,0.067c1.789,0.069,2.924-1.021,2.925-2.812c0.001-2.023-1.223-3.03-2.981-3.051
					c-0.802-0.01-1.385,0.092-1.654,0.189C333.66,157.021,333.66,158.049,333.659,160.208z"/>
				<path style="fill:#FFFFFF;" d="M349.044,161.821c-2.016-0.09-3.024-0.135-5.039-0.225c-0.001,2.297-0.002,3.433-0.004,6.009
					c2.246,0.162,3.369,0.243,5.615,0.405c-0.001,0.782-0.001,1.181-0.001,2.002c-2.915-0.216-4.373-0.323-7.288-0.538
					c0.004-7.592,0.006-9.437,0.009-16.645c2.801,0.003,4.201,0.004,7.002,0.007c-0.001,0.789-0.001,1.173-0.001,1.93
					c-2.132-0.012-3.197-0.019-5.329-0.031c-0.001,2.168-0.002,3.156-0.003,5.164c2.016,0.068,3.024,0.101,5.04,0.169
					C349.045,160.77,349.045,161.119,349.044,161.821z"/>
				<path style="fill:#FFFFFF;" d="M351.789,170.174c0.005-7.576,0.008-10.023,0.013-17.334c0.731,0.001,1.096,0.001,1.827,0.002
					c1.659,3.711,2.489,5.359,4.149,8.937c0.96,2.072,1.71,3.979,2.324,5.887c0.016-0.01,0.023-0.015,0.039-0.024
					c-0.152-2.441-0.19-4.57-0.188-7.304c0.002-2.937,0.003-4.389,0.005-7.488c0.631,0.001,0.946,0.001,1.577,0.002
					c-0.005,7.425-0.007,10.495-0.012,18.06c-0.677-0.052-1.016-0.079-1.693-0.131c-1.645-3.966-2.467-5.779-4.111-9.318
					c-0.903-1.94-1.767-3.886-2.42-5.785c-0.023,0.01-0.035,0.015-0.058,0.026c0.095,2.203,0.132,4.2,0.129,7.015
					c-0.002,2.896-0.004,4.337-0.006,7.573C352.735,170.244,352.42,170.221,351.789,170.174z"/>
				<path style="fill:#FFFFFF;" d="M366.923,154.905c-1.578-0.011-2.367-0.017-3.945-0.027c0.001-0.803,0.001-1.208,0.001-2.025
					c3.84,0.005,5.76,0.008,9.601,0.015c0,0.832,0,1.247,0,2.079c-1.586-0.012-2.379-0.018-3.965-0.03
					c-0.002,6.645-0.003,9.819-0.005,16.556c-0.678-0.055-1.017-0.083-1.695-0.137C366.919,164.601,366.921,161.51,366.923,154.905z
					"/>
			</g>
		</g>
	</g>
	<g>
		<path style="fill:#35292B;" d="M331.077,214.593v120.757l-4.42,2.65l-11.938-1.668V216.454l0.266-0.029
			c1.287-0.154,7.037-0.828,11.326-1.314l0.209-0.023c1.927-0.225,3.521-0.401,4.204-0.468
			C330.948,214.599,331.072,214.589,331.077,214.593z"/>
		<polygon style="fill:#35292B;" points="330.77,214.684 314.986,216.425 315.004,216.396 320.591,206.828 322.728,203.171 
			330.725,214.619 		"/>
		<path style="fill:#5A4741;" d="M314.719,336.331L326.657,338v-65.53V219.55v-4.413v-0.057c-0.005-0.003-0.049,0.001-0.136,0.007
			l-0.068,0.008c-0.015,0.002-0.029,0.003-0.049,0.005c-0.029-0.001-0.058,0.002-0.092,0.006c-1.465,0.142-7.222,0.81-11.308,1.289"
			/>
		<polyline style="fill:#5A4741;" points="314.719,216.454 314.986,216.425 326.356,215.171 326.312,215.111 326.312,215.107 
			320.591,206.828 315.004,216.396 		"/>
		<path style="fill:#D10C21;" d="M396.487,255.978l-37.593-27.043c-3.132-1.81-12.364-1.712-12.364,1.905l2.999,6.795l-69.619,0.897
			c-4.567,0.533-8.01,4.401-8.01,8.999l2.317,17.78c0,5.092,4.196,9.184,9.286,9.057l68.342,5.384l-5.197,6.987
			c0,3.542,8.968,3.944,12.097,2.284l37.593-24.827C399.598,262.466,399.682,257.825,396.487,255.978z"/>
		<path style="fill:#F12E3B;" d="M390.108,255.978l-37.593-27.043c-3.132-1.81-7.049,0.45-7.049,4.068v6.767l-69.619,0.897
			c-4.567,0.533-8.01,4.401-8.01,8.999v15.646c0,5.092,4.196,9.184,9.286,9.057l68.342,5.384v5.121c0,3.542,3.771,5.81,6.9,4.15
			l37.593-24.827C393.219,262.466,393.303,257.825,390.108,255.978z"/>
		
			<linearGradient id="SVGID_00000160188836206693087640000016267855342820540068_" gradientUnits="userSpaceOnUse" x1="316.7357" y1="273.9893" x2="308.9222" y2="285.5236">
			<stop  offset="0" style="stop-color:#000000;stop-opacity:0"/>
			<stop  offset="1" style="stop-color:#000000"/>
		</linearGradient>
		<path style="opacity:0.22;fill:url(#SVGID_00000160188836206693087640000016267855342820540068_);" d="M390.108,255.978
			l-37.593-27.043c-3.132-1.81-7.049,0.45-7.049,4.068v6.767l-69.619,0.897c-4.567,0.533-8.01,4.401-8.01,8.999v15.646
			c0,5.092,4.196,9.184,9.286,9.057l68.342,5.384v5.121c0,3.542,3.771,5.81,6.9,4.15l37.593-24.827
			C393.219,262.466,393.303,257.825,390.108,255.978z"/>
		<path style="fill:none;stroke:#FFFFFF;stroke-miterlimit:10;" d="M350.168,285.325c-0.089,0-0.45-0.08-0.45-0.452v-9.051
			l-72.481-5.71l-0.345,0.007c-2.65,0-4.804-2.157-4.804-4.808v-15.645c0-2.378,1.736-4.388,4.067-4.75l73.563-0.947v-10.965
			c0-0.426,0.447-0.452,0.453-0.452c0.027,0,0.064,0.003,0.114,0.02l37.511,26.984l0.183,0.106c0.069,0.039,0.228,0.131,0.223,0.394
			c-0.005,0.262-0.167,0.348-0.237,0.385l-0.18,0.096l-37.512,24.773C350.229,285.322,350.194,285.325,350.168,285.325
			L350.168,285.325z"/>
		<g style="opacity:0.64;">
			<g>
				<path style="fill:#D10C21;" d="M287.467,250.202c2.239,0,3.377,1.326,3.353,3.716c-0.002,0.188-0.003,0.282-0.005,0.47
					c-0.866-0.006-1.299-0.009-2.165-0.014c0.002-0.246,0.003-0.369,0.005-0.615c0.008-1.06-0.406-1.46-1.136-1.46
					c-0.731-0.001-1.149,0.397-1.153,1.45c-0.012,3.033,4.44,3.713,4.397,7.982c-0.024,2.391-1.191,3.668-3.4,3.582
					c-2.209-0.086-3.347-1.466-3.347-3.811c0-0.36,0-0.54,0-0.9c0.854,0.025,1.282,0.038,2.138,0.064
					c-0.002,0.422-0.002,0.632-0.004,1.053c-0.004,1.052,0.445,1.446,1.164,1.473c0.718,0.027,1.173-0.334,1.181-1.393
					c0.022-3.051-4.417-3.729-4.417-7.915C284.077,251.541,285.228,250.202,287.467,250.202z"/>
				<path style="fill:#D10C21;" d="M297.074,265.548c-0.139-1.065-0.209-1.611-0.349-2.713c-1.119-0.045-1.678-0.067-2.795-0.11
					c-0.172,1.082-0.257,1.618-0.428,2.67c-0.833-0.035-1.248-0.053-2.079-0.087c0.986-5.801,1.489-9.105,2.507-14.94
					c1.347,0,2.021,0,3.368,0c0.839,5.832,1.253,9.41,2.073,15.283C298.452,265.609,297.992,265.589,297.074,265.548z
					 M296.446,260.758c-0.392-3.114-0.589-4.721-0.986-7.764c-0.488,3.04-0.73,4.632-1.211,7.692
					C295.127,260.715,295.566,260.729,296.446,260.758z"/>
				<path style="fill:#D10C21;" d="M303.01,250.368c-0.102,4.998-0.153,8.091-0.255,13.305c1.507,0.066,2.261,0.099,3.772,0.166
					c-0.018,0.876-0.027,1.307-0.045,2.14c-2.427-0.115-3.638-0.172-6.053-0.281c0.112-5.83,0.168-9.5,0.28-15.331
					C301.629,250.368,302.09,250.368,303.01,250.368z"/>
				<path style="fill:#D10C21;" d="M313.126,257.028c-0.019,0.945-0.028,1.422-0.047,2.368c-1.265-0.037-1.897-0.055-3.16-0.092
					c-0.038,1.913-0.057,2.873-0.095,4.684c1.589,0.072,2.384,0.109,3.976,0.183c-0.019,0.892-0.028,1.327-0.046,2.162
					c-2.514-0.124-3.769-0.186-6.273-0.305c0.128-5.834,0.192-9.826,0.32-15.659c2.511,0,3.767,0,6.278,0
					c-0.019,0.835-0.028,1.27-0.047,2.162c-1.591-0.005-2.386-0.007-3.976-0.012c-0.036,1.722-0.054,2.633-0.091,4.45
					C311.23,256.992,311.862,257.004,313.126,257.028z"/>
				<path style="fill:#D10C21;" d="M325.778,250.368c-2.421,5.868-3.641,10.525-6.085,16.262c-0.799-0.041-1.198-0.061-1.996-0.101
					c2.444-5.733,3.666-10.298,6.092-16.161C324.585,250.368,324.982,250.368,325.778,250.368z"/>
				<path style="fill:#D10C21;" d="M334.382,265.481c0.013-1.019,0.02-1.557,0.033-2.657c0.02-1.625-0.437-2.279-1.488-2.314
					c-0.32-0.011-0.48-0.016-0.799-0.026c-0.037,2.911-0.056,4.385-0.093,6.781c-0.928-0.048-1.392-0.072-2.32-0.12
					c0.099-5.88,0.148-10.896,0.247-16.776c1.39,0,2.085,0,3.474,0c2.386,0,3.398,1.046,3.368,3.714
					c-0.006,0.543-0.009,0.82-0.015,1.38c-0.02,1.831-0.516,3.073-1.553,3.644c1.15,0.63,1.515,2.053,1.495,3.89
					c-0.012,1.087-0.018,1.618-0.029,2.623c-0.009,0.791,0.005,1.342,0.23,1.901c-0.946-0.049-1.419-0.074-2.365-0.123
					C334.445,267.011,334.365,266.801,334.382,265.481z M332.16,257.918c0.361,0.008,0.542,0.012,0.904,0.02
					c0.862,0.019,1.392-0.446,1.408-1.872c0.008-0.703,0.012-1.051,0.021-1.732c0.015-1.234-0.334-1.736-1.151-1.739
					c-0.445-0.002-0.667-0.002-1.111-0.004C332.202,254.597,332.188,255.713,332.16,257.918z"/>
				<path style="fill:#D10C21;" d="M343.782,257.641c-0.007,1.072-0.011,1.616-0.018,2.69c-1.271-0.039-1.906-0.059-3.177-0.098
					c-0.018,2.173-0.027,3.269-0.046,5.22c1.603,0.078,2.405,0.116,4.007,0.193c-0.007,0.961-0.01,1.421-0.017,2.266
					c-2.534-0.13-3.801-0.196-6.335-0.328c0.071-5.904,0.106-11.313,0.176-17.216c2.512,0,3.767,0,6.279,0
					c-0.007,0.846-0.01,1.306-0.017,2.267c-1.593-0.006-2.389-0.008-3.982-0.014c-0.017,1.856-0.026,2.891-0.043,4.955
					C341.879,257.603,342.513,257.615,343.782,257.641z"/>
				<path style="fill:#D10C21;" d="M348.036,268.093c-0.836-0.043-1.254-0.064-2.09-0.107c0.043-5.925,0.065-11.691,0.108-17.616
					c1.155,0,1.733,0,2.889,0c0.926,3.551,1.391,6.215,2.326,10.85c0.015-4.604,0.023-7.296,0.038-10.85c0.821,0,1.231,0,2.052,0
					c-0.019,5.942-0.029,12.047-0.049,17.99c-0.953-0.048-1.43-0.072-2.383-0.12c-1.136-4.359-1.702-7.93-2.825-13.243
					C348.075,260.298,348.062,263.798,348.036,268.093z"/>
				<path style="fill:#D10C21;" d="M361.456,250.37c0,0.851,0,1.324,0,2.322c-0.963-0.003-1.445-0.004-2.408-0.007
					c-0.004,5.957-0.006,10.857-0.01,15.959c-0.926-0.045-1.389-0.068-2.315-0.114c0.009-5.099,0.013-9.926,0.022-15.853
					c-0.964-0.003-1.445-0.005-2.409-0.008c0.002-0.983,0.004-1.45,0.006-2.3C357.187,250.37,358.61,250.37,361.456,250.37z"/>
			</g>
		</g>
		<g>
			<g>
				<path style="fill:#FFFFFF;" d="M282.223,262.179c0.593,0.517,1.459,0.963,2.373,0.997c1.356,0.051,2.158-0.897,2.169-2.325
					c0.01-1.323-0.547-2.136-1.93-2.862c-1.645-0.863-2.731-2.04-2.731-4.005c0.001-2.171,1.354-3.783,3.391-3.783
					c1.073,0,1.847,0.33,2.31,0.681c-0.154,0.587-0.232,0.883-0.385,1.475c-0.339-0.251-1.034-0.667-1.98-0.667
					c-1.427,0-1.973,1.138-1.975,2.093c-0.004,1.308,0.628,1.956,2.055,2.73c1.749,0.948,2.632,2.142,2.612,4.233
					c-0.021,2.196-1.217,4.01-3.634,3.917c-0.988-0.038-2.063-0.472-2.61-0.987C282.022,263.078,282.089,262.778,282.223,262.179z"
					/>
				<path style="fill:#FFFFFF;" d="M291.643,260.261c-0.455,1.804-0.681,2.698-1.132,4.438c-0.551-0.023-0.826-0.034-1.377-0.057
					c1.461-5.528,2.206-8.662,3.712-14.214c0.653,0,0.979,0,1.632,0c1.34,5.551,2,8.907,3.313,14.587
					c-0.573-0.026-0.86-0.038-1.432-0.064c-0.412-1.784-0.618-2.716-1.033-4.574C293.852,260.329,293.115,260.306,291.643,260.261z
					 M295.072,258.887c-0.381-1.704-0.572-2.56-0.955-4.234c-0.218-0.949-0.36-1.802-0.502-2.622c-0.012,0-0.019,0-0.031,0
					c-0.168,0.841-0.352,1.714-0.566,2.592c-0.433,1.67-0.648,2.515-1.078,4.185C293.192,258.839,293.819,258.854,295.072,258.887z"
					/>
				<path style="fill:#FFFFFF;" d="M299.596,250.427c0.541,0,0.812,0,1.353,0c-0.101,4.951-0.152,8.005-0.253,13.17
					c1.781,0.077,2.673,0.117,4.459,0.196c-0.013,0.634-0.02,0.947-0.033,1.559c-2.325-0.11-3.485-0.164-5.8-0.269
					C299.432,259.461,299.486,255.979,299.596,250.427z"/>
				<path style="fill:#FFFFFF;" d="M312.197,258.513c-1.63-0.042-2.445-0.062-4.073-0.103c-0.045,2.246-0.067,3.387-0.112,5.512
					c1.814,0.082,2.723,0.124,4.541,0.208c-0.013,0.646-0.02,0.963-0.033,1.579c-2.361-0.116-3.54-0.174-5.892-0.286
					c0.123-5.66,0.185-9.438,0.308-14.997c2.264,0,3.396,0,5.66,0c-0.013,0.603-0.02,0.914-0.033,1.549
					c-1.723-0.003-2.584-0.005-4.307-0.008c-0.039,1.836-0.059,2.818-0.098,4.78c1.628,0.029,2.443,0.044,4.073,0.073
					C312.217,257.496,312.21,257.836,312.197,258.513z"/>
				<path style="fill:#FFFFFF;" d="M316.371,266.736c1.87-5.853,2.803-10.589,4.658-16.535c0.423,0,0.634,0,1.057,0
					c-1.859,5.947-2.794,10.735-4.67,16.588C316.998,266.768,316.789,266.758,316.371,266.736z"/>
				<path style="fill:#FFFFFF;" d="M326.512,250.617c0.688-0.189,1.669-0.292,2.602-0.292c1.446,0,2.372,0.347,3.015,1.179
					c0.512,0.663,0.802,1.726,0.787,3c-0.026,2.181-0.916,3.714-2.032,4.297c0,0.03-0.001,0.046-0.001,0.076
					c0.806,0.48,1.273,1.744,1.505,3.493c0.312,2.35,0.549,3.812,0.761,4.386c-0.564-0.029-0.847-0.044-1.411-0.073
					c-0.166-0.419-0.392-1.708-0.655-3.773c-0.291-2.283-0.835-3.237-2.068-3.349c-0.512-0.015-0.768-0.022-1.28-0.037
					c-0.041,2.932-0.061,4.438-0.102,6.949c-0.545-0.028-0.818-0.042-1.363-0.07C326.367,260.695,326.415,256.205,326.512,250.617z
					 M327.758,257.866c0.555,0.012,0.833,0.019,1.388,0.031c1.452,0.032,2.388-1.272,2.411-3.16c0.027-2.133-0.952-2.957-2.373-2.97
					c-0.649-0.006-1.121,0.087-1.341,0.175C327.809,254.142,327.792,255.397,327.758,257.866z"/>
				<path style="fill:#FFFFFF;" d="M340.238,259.255c-1.637-0.044-2.455-0.066-4.092-0.109c-0.024,2.529-0.036,3.83-0.061,6.109
					c1.83,0.088,2.745,0.133,4.575,0.22c-0.006,0.692-0.008,1.028-0.014,1.666c-2.377-0.121-3.566-0.183-5.944-0.305
					c0.072-5.845,0.108-10.774,0.179-16.406c2.264,0,3.396,0,5.66,0.001c-0.006,0.612-0.009,0.936-0.014,1.608
					c-1.725-0.004-2.587-0.006-4.311-0.01c-0.021,1.944-0.032,3.047-0.053,5.249c1.635,0.032,2.453,0.047,4.088,0.079
					C340.246,258.112,340.244,258.494,340.238,259.255z"/>
				<path style="fill:#FFFFFF;" d="M342.42,267.231c0.046-5.9,0.069-11.145,0.114-16.801c0.591,0,0.886,0,1.477,0
					c1.323,2.864,1.987,4.81,3.321,8.551c0.772,2.167,1.375,4.131,1.869,5.889c0.013-0.01,0.019-0.014,0.031-0.024
					c-0.117-2.272-0.141-4.583-0.131-7.431c0.01-3.06,0.015-4.61,0.026-6.984c0.51,0,0.765,0,1.275,0
					c-0.021,5.678-0.031,11.248-0.052,17.201c-0.552-0.027-0.827-0.041-1.379-0.069c-1.328-3.083-1.99-5.141-3.309-8.866
					c-0.724-2.042-1.414-4.096-1.932-5.85c-0.019,0.009-0.028,0.014-0.047,0.023c0.065,2.042,0.084,4.231,0.066,7.229
					c-0.018,3.083-0.027,4.673-0.044,7.197C343.191,267.271,342.934,267.258,342.42,267.231z"/>
				<path style="fill:#FFFFFF;" d="M354.756,252.092c-1.276-0.003-1.914-0.004-3.189-0.007c0.002-0.697,0.003-1.031,0.005-1.654
					c3.103,0,4.655,0,7.758,0c0,0.626,0,0.963,0,1.669c-1.282-0.002-1.923-0.004-3.205-0.006
					c-0.006,5.697-0.008,10.489-0.014,15.821c-0.55-0.027-0.826-0.04-1.376-0.067C354.743,262.524,354.747,257.775,354.756,252.092z
					"/>
			</g>
		</g>
	</g>
	<g>
		<g>
			<path style="fill:#D10C21;" d="M53.573,226.269v26.973c0,7.289,5.812,13.249,13.099,13.431l138.122,4.163
				c7.549,0.189,13.771-5.879,13.771-13.431v-17.231c0-6.818-5.107-12.555-11.878-13.345L68.564,212.924
				C60.582,211.993,53.573,218.232,53.573,226.269z"/>
			<path style="fill:#F12E3B;" d="M61.057,225.3v29.727c0,6.4,5.103,11.632,11.501,11.792l133.916,4.058
				c6.628,0.166,12.091-5.162,12.091-11.792v-20.37c0-5.986-4.484-11.023-10.429-11.717L74.22,213.584
				C67.211,212.766,61.057,218.244,61.057,225.3z"/>
			
				<linearGradient id="SVGID_00000064354306574771805200000004299174719182355135_" gradientUnits="userSpaceOnUse" x1="232.4047" y1="243.695" x2="218.3462" y2="294.9404" gradientTransform="matrix(-1 0 0 1 371.3468 0)">
				<stop  offset="0" style="stop-color:#000000;stop-opacity:0"/>
				<stop  offset="1" style="stop-color:#000000"/>
			</linearGradient>
			<path style="opacity:0.22;fill:url(#SVGID_00000064354306574771805200000004299174719182355135_);" d="M61.059,225.304v29.727
				c0,6.392,5.098,11.63,11.501,11.792l133.915,4.051c6.629,0.172,12.094-5.163,12.094-11.792v-20.371
				c0-5.982-4.484-11.016-10.434-11.716l-15.51-1.811l-3.665-0.42l-97.699-9.192l-4.225-0.485l-12.816-1.498
				C67.214,212.769,61.059,218.244,61.059,225.304z"/>
			<path style="fill:none;stroke:#FFFFFF;stroke-miterlimit:10;" d="M206.775,266.57c4.124,0,7.479-3.357,7.479-7.484v-20.37
				c0-3.798-2.845-6.994-6.618-7.434L73.719,217.866c-0.295-0.035-0.594-0.052-0.887-0.052c-4.116,0-7.464,3.358-7.464,7.486v29.727
				c0,4.093,3.206,7.38,7.298,7.482L206.775,266.57z"/>
			<path style="opacity:0.64;fill:#D10C21;" d="M188.96,224.763l1.703,6.478c0,0,1.8-1.962,1.962-6.058L188.96,224.763z"/>
			<path style="opacity:0.64;fill:#D10C21;" d="M87.036,215.086l2.339,8.871c0,0,2.468-2.705,1.886-8.386L87.036,215.086z"/>
			<path style="fill:none;stroke:#BA8E63;stroke-width:2;stroke-linecap:round;stroke-linejoin:round;stroke-miterlimit:10;" d="
				M190.988,206.369c0,0,2.363,18.656,0.912,24.875"/>
			<path style="fill:none;stroke:#BA8E63;stroke-width:2;stroke-linecap:round;stroke-linejoin:round;stroke-miterlimit:10;" d="
				M90.433,196.547c0,0,1.466,18.217,0,27.304"/>
		</g>
		<polygon style="fill:#35292B;" points="27.475,155.654 27.475,474.142 35.876,475.308 45.766,473.412 45.766,154.092 
			35.876,152.196 		"/>
		<polygon style="fill:#5A4741;" points="35.876,152.196 35.876,475.308 45.766,473.412 45.766,154.092 		"/>
		<polygon style="fill:#35292B;" points="212.949,211.999 214.254,213.825 211.543,215.313 22.373,193.017 22.373,178.913 
			27.475,176.947 31.28,183.367 		"/>
		<polyline style="fill:#5A4741;" points="201.965,211.999 201.965,211.999 201.965,203.054 45.766,179.907 45.766,191.963 
			53.695,192.998 116.302,201.17 		"/>
		<polygon style="fill:#5A4741;" points="201.965,203.054 201.965,211.999 214.254,213.825 214.254,205.066 		"/>
		<polygon style="fill:#5A4741;" points="27.475,176.947 27.475,189.221 45.766,191.963 45.766,179.907 		"/>
		<circle style="fill:#BA8E63;" cx="40.921" cy="184.635" r="1.166"/>
		<g style="opacity:0.64;">
			<g>
				<path style="fill:#D10C21;" d="M94.205,236.623c0.001,1.393,0.001,2.126,0.001,3.614c0.002,4.577-1.501,7.115-4.563,7.042
					c-0.579-0.014-0.868-0.02-1.447-0.033c0.001,4.363,0.001,6.545,0.002,9.538c-1.225-0.005-1.838-0.006-3.063-0.006
					c0-7.979,0-18.582,0-26.561c1.8,0.101,2.701,0.154,4.503,0.263C92.699,230.664,94.204,232.336,94.205,236.623z M88.196,243.037
					c0.579,0.019,0.868,0.029,1.447,0.049c0.974,0.034,1.503-0.636,1.502-2.701c-0.001-1.735-0.001-2.592-0.001-4.199
					c-0.001-1.912-0.53-2.456-1.504-2.511c-0.579-0.033-0.868-0.049-1.446-0.081C88.194,236.937,88.195,239.026,88.196,243.037z"/>
				<path style="fill:#D10C21;" d="M101.897,254.269c0-1.482,0-2.298-0.001-3.988c0-2.496-0.614-3.544-2.006-3.594
					c-0.423-0.015-0.635-0.023-1.059-0.038c0.001,4.643,0.002,7.015,0.003,10.242c-1.225-0.019-1.838-0.028-3.063-0.044
					c-0.004-7.936-0.006-18.044-0.01-25.98c1.85,0.123,2.775,0.186,4.626,0.316c3.179,0.223,4.547,1.653,4.547,5.642
					c0,0.813,0,1.232,0,2.083c0,2.788-0.642,4.706-2.008,5.581c1.533,1.006,2.035,3.224,2.035,6.001c0,1.643,0,2.437,0,3.883
					c0,1.138,0.028,1.899,0.334,2.64c-1.248-0.027-1.871-0.04-3.119-0.064C102.009,256.437,101.897,256.189,101.897,254.269z
					 M98.83,242.543c0.479,0.022,0.719,0.033,1.198,0.056c1.142,0.054,1.839-0.673,1.839-2.891c0-1.094,0-1.632,0-2.669
					c0-1.88-0.474-2.632-1.562-2.704c-0.591-0.039-0.886-0.059-1.477-0.097C98.829,237.213,98.829,239.014,98.83,242.543z"/>
				<path style="fill:#D10C21;" d="M111.383,231.771c3.017,0.233,4.662,2.006,4.657,6.074c-0.007,5.289-0.01,8.67-0.017,13.959
					c-0.005,4.068-1.651,5.658-4.659,5.579c-3.007-0.079-4.65-1.749-4.649-5.899c0.001-5.395,0.002-8.888,0.003-14.283
					C106.719,233.051,108.366,231.538,111.383,231.771z M111.367,254.31c0.975,0.029,1.589-0.547,1.59-2.363
					c0.005-5.491,0.007-9.084,0.012-14.575c0.002-1.815-0.612-2.457-1.589-2.529c-0.977-0.072-1.592,0.48-1.593,2.308
					c-0.003,5.528-0.004,9.161-0.007,14.689C109.779,253.668,110.392,254.282,111.367,254.31z"/>
				<path style="fill:#D10C21;" d="M126.64,233.218c1.711,0.141,2.567,0.212,4.278,0.355c-0.036,7.849-0.054,16.357-0.089,24.206
					c-1.159-0.041-1.738-0.062-2.897-0.102c0.022-5.632,0.034-10.597,0.056-17.874c-0.871,7.215-1.306,12.196-2.172,17.801
					c-1.158-0.04-1.738-0.059-2.896-0.097c-0.897-5.589-1.347-10.576-2.249-17.973c-0.014,7.332-0.021,12.337-0.035,17.899
					c-1.069-0.034-1.604-0.051-2.673-0.084c0.016-7.871,0.024-16.962,0.04-24.834c1.71,0.137,2.566,0.206,4.277,0.346
					c0.89,5.657,1.334,10.684,2.219,18.01C125.353,243.62,125.781,238.726,126.64,233.218z"/>
				<path style="fill:#D10C21;" d="M137.571,233.907c3.019,0.253,4.655,2.057,4.634,5.906c-0.027,5.004-0.041,8.081-0.069,13.085
					c-0.021,3.849-1.676,5.455-4.683,5.344c-3.007-0.111-4.641-1.827-4.626-5.752c0.02-5.104,0.03-8.288,0.051-13.391
					C132.893,235.173,134.552,233.654,137.571,233.907z M137.469,255.241c0.975,0.038,1.591-0.516,1.6-2.237
					c0.026-5.201,0.039-8.467,0.065-13.668c0.009-1.72-0.603-2.349-1.581-2.428c-0.978-0.079-1.596,0.452-1.603,2.183
					c-0.024,5.236-0.035,8.54-0.059,13.776C135.884,254.598,136.494,255.203,137.469,255.241z"/>
				<path style="fill:#D10C21;" d="M152.682,235.157c2.986,0.242,4.504,2.048,4.477,5.778c-0.002,0.293-0.003,0.441-0.005,0.738
					c-1.16-0.083-1.74-0.124-2.9-0.208c0.003-0.394,0.004-0.59,0.007-0.977c0.012-1.667-0.542-2.282-1.518-2.359
					c-0.976-0.077-1.539,0.452-1.55,2.129c-0.033,4.833,5.955,6.621,5.906,13.282c-0.027,3.73-1.602,5.362-4.61,5.255
					c-3.008-0.108-4.553-1.84-4.529-5.642c0.004-0.584,0.006-0.881,0.009-1.481c1.159,0.054,1.739,0.081,2.898,0.135
					c-0.005,0.693-0.007,1.035-0.011,1.707c-0.011,1.679,0.598,2.243,1.573,2.281c0.975,0.037,1.592-0.479,1.604-2.147
					c0.034-4.804-5.954-6.594-5.911-13.384C148.146,236.462,149.696,234.915,152.682,235.157z"/>
				<path style="fill:#D10C21;" d="M165.633,259.013c-0.199-1.427-0.298-2.207-0.497-3.832c-1.504-0.052-2.256-0.079-3.759-0.134
					c-0.224,1.621-0.336,2.4-0.561,3.813c-1.125-0.037-1.688-0.056-2.813-0.094c1.316-7.786,1.976-14.972,3.294-22.703
					c1.795,0.139,2.691,0.207,4.484,0.342c1.177,7.921,1.765,14.837,2.943,22.7C167.487,259.069,166.869,259.051,165.633,259.013z
					 M164.742,252.045c-0.555-4.793-0.832-7.536-1.387-12.094c-0.626,4.472-0.939,7.192-1.565,11.969
					C162.971,251.971,163.561,251.996,164.742,252.045z"/>
				<path style="fill:#D10C21;" d="M173.372,236.954c-0.057,6.71-0.085,11.936-0.142,19.327c2.015,0.057,3.023,0.083,5.038,0.132
					c-0.009,1.223-0.013,1.815-0.022,2.934c-3.241-0.07-4.862-0.112-8.103-0.202c0.069-7.828,0.103-14.579,0.172-22.407
					C171.538,236.826,172.15,236.869,173.372,236.954z"/>
				<path style="fill:#D10C21;" d="M186.91,246.877c-0.006,1.294-0.009,1.948-0.015,3.243c-1.677-0.052-2.515-0.08-4.193-0.14
					c-0.015,2.688-0.023,4.04-0.038,6.53c2.115,0.043,3.172,0.061,5.286,0.093c-0.006,1.205-0.008,1.792-0.014,2.911
					c-3.341-0.042-5.012-0.071-8.354-0.139c0.058-7.83,0.087-14.164,0.146-21.994c3.327,0.214,4.989,0.315,8.306,0.501
					c-0.006,1.119-0.008,1.706-0.014,2.911c-2.103-0.113-3.156-0.173-5.262-0.297c-0.015,2.368-0.022,3.648-0.036,6.202
					C184.397,246.773,185.235,246.809,186.91,246.877z"/>
				<path style="fill:#D10C21;" d="M193.996,237.973c2.95,0.145,4.462,1.951,4.462,5.363c0,0.268,0,0.403,0,0.673
					c-1.148-0.041-1.723-0.062-2.873-0.108c0.001-0.358,0.001-0.537,0.001-0.892c0.002-1.529-0.549-2.105-1.515-2.15
					c-0.966-0.045-1.521,0.48-1.525,2.019c-0.013,4.434,5.939,5.677,5.939,11.771c0,3.412-1.56,5.16-4.567,5.143
					c-3.008-0.017-4.559-1.769-4.545-5.25c0.002-0.535,0.003-0.805,0.005-1.348c1.156,0.023,1.733,0.034,2.888,0.054
					c-0.002,0.627-0.003,0.938-0.005,1.554c-0.005,1.54,0.606,2.069,1.579,2.077c0.973,0.008,1.586-0.51,1.588-2.04
					c0.007-4.406-5.953-5.671-5.928-11.886C189.517,239.472,191.046,237.828,193.996,237.973z"/>
			</g>
		</g>
		<g>
			<g>
				<path style="fill:#FFFFFF;" d="M83.135,230.549c0.804-0.167,1.857-0.281,3.198-0.201c1.647,0.098,2.851,0.743,3.623,1.971
					c0.694,1.105,1.132,2.894,1.133,5.323c0.001,2.47-0.357,4.553-0.995,6.033c-0.889,2.062-2.319,3.112-3.949,3.074
					c-0.498-0.012-0.958-0.064-1.342-0.289c0.001,4.659,0.001,7.031,0.001,10.223c-0.668-0.002-1.001-0.002-1.669-0.002
					C83.135,248.798,83.135,238.611,83.135,230.549z M84.802,243.369c0.364,0.23,0.824,0.331,1.38,0.349
					c2.013,0.063,3.24-2.206,3.238-5.998c-0.001-3.63-1.21-5.068-3.049-5.173c-0.728-0.042-1.283,0.03-1.571,0.154
					C84.802,236.357,84.802,238.789,84.802,243.369z"/>
				<path style="fill:#FFFFFF;" d="M93.329,231.201c0.844-0.215,2.053-0.277,3.205-0.198c1.786,0.122,2.936,0.671,3.746,1.963
					c0.644,1.027,1.018,2.676,1.018,4.707c0,3.477-1.075,5.993-2.438,6.946c0,0.05,0,0.076,0,0.126
					c0.998,0.8,1.59,2.893,1.901,5.653c0.417,3.708,0.73,5.722,0.998,6.489c-0.691-0.014-1.036-0.021-1.726-0.034
					c-0.211-0.561-0.509-2.318-0.864-5.564c-0.393-3.591-1.076-5.23-2.592-5.413c-0.629-0.023-0.944-0.035-1.574-0.057
					c0.002,4.943,0.002,7.518,0.004,10.951c-0.668-0.009-1.001-0.014-1.669-0.022C93.335,248.922,93.333,239.213,93.329,231.201z
					 M95.003,243.014c0.683,0.029,1.025,0.044,1.708,0.075c1.785,0.08,2.917-2.079,2.917-5.125
					c-0.001-3.442-1.226-4.713-2.977-4.847c-0.798-0.061-1.382,0.044-1.651,0.163C95.001,236.654,95.001,238.831,95.003,243.014z"/>
				<path style="fill:#FFFFFF;" d="M114.782,244.582c-0.012,9.374-2.723,12.87-6.022,12.785c-3.414-0.089-5.812-4.357-5.811-12.859
					c0.001-8.919,2.557-13.035,6.02-12.769C112.509,232.011,114.792,236.501,114.782,244.582z M104.734,244.51
					c-0.001,5.974,1.494,10.598,4.123,10.671c2.648,0.074,4.15-4.322,4.156-10.534c0.006-5.44-1.335-10.516-4.124-10.726
					C106.12,233.713,104.736,238.369,104.734,244.51z"/>
				<path style="fill:#FFFFFF;" d="M127.863,247.215c-0.084-3.662-0.186-8.101-0.156-10.917c-0.023-0.002-0.035-0.003-0.058-0.005
					c-0.453,2.614-1.001,5.835-1.666,9.446c-0.93,5.079-1.394,7.845-2.32,11.648c-0.506-0.017-0.76-0.026-1.266-0.043
					c-0.824-3.794-1.237-6.532-2.065-11.691c-0.607-3.817-1.12-7.312-1.48-10.06c-0.015-0.001-0.023-0.002-0.038-0.003
					c-0.045,2.853-0.149,7.388-0.272,11.401c-0.147,4.593-0.22,6.971-0.366,10.332c-0.637-0.02-0.955-0.03-1.592-0.05
					c0.377-7.842,0.566-16.722,0.946-24.543c0.855,0.069,1.282,0.104,2.137,0.173c0.875,3.867,1.312,6.7,2.185,11.923
					c0.531,3.324,0.965,6.263,1.285,8.742c0.023,0.001,0.035,0.001,0.058,0.002c0.333-2.383,0.801-5.269,1.387-8.582
					c0.937-5.079,1.406-7.778,2.346-11.488c0.855,0.071,1.283,0.107,2.138,0.178c0.288,7.853,0.431,16.206,0.716,24.041
					c-0.652-0.023-0.978-0.035-1.63-0.058C128.037,254.219,127.979,251.828,127.863,247.215z"/>
				<path style="fill:#FFFFFF;" d="M143.473,246.291c-0.049,8.69-2.779,12.145-6.078,12.022c-3.415-0.126-5.792-4.355-5.762-12.241
					c0.032-8.273,2.614-12.277,6.079-11.987C141.255,234.382,143.515,238.8,143.473,246.291z M133.42,246.103
					c-0.023,5.54,1.454,9.969,4.083,10.07c2.648,0.102,4.17-4.079,4.201-9.838c0.027-5.043-1.292-9.881-4.082-10.11
					C134.851,235.996,133.444,240.408,133.42,246.103z"/>
				<path style="fill:#FFFFFF;" d="M149.427,255.138c0.743,0.824,1.832,1.493,2.983,1.535c1.708,0.062,2.717-1.359,2.734-3.714
					c0.016-2.182-0.673-3.591-2.404-4.908c-2.036-1.549-3.395-3.806-3.373-7.128c0.025-3.671,1.716-5.732,4.233-5.53
					c1.326,0.106,2.282,0.636,2.854,1.189c-0.192,0.832-0.287,1.27-0.479,2.176c-0.419-0.421-1.279-1.12-2.451-1.212
					c-1.767-0.139-2.453,1.564-2.464,3.156c-0.015,2.18,0.765,3.396,2.542,4.812c2.175,1.733,3.277,3.848,3.252,7.277
					c-0.026,3.603-1.526,6.149-4.576,6.042c-1.247-0.044-2.604-0.629-3.289-1.384C149.164,256.564,149.252,256.099,149.427,255.138z
					"/>
				<path style="fill:#FFFFFF;" d="M161.234,252.001c-0.559,2.925-0.839,4.366-1.397,6.799c-0.691-0.022-1.036-0.034-1.726-0.057
					c1.826-7.732,2.74-14.674,4.567-22.329c0.806,0.061,1.208,0.091,2.013,0.151c1.694,7.918,2.541,14.675,4.238,22.508
					c-0.713-0.019-1.07-0.029-1.784-0.05c-0.531-2.465-0.796-3.897-1.327-6.834C163.985,252.117,163.068,252.079,161.234,252.001z
					 M165.491,249.81c-0.486-2.747-0.729-4.178-1.216-6.875c-0.276-1.529-0.458-2.872-0.639-4.117
					c-0.015-0.001-0.023-0.002-0.039-0.003c-0.202,1.248-0.423,2.601-0.684,3.996c-0.527,2.652-0.79,4.072-1.316,6.814
					C163.155,249.701,163.933,249.738,165.491,249.81z"/>
				<path style="fill:#FFFFFF;" d="M170.992,237.021c0.666,0.047,0.999,0.07,1.665,0.115c-0.058,6.941-0.086,12.367-0.144,19.839
					c2.209,0.058,3.313,0.085,5.522,0.133c-0.006,0.901-0.009,1.34-0.015,2.183c-2.877-0.058-4.316-0.092-7.193-0.167
					C170.893,251.339,170.926,244.805,170.992,237.021z"/>
				<path style="fill:#FFFFFF;" d="M186.616,249.417c-2.003-0.063-3.005-0.097-5.01-0.171c-0.018,3.276-0.027,4.944-0.045,7.932
					c2.239,0.041,3.358,0.059,5.596,0.087c-0.004,0.891-0.006,1.328-0.01,2.17c-2.908-0.033-4.361-0.055-7.269-0.109
					c0.053-7.783,0.08-13.926,0.134-21.708c2.779,0.173,4.167,0.255,6.939,0.408c-0.004,0.843-0.006,1.279-0.01,2.171
					c-2.111-0.113-3.167-0.173-5.282-0.298c-0.016,2.619-0.024,4.059-0.039,6.922c2.004,0.087,3.005,0.129,5.006,0.206
					C186.622,247.98,186.62,248.461,186.616,249.417z"/>
				<path style="fill:#FFFFFF;" d="M189.095,256.272c0.744,0.754,1.835,1.366,2.984,1.374c1.705,0.011,2.703-1.391,2.705-3.543
					c0.002-1.993-0.695-3.227-2.42-4.36c-2.036-1.338-3.389-3.298-3.379-6.339c0.012-3.361,1.676-5.493,4.162-5.374
					c1.31,0.062,2.258,0.563,2.827,1.086c-0.182,0.824-0.274,1.247-0.456,2.106c-0.418-0.385-1.272-1.025-2.431-1.079
					c-1.749-0.082-2.42,1.557-2.424,3.018c-0.006,2.002,0.773,3.067,2.545,4.289c2.169,1.497,3.279,3.321,3.279,6.447
					c0,3.285-1.477,5.884-4.527,5.867c-1.246-0.007-2.607-0.56-3.294-1.278C188.837,257.622,188.923,257.177,189.095,256.272z"/>
			</g>
		</g>
	</g>
	<g>
		<path style="fill:#B7B6B6;" d="M105.266,470.674l6.899-1.579c0,0,3.714-11.481,8.104-14.52c0,0-4.535,1.351-7.501,5.403
			c0,0-1.278-9.455,2.099-15.195c0,0-5.932,5.74-7.766,10.468c-1.834,4.727-9.455-12.657-9.455-12.657L105.266,470.674z"/>
		<polygon style="fill:#35292B;" points="105.266,470.674 95.194,474.772 78.586,474.772 78.586,292.021 105.266,292.021 		"/>
		<rect x="78.586" y="292.021" style="fill:#5A4741;" width="16.607" height="182.751"/>
		<polygon style="fill:#35292B;" points="244.236,470.674 254.309,474.772 270.916,474.772 270.916,292.021 244.236,292.021 		"/>
		
			<rect x="254.309" y="292.021" transform="matrix(-1 4.490707e-11 -4.490707e-11 -1 525.225 766.7933)" style="fill:#5A4741;" width="16.607" height="182.751"/>
		<rect x="101.264" y="432.83" style="fill:#5A4741;" width="145.293" height="9.764"/>
		<path style="fill:#D10C21;" d="M272.194,414.426H78.09c-4.458,0-8.072-3.614-8.072-8.072v-89.257c0-4.458,3.614-8.072,8.072-8.072
			h194.104c4.458,0,8.072,3.614,8.072,8.072v89.257C280.266,410.812,276.652,414.426,272.194,414.426z"/>
		<path style="fill:#F12E3B;" d="M272.194,409.426H78.09c-4.458,0-8.072-3.614-8.072-8.072v-89.257c0-4.458,3.614-8.072,8.072-8.072
			h194.104c4.458,0,8.072,3.614,8.072,8.072v89.257C280.266,405.812,276.652,409.426,272.194,409.426z"/>
		
			<linearGradient id="SVGID_00000051349429233255834450000015194800083981439129_" gradientUnits="userSpaceOnUse" x1="188.7234" y1="392.6911" x2="209.8143" y2="448.543">
			<stop  offset="0" style="stop-color:#000000;stop-opacity:0"/>
			<stop  offset="1" style="stop-color:#000000"/>
		</linearGradient>
		<path style="opacity:0.22;fill:url(#SVGID_00000051349429233255834450000015194800083981439129_);" d="M272.194,409.426H78.09
			c-4.458,0-8.072-3.614-8.072-8.072v-89.257c0-4.458,3.614-8.072,8.072-8.072h194.104c4.458,0,8.072,3.614,8.072,8.072v89.257
			C280.266,405.812,276.652,409.426,272.194,409.426z"/>
		<line style="fill:none;stroke:#FFFFFF;stroke-miterlimit:10;" x1="70.019" y1="338.624" x2="280.266" y2="338.624"/>
		<line style="fill:none;stroke:#FFFFFF;stroke-miterlimit:10;" x1="70.019" y1="373.025" x2="280.584" y2="373.025"/>
		<circle style="fill:none;stroke:#FFFFFF;stroke-miterlimit:10;" cx="263.751" cy="320.278" r="2.743"/>
		<circle style="fill:none;stroke:#FFFFFF;stroke-miterlimit:10;" cx="86.89" cy="320.278" r="2.743"/>
		<circle style="fill:none;stroke:#FFFFFF;stroke-miterlimit:10;" cx="263.751" cy="393.729" r="2.743"/>
		<circle style="fill:none;stroke:#FFFFFF;stroke-miterlimit:10;" cx="86.89" cy="393.729" r="2.743"/>
		<path style="fill:#DADADA;" d="M262.612,474.772h25.517l3.146-19.889l-7.341,9.945c0,0,2.738-13.874-3.35-27.116
			c0,0,0.905,22.065-3.64,26.959c0,0-5.244-11.27-2.098-26.959c0,0-7.691,13.675-6.642,27.309c0,0,0.391-14.628-10.628-18.527
			C257.576,446.493,265.061,462.85,262.612,474.772z"/>
		<text transform="matrix(1 0 0 1 134.5395 330.9964)" style="fill:#D10C21; font-family:'BebasNeue-Bold'; font-size:22.4585px;">REAL ESTATE</text>
		<text transform="matrix(1 0 0 1 110.957 404.6128)" style="fill:#D10C21; font-family:'BebasNeue-Bold'; font-size:37.162px;">SALE / RENT</text>
		<text transform="matrix(1 0 0 1 132.5395 330.9964)" style="fill:#FFFFFF; font-family:'BebasNeue-Bold'; font-size:22.4585px;">REAL ESTATE</text>
		<text transform="matrix(1 0 0 1 162.922 364.975)" style="fill:#FFFFFF; font-family:'BebasNeue-Bold'; font-size:22.4585px;">FOR</text>
		<text transform="matrix(1 0 0 1 108.957 404.6128)" style="fill:#FFFFFF; font-family:'BebasNeue-Bold'; font-size:37.162px;">SALE / RENT</text>
		<path style="opacity:0.64;fill:#D10C21;" d="M249.611,357.88c0,0-45.042,18.332-60.264,24.502
			c-21.227,8.604-67.941,18.332-67.941,18.332c-4.841,1.617-9.503,0.481-11.121-4.36l-6.044-18.089
			c-1.617-4.841,0.996-10.077,5.837-11.694L239.71,323.26c4.841-1.617,10.077,0.996,11.694,5.837l6.044,18.089
			C259.065,352.027,254.452,356.263,249.611,357.88z"/>
		<path style="fill:#F7C331;" d="M249.611,357.88l-129.632,43.312c-4.841,1.617-10.077-0.996-11.694-5.837l-6.044-18.089
			c-1.617-4.841,0.996-10.077,5.837-11.694L237.71,322.26c4.841-1.617,10.077,0.996,11.694,5.837l6.044,18.089
			C257.065,351.027,254.452,356.263,249.611,357.88z"/>
		
			<linearGradient id="SVGID_00000070089352681450676530000012534328783449917869_" gradientUnits="userSpaceOnUse" x1="185.5756" y1="335.4693" x2="196.2279" y2="300.123">
			<stop  offset="0" style="stop-color:#000000;stop-opacity:0"/>
			<stop  offset="1" style="stop-color:#000000"/>
		</linearGradient>
		<path style="opacity:0.22;fill:url(#SVGID_00000070089352681450676530000012534328783449917869_);" d="M246.983,358.758
			l-127.004,42.434c-4.841,1.617-10.077-0.996-11.694-5.837l-6.044-18.089c-1.617-4.841,0.996-10.077,5.837-11.694l127.004-42.434
			c4.841-1.617,10.077,0.996,11.694,5.837l6.044,18.089C254.437,351.905,251.824,357.141,246.983,358.758z"/>
		
			<text transform="matrix(0.9564 -0.2922 0.2922 0.9564 147.3841 381.2936)" style="fill:#5A4741; font-family:'BebasNeue-Bold'; font-size:24.3804px;">SOLD OUT</text>
	</g>
	<g>
		<g>
			<polygon style="fill:#35292B;" points="364.708,477.577 369.316,472.97 369.316,370.531 383.982,370.531 383.982,367.523 
				359.709,364.806 			"/>
			<polygon style="fill:#5A4741;" points="364.708,477.577 351.946,474.151 351.946,363.841 364.708,363.841 			"/>
			<rect x="351.946" y="355.787" style="fill:#5A4741;" width="32.036" height="11.736"/>
			<line style="fill:none;stroke:#FFFFFF;stroke-miterlimit:10;" x1="351.946" y1="355.787" x2="364.708" y2="368.479"/>
		</g>
		<g>
			<path style="fill:#D10C21;" d="M466.266,476.679l-75.117-8.983c-7.278-0.909-12.74-7.096-12.74-14.431V312.229
				c0-7.596,5.846-13.913,13.419-14.5l76.472-5.676c6.148-0.476,11.4,4.384,11.4,10.55v162.215
				C479.7,472.008,473.4,477.57,466.266,476.679z"/>
			<path style="fill:#F12E3B;" d="M454.691,471.135l-65.728-8.245c-6.021-0.755-10.554-6.117-10.554-12.484V310.405
				c0-6.567,4.814-12.028,11.049-12.535l65.728-5.348c6.957-0.566,12.9,5.208,12.9,12.535v153.594
				C468.087,466.186,461.817,472.029,454.691,471.135z"/>
			
				<linearGradient id="SVGID_00000026849550040844104700000001802223844513886119_" gradientUnits="userSpaceOnUse" x1="410.6519" y1="410.3234" x2="376.4096" y2="480.4386">
				<stop  offset="0" style="stop-color:#000000;stop-opacity:0"/>
				<stop  offset="1" style="stop-color:#000000"/>
			</linearGradient>
			<path style="opacity:0.22;fill:url(#SVGID_00000026849550040844104700000001802223844513886119_);" d="M454.691,471.135
				l-65.728-8.245c-6.021-0.755-10.554-6.117-10.554-12.484V310.405c0-6.567,4.814-12.028,11.049-12.535l65.728-5.348
				c6.957-0.566,12.9,5.208,12.9,12.535v153.594C468.087,466.186,461.817,472.029,454.691,471.135z"/>
			<path style="fill:none;stroke:#FFFFFF;stroke-miterlimit:10;" d="M456.133,466.919c-0.3,0-0.605-0.019-0.905-0.057l-65.729-8.245
				c-3.867-0.485-6.783-4.015-6.783-8.211V310.405c0-4.298,3.115-7.918,7.091-8.242l65.728-5.348
				c0.199-0.016,0.396-0.024,0.592-0.024c4.219,0,7.651,3.708,7.651,8.266v153.594C463.779,463.21,460.349,466.919,456.133,466.919z
				"/>
		</g>
		<g style="opacity:0.64;">
			<g>
				<path style="fill:#D10C21;" d="M398.014,327.875c0-7.588,0-11.382,0-18.97c1.211-0.123,1.815-0.184,3.022-0.304
					c-0.007,3.261-0.011,4.927-0.018,8.251c1.365-0.082,2.046-0.123,3.409-0.203c0.013-3.405,0.02-5.116,0.033-8.385
					c1.225-0.119,1.837-0.178,3.059-0.295c-0.04,7.642-0.06,12.259-0.1,19.904c-1.214,0-1.821,0-3.035,0
					c0.013-3.27,0.02-4.981,0.033-8.386c-1.36,0.053-2.041,0.08-3.404,0.135c-0.007,3.324-0.011,4.99-0.018,8.251
					C399.802,327.875,399.206,327.875,398.014,327.875z"/>
				<path style="fill:#D10C21;" d="M413.994,307.144c2.931-0.271,4.515,1.289,4.495,4.662c-0.026,4.385-0.039,6.82-0.066,11.207
					c-0.02,3.375-1.631,5.079-4.557,5.079c-2.928,0-4.516-1.72-4.498-4.949c0.023-4.197,0.035-6.43,0.058-10.627
					C409.443,309.288,411.061,307.415,413.994,307.144z M413.883,325.29c0.948-0.005,1.548-0.545,1.557-2.027
					c0.027-4.482,0.041-6.953,0.069-11.433c0.009-1.482-0.583-1.967-1.533-1.884c-0.951,0.083-1.551,0.669-1.56,2.129
					c-0.026,4.415-0.04,6.813-0.066,11.229C412.341,324.764,412.934,325.295,413.883,325.29z"/>
				<path style="fill:#D10C21;" d="M423.186,323.195c-0.008,1.534,0.584,2.047,1.533,2.043c0.948-0.004,1.546-0.526,1.553-2.081
					c0.033-6.717,0.049-10.975,0.082-16.908c1.123-0.099,1.684-0.148,2.806-0.247c-0.028,5.858-0.043,10.165-0.071,16.9
					c-0.015,3.538-1.541,5.217-4.468,5.217s-4.433-1.699-4.413-5.1c0.038-6.475,0.057-10.382,0.094-16.232
					c1.19-0.107,1.785-0.16,2.974-0.266C423.24,312.452,423.222,316.567,423.186,323.195z"/>
				<path style="fill:#D10C21;" d="M435.171,305.26c2.884-0.25,4.362,1.275,4.356,4.97c-0.001,0.29-0.001,0.437-0.001,0.731
					c-1.123,0.08-1.685,0.119-2.807,0.199c0.001-0.383,0.001-0.573,0.002-0.95c0.004-1.624-0.533-2.138-1.478-2.06
					c-0.944,0.078-1.485,0.678-1.49,2.283c-0.014,4.619,5.793,5.7,5.781,12.304c-0.006,3.698-1.528,5.355-4.454,5.355
					c-2.927,0-4.436-1.678-4.423-5.241c0.002-0.547,0.003-0.824,0.005-1.383c1.126-0.022,1.688-0.032,2.814-0.054
					c-0.002,0.658-0.003,0.984-0.005,1.625c-0.005,1.604,0.589,2.127,1.537,2.123c0.948-0.004,1.545-0.535,1.549-2.159
					c0.011-4.676-5.798-5.762-5.774-12.124C430.796,307.315,432.287,305.511,435.171,305.26z"/>
				<path style="fill:#D10C21;" d="M448.304,314.088c0,1.457,0,2.199,0,3.659c-1.635,0.058-2.452,0.087-4.085,0.144
					c-0.002,2.933-0.003,4.413-0.005,7.009c2.058-0.01,3.087-0.016,5.146-0.026c0,1.285,0,1.895,0,2.998c-3.252,0-4.878,0-8.129,0
					c0.012-7.715,0.019-15.221,0.031-22.923c3.236-0.281,4.855-0.421,8.098-0.706c0,1.101,0,1.71,0,2.994
					c-2.055,0.17-3.081,0.254-5.133,0.422c-0.002,2.466-0.003,3.863-0.005,6.647C445.854,314.22,446.671,314.176,448.304,314.088z"
					/>
			</g>
		</g>
		<g>
			<g>
				<path style="fill:#FFFFFF;" d="M397.599,308.836c-0.004,3.154-0.006,4.749-0.009,7.934c2.361-0.146,3.539-0.218,5.892-0.359
					c0.014-3.32,0.021-4.988,0.036-8.159c0.637-0.062,0.956-0.092,1.592-0.153c-0.039,7.587-0.058,12.123-0.097,19.71
					c-0.632,0-0.948,0-1.58,0c0.016-3.553,0.024-5.435,0.04-9.16c-2.351,0.104-3.527,0.157-5.884,0.266
					c-0.004,3.571-0.006,5.36-0.011,8.895c-0.625,0-0.937,0-1.562,0c0-7.527,0-11.29,0-18.816
					C396.648,308.932,396.965,308.9,397.599,308.836z"/>
				<path style="fill:#FFFFFF;" d="M418.127,317.123c-0.042,7.513-2.597,10.997-5.685,10.997c-3.196,0-5.418-3.918-5.385-10.078
					c0.034-6.463,2.459-10.67,5.695-10.968C416.058,306.769,418.163,310.646,418.127,317.123z M408.73,317.903
					c-0.025,4.397,1.354,8.187,3.814,8.18c2.479-0.007,3.902-3.849,3.931-8.755c0.025-4.297-1.203-8.443-3.81-8.21
					C410.077,309.349,408.755,313.384,408.73,317.903z"/>
				<path style="fill:#FFFFFF;" d="M421.766,306.57c-0.027,4.529-0.041,7.413-0.068,12.668c-0.026,4.971,1.166,6.819,2.782,6.815
					c1.795-0.004,2.952-1.936,2.972-7c0.022-5.425,0.032-8.452,0.054-12.988c0.629-0.055,0.943-0.083,1.572-0.137
					c-0.019,4.469-0.029,7.474-0.049,12.869c-0.026,7.104-1.993,9.324-4.615,9.324c-2.478,0-4.332-2.075-4.295-8.896
					c0.028-5.182,0.042-8.009,0.07-12.513C420.821,306.654,421.136,306.626,421.766,306.57z"/>
				<path style="fill:#FFFFFF;" d="M431.5,324.6c0.697,0.761,1.718,1.372,2.795,1.37c1.597-0.004,2.534-1.444,2.538-3.775
					c0.004-2.159-0.649-3.518-2.267-4.642c-1.902-1.321-3.178-3.293-3.168-6.464c0.011-3.504,1.573-5.811,3.912-6.014
					c1.232-0.107,2.125,0.263,2.66,0.717c-0.173,0.851-0.26,1.3-0.433,2.226c-0.392-0.353-1.195-0.909-2.286-0.817
					c-1.644,0.139-2.274,1.902-2.279,3.439c-0.006,2.104,0.725,3.159,2.387,4.351c2.035,1.459,3.074,3.507,3.068,6.938
					c-0.005,3.605-1.392,6.163-4.247,6.163c-1.167,0-2.44-0.531-3.084-1.242C431.259,325.985,431.339,325.532,431.5,324.6z"/>
				<path style="fill:#FFFFFF;" d="M446.822,316.891c-1.879,0.075-2.819,0.112-4.697,0.186c-0.003,3.59-0.004,5.438-0.006,8.526
					c2.096-0.007,3.144-0.01,5.241-0.017c0,0.94,0,1.389,0,2.222c-2.722,0-4.083,0-6.805,0c0.01-7.683,0.015-15.198,0.025-22.881
					c2.602-0.226,3.904-0.339,6.512-0.568c0,0.833,0,1.282,0,2.221c-1.985,0.168-2.976,0.251-4.958,0.417
					c-0.002,2.707-0.003,4.288-0.006,7.421c1.877-0.1,2.816-0.149,4.695-0.25C446.822,315.253,446.822,315.802,446.822,316.891z"/>
			</g>
		</g>
		<g style="opacity:0.64;">
			<g>
				<path style="fill:#D10C21;" d="M410.231,342.451c7.521,0,11.373,4.453,11.351,12.514c-0.002,0.633-0.003,0.951-0.004,1.586
					c-2.919-0.016-4.377-0.023-7.295-0.038c0.001-0.832,0.002-1.248,0.004-2.077c0.006-3.577-1.395-4.921-3.853-4.924
					c-2.457-0.003-4.092,1.59-3.865,4.892c0.73,10.615,14.775,15.011,15.012,27.237c0.158,8.133-3.941,12.87-11.478,12.371
					c-7.536-0.498-11.468-5.361-11.468-13.331c0-1.224,0-1.836,0-3.059c2.92,0.12,4.377,0.175,7.289,0.283
					c-0.001,1.442-0.001,2.164-0.002,3.608c-0.002,3.61,1.535,4.995,3.98,5.121c2.445,0.126,4.208-1.369,3.989-4.785
					c-0.67-10.452-14.654-15.448-15.045-26.99C398.586,347.213,402.71,342.451,410.231,342.451z"/>
				<path style="fill:#D10C21;" d="M443.206,395.639c-0.531-4.002-0.795-5.995-1.323-9.952c-3.824-0.214-5.726-0.31-9.521-0.496
					c-0.547,3.829-0.82,5.747-1.366,9.574c-2.836-0.189-4.25-0.28-7.074-0.46c2.626-17.105,5.225-34.215,8.022-51.293
					c4.526,0,6.789,0,11.316,0c2.773,17.738,5.326,35.508,7.874,53.279C447.945,396.012,446.36,395.883,443.206,395.639z
					 M440.84,378.327c-1.468-10.902-2.197-16.244-3.654-26.478c-1.526,10.223-2.29,15.547-3.817,26.19
					C436.351,378.147,437.844,378.204,440.84,378.327z"/>
				<path style="fill:#D10C21;" d="M407.512,404.065c-0.011,14.39-0.022,28.78-0.034,43.17c5.022,0.769,7.517,1.128,12.535,1.865
					c-0.007,2.848-0.011,4.263-0.018,7.07c-8.061-1.194-12.04-1.751-20.172-3.103c0.001-16.569,0.002-33.138,0.003-49.707
					C402.908,403.654,404.443,403.793,407.512,404.065z"/>
				<path style="fill:#D10C21;" d="M441.77,429.84c-0.008,3.041-0.012,4.553-0.02,7.551c-4.314-0.667-6.445-0.974-10.681-1.568
					c-0.021,6.059-0.031,9.054-0.052,14.92c5.329,0.819,8.014,1.244,13.494,2.209c-0.006,2.884-0.009,4.308-0.016,7.114
					c-8.669-1.551-12.843-2.162-21.174-3.403c0.052-17.076,0.101-34.152,0.149-51.228c8.377,0.717,12.571,1.07,21.134,1.958
					c-0.006,3.127-0.009,4.689-0.016,7.802c-5.433-0.65-8.113-0.938-13.446-1.493c-0.02,5.913-0.03,8.86-0.049,14.689
					C435.331,428.94,437.461,429.224,441.77,429.84z"/>
			</g>
		</g>
		<g>
			<g>
				<path style="fill:#FFFFFF;" d="M397.742,384.134c1.964,1.843,4.83,3.471,7.841,3.636c4.467,0.245,7.079-3.134,7.088-8.193
					c0.008-4.686-1.827-7.529-6.369-10.07c-5.389-3.015-8.963-7.138-8.963-13.958c0-7.538,4.393-13.099,11.005-13.099
					c3.483,0,6.006,1.14,7.517,2.357c-0.489,2.033-0.733,3.055-1.222,5.105c-1.108-0.868-3.375-2.308-6.452-2.309
					c-4.642-0.002-6.409,3.94-6.41,7.254c-0.002,4.54,2.067,6.803,6.742,9.496c5.728,3.3,8.638,7.444,8.621,14.863
					c-0.018,7.793-3.888,14.363-11.864,13.838c-3.261-0.215-6.83-1.85-8.644-3.704C397.077,387.268,397.299,386.225,397.742,384.134
					z"/>
				<path style="fill:#FFFFFF;" d="M428.619,377.496c-1.434,6.42-2.15,9.645-3.578,16.05c-1.81-0.114-2.714-0.17-4.521-0.281
					c3.845-16.689,7.64-33.392,11.7-50.03c2.12,0,3.181,0,5.301,0c4.096,17.3,7.869,34.67,11.613,52.048
					c-1.919-0.164-2.874-0.242-4.78-0.393c-1.465-6.869-2.192-10.27-3.639-16.939C435.855,377.749,433.44,377.662,428.619,377.496z
					 M439.814,372.642c-1.324-6.034-1.983-8.999-3.3-14.799c-0.748-3.289-1.243-6.232-1.739-9.066c-0.04,0-0.06,0-0.1,0
					c-0.515,2.905-1.081,5.919-1.748,8.96c-1.353,5.784-2.03,8.723-3.382,14.61C433.641,372.456,435.693,372.512,439.814,372.642z"
					/>
				<path style="fill:#FFFFFF;" d="M398.345,404.546c1.75,0.17,2.623,0.253,4.368,0.415c-0.007,14.558-0.013,29.116-0.02,43.674
					c5.75,0.904,8.597,1.315,14.329,2.161c-0.005,2.102-0.008,3.148-0.013,5.228c-7.457-1.104-11.148-1.628-18.668-2.871
					C398.342,436.95,398.344,420.748,398.345,404.546z"/>
				<path style="fill:#FFFFFF;" d="M439.547,436.179c-5.373-0.82-8.018-1.188-13.28-1.905c-0.024,7.277-0.036,10.874-0.06,17.89
					c5.859,0.889,8.807,1.345,14.837,2.394c-0.005,2.121-0.008,3.171-0.013,5.25c-7.835-1.376-11.629-1.938-19.192-3.066
					c0.051-16.69,0.1-33.38,0.149-50.069c7.302,0.643,10.959,0.963,18.399,1.731c-0.006,2.305-0.008,3.457-0.014,5.754
					c-5.667-0.651-8.463-0.939-14.034-1.5c-0.021,6.524-0.032,9.777-0.053,16.205c5.264,0.677,7.908,1.024,13.277,1.799
					C439.556,432.879,439.553,433.983,439.547,436.179z"/>
			</g>
		</g>
		<text transform="matrix(1 0 0 1 413.929 338.6245)" style="fill:#FFFFFF; font-family:'BebasNeue-Bold'; font-size:12px;">FOR</text>
	</g>
</g>
</svg>
