<?xml version="1.0" encoding="utf-8"?>
<!-- Generator: Adobe Illustrator 27.5.0, SVG Export Plug-In . SVG Version: 6.00 Build 0)  -->
<svg version="1.1" xmlns="http://www.w3.org/2000/svg" xmlns:xlink="http://www.w3.org/1999/xlink" x="0px" y="0px"
	 viewBox="0 0 800 800" style="enable-background:new 0 0 800 800;" xml:space="preserve">
<symbol  id="Nuevo_símbolo" viewBox="-24.078 -35.205 48.155 70.41">
	<path id="XMLID_742_" style="fill:#8FA229;" d="M-0.787-34.6l1.024-0.025c-0.047,0.845-0.095,1.689-0.151,2.529
		C-0.19-27.847-0.58-23.67-1.12-19.646c-0.096,0.711-0.2,1.415-0.307,2.116c1.113-3.2,2.232-6.463,3.242-9.804
		c0.801-2.428,1.535-4.898,2.251-7.384l1.097-0.027c-0.76,2.598-1.539,5.179-2.388,7.716c-1.51,4.911-3.255,9.658-4.87,14.275
		c-0.122,0.349-0.25,0.695-0.38,1.039c-0.045,0.214-0.089,0.429-0.135,0.642c0.016,0.139,0.034,0.28,0.049,0.419
		c0.199,1.708,0.392,3.37,0.579,4.977c0.081,0.806,0.223,1.589,0.333,2.362c0.117,0.772,0.231,1.53,0.343,2.272
		c0.226,1.484,0.443,2.906,0.649,4.259c0.243,1.346,0.473,2.623,0.689,3.824c0.216,1.201,0.419,2.325,0.606,3.364
		c0.069,0.364,0.141,0.713,0.214,1.055c0.09-0.111,0.181-0.224,0.281-0.344c0.234-0.291,0.502-0.606,0.778-0.962
		c0.273-0.358,0.568-0.746,0.883-1.16C3.11,8.58,3.445,8.14,3.799,7.676c0.342-0.472,0.702-0.968,1.078-1.485
		c0.371-0.52,0.773-1.051,1.161-1.62c0.388-0.569,0.79-1.156,1.203-1.761c0.205-0.303,0.42-0.605,0.625-0.92
		c0.202-0.317,0.406-0.637,0.612-0.961C8.884,0.278,9.324-0.371,9.743-1.05c0.821-1.368,1.681-2.773,2.49-4.239
		c0.224-0.381,0.441-0.768,0.654-1.159c0.233-1.348,0.488-2.733,0.65-4.156c0.227-1.478,0.309-2.996,0.443-4.508
		c0.054-1.517,0.159-3.033,0.115-4.528c0.017-1.496-0.076-2.964-0.142-4.388c-0.049-0.71-0.135-1.406-0.188-2.09
		c-0.03-0.342-0.06-0.68-0.09-1.014c-0.035-0.333-0.089-0.66-0.131-0.984c-0.089-0.648-0.176-1.278-0.26-1.888
		c-0.085-0.61-0.21-1.192-0.307-1.755c-0.104-0.562-0.203-1.101-0.298-1.614c-0.115-0.508-0.224-0.989-0.327-1.442
		c-0.008-0.036-0.016-0.069-0.024-0.105l0.418-0.01c0,0.001,0.001,0.003,0.001,0.004c0.137,0.449,0.282,0.927,0.436,1.431
		c0.139,0.507,0.258,1.047,0.397,1.607c0.13,0.562,0.29,1.144,0.41,1.755c0.112,0.613,0.227,1.246,0.346,1.898
		c0.056,0.326,0.124,0.656,0.174,0.992c0.044,0.337,0.088,0.678,0.133,1.023c0.088,0.69,0.184,1.395,0.253,2.115
		c0.095,1.442,0.25,2.933,0.238,4.453c0.056,1.52-0.037,3.062-0.08,4.606c-0.146,1.537-0.244,3.079-0.487,4.581
		c-0.043,0.38-0.098,0.757-0.158,1.131c0.074-0.142,0.148-0.284,0.223-0.426c0.743-1.529,1.52-3.043,2.184-4.58
		c0.705-1.519,1.329-3.044,1.946-4.515c0.298-0.74,0.563-1.478,0.847-2.192c0.139-0.358,0.277-0.712,0.413-1.062
		c0.132-0.351,0.249-0.703,0.372-1.048c0.076-0.215,0.149-0.424,0.224-0.635c0.023-2.156,0.048-4.438,0.074-6.832
		c0.018-1.464,0.037-2.967,0.057-4.503l0.864-0.021c-0.047,1.549-0.093,3.065-0.137,4.541c-0.053,1.648-0.104,3.241-0.153,4.78
		c0.137-0.421,0.268-0.836,0.4-1.236c0.195-0.609,0.382-1.192,0.56-1.747c0.165-0.559,0.321-1.089,0.468-1.587
		c0.147-0.499,0.285-0.966,0.412-1.397c0.124-0.433,0.219-0.837,0.315-1.198c0.183-0.725,0.345-1.291,0.448-1.679
		c0.074-0.274,0.122-0.452,0.145-0.536l0.006,0c-0.015,0.085-0.046,0.268-0.094,0.548c-0.07,0.395-0.162,0.976-0.301,1.711
		c-0.07,0.367-0.137,0.776-0.23,1.218c-0.097,0.441-0.202,0.919-0.314,1.428c-0.112,0.511-0.232,1.054-0.357,1.627
		c-0.136,0.57-0.305,1.162-0.467,1.785c-0.169,0.62-0.328,1.272-0.525,1.937c-0.179,0.579-0.363,1.177-0.552,1.788
		c-0.01,0.315-0.021,0.637-0.03,0.946c-0.077,2.598-0.171,4.979-0.254,7.089c-0.082,2.11-0.153,3.95-0.212,5.465
		C20.61-6.631,20.535-4.9,20.535-4.9s-0.001-1.733-0.003-4.766c0.006-1.516,0.013-3.357,0.022-5.469
		c0.006-1.82,0.013-3.843,0.036-6.03c-0.049,0.141-0.097,0.28-0.147,0.422c-0.254,0.732-0.514,1.479-0.796,2.233
		c-0.597,1.495-1.17,3.059-1.879,4.595c-0.66,1.558-1.433,3.092-2.173,4.643c-0.628,1.171-1.238,2.351-1.882,3.498
		c-0.14,0.6-0.291,1.191-0.439,1.768c-0.087,0.337-0.173,0.67-0.258,0.999c-0.09,0.328-0.198,0.646-0.294,0.963
		c-0.198,0.632-0.391,1.246-0.577,1.841c-0.195,0.591-0.425,1.149-0.623,1.691c-0.207,0.539-0.391,1.06-0.592,1.546
		c-0.214,0.48-0.417,0.936-0.608,1.364c-0.191,0.427-0.37,0.827-0.536,1.197C9.614,5.961,9.433,6.287,9.281,6.586
		C8.655,7.773,8.297,8.452,8.297,8.452s0.287-0.711,0.788-1.954c0.124-0.311,0.275-0.649,0.414-1.027
		c0.136-0.379,0.283-0.79,0.44-1.228c0.158-0.437,0.326-0.902,0.503-1.393c0.157-0.497,0.322-1.02,0.494-1.565
		c0.165-0.547,0.361-1.109,0.52-1.704c0.158-0.595,0.322-1.209,0.49-1.842c0.075-0.289,0.158-0.58,0.23-0.877
		c-0.543,0.885-1.1,1.747-1.631,2.598c-0.442,0.673-0.89,1.325-1.329,1.963c-0.22,0.319-0.437,0.634-0.652,0.945
		C8.345,2.678,8.118,2.975,7.9,3.273C7.461,3.865,7.033,4.441,6.62,4.998C6.201,5.55,5.769,6.064,5.369,6.567
		C4.963,7.066,4.584,7.552,4.206,7.999c-0.387,0.44-0.755,0.857-1.1,1.249C2.761,9.64,2.438,10.007,2.14,10.346
		c-0.301,0.336-0.592,0.633-0.847,0.907c-0.14,0.15-0.27,0.287-0.395,0.418c0.119,0.554,0.238,1.081,0.341,1.575
		c0.727,3.431,1.143,5.392,1.143,5.392s-0.49-1.944-1.347-5.345c-0.107-0.444-0.226-0.912-0.349-1.403
		c-0.237,0.245-0.441,0.454-0.597,0.618c-0.279,0.288-0.427,0.442-0.427,0.442s0.133-0.167,0.383-0.481
		c0.156-0.193,0.358-0.45,0.598-0.75c-0.099-0.401-0.199-0.814-0.295-1.248C0.131,9.435-0.106,8.316-0.359,7.12
		c-0.253-1.197-0.522-2.47-0.806-3.813c-0.259-1.347-0.48-2.772-0.738-4.255c-0.126-0.742-0.255-1.499-0.386-2.271
		c-0.124-0.773-0.282-1.556-0.378-2.362c-0.146-1.077-0.295-2.181-0.447-3.305c-0.06,0.248-0.119,0.498-0.181,0.743
		C-4.185-4.525-5.267-1.164-6.466,1.858c-1.189,3.027-2.518,5.705-3.85,7.984c-1.166,2.004-2.332,3.7-3.375,5.102
		c-0.327,0.715-0.652,1.418-0.977,2.098c-0.795,1.596-1.549,3.109-2.258,4.531c-0.708,1.422-1.371,2.753-1.985,3.983
		c-0.622,1.226-1.237,2.33-1.768,3.339c-2.163,4.015-3.399,6.31-3.399,6.31s1.168-2.329,3.212-6.406
		c0.508-1.02,1.096-2.137,1.689-3.376c0.584-1.243,1.215-2.588,1.89-4.025c0.674-1.436,1.392-2.965,2.148-4.576
		c0.01-0.024,0.021-0.048,0.032-0.072c-0.208,0.255-0.412,0.498-0.611,0.716c-0.485,0.552-0.887,1.03-1.245,1.389
		c-0.698,0.733-1.07,1.124-1.07,1.124s0.357-0.404,1.027-1.163c0.343-0.371,0.726-0.864,1.189-1.432
		c0.318-0.378,0.647-0.816,1-1.289c0.623-1.41,1.27-2.875,1.944-4.399c0.393-0.894,0.795-1.806,1.204-2.735
		c0.402-0.933,0.844-1.869,1.227-2.85c0.793-1.95,1.612-3.966,2.455-6.038c0.417-1.038,0.859-2.082,1.27-3.153
		c0.402-1.075,0.808-2.163,1.22-3.263c0.643-1.753,1.335-3.523,2.007-5.328c-0.068-0.493-0.134-0.988-0.19-1.489
		c-0.089-0.881-0.179-1.772-0.269-2.673c-0.179-1.803-0.369-3.645-0.515-5.521c-0.218-3.758-0.516-7.639-0.566-11.594
		c-0.022-0.514-0.038-1.029-0.052-1.545l1.014-0.025c0.01,0.516,0.024,1.032,0.042,1.546c0.025,3.939,0.299,7.805,0.493,11.55
		c0.129,1.87,0.325,3.704,0.46,5.505c0.052,0.637,0.104,1.262,0.155,1.889c0.322-1.87,0.608-3.787,0.87-5.739
		c0.513-4.001,0.878-8.157,1.129-12.39C-0.87-32.969-0.828-33.784-0.787-34.6z M-4.526-6.401c-0.048,0.124-0.097,0.251-0.145,0.375
		C-5.099-4.929-5.522-3.844-5.94-2.772C-6.368-1.705-6.826-0.664-7.258,0.37c-0.874,2.064-1.724,4.072-2.546,6.015
		c-0.398,0.977-0.854,1.909-1.27,2.837c-0.423,0.925-0.839,1.833-1.245,2.723c-0.276,0.598-0.544,1.186-0.809,1.768
		c0.792-1.186,1.629-2.538,2.462-4.068c1.255-2.301,2.495-4.99,3.634-8.005C-6.102-0.831-5.255-3.527-4.526-6.401z"/>
</symbol>
<symbol  id="Nuevo_símbolo_2" viewBox="-22.279 -37.363 44.557 74.726">
	<path id="XMLID_761_" style="fill:#8FA229;" d="M-5.314-35.003c-0.239,1.21-0.479,2.461-0.77,3.722
		c-0.26,1.268-0.603,2.537-0.92,3.812c-0.353,1.266-0.678,2.54-1.076,3.771c-0.37,1.24-0.774,2.448-1.162,3.618
		c-0.208,0.58-0.413,1.151-0.614,1.71c-0.195,0.561-0.391,1.108-0.603,1.633c-0.409,1.055-0.79,2.055-1.179,2.964
		c-0.19,0.457-0.371,0.895-0.544,1.311c-0.182,0.413-0.354,0.804-0.516,1.172c-0.323,0.737-0.601,1.382-0.853,1.903
		c-0.482,1.054-0.757,1.656-0.757,1.656s0.345-0.566,0.948-1.556c0.147-0.25,0.317-0.523,0.49-0.827
		c0.168-0.307,0.35-0.638,0.544-0.993c0.194-0.355,0.399-0.733,0.616-1.132c0.21-0.402,0.415-0.833,0.637-1.278
		c0.218-0.448,0.457-0.909,0.682-1.396c0.219-0.49,0.445-0.997,0.678-1.519c0.238-0.519,0.463-1.061,0.687-1.618
		c0.227-0.555,0.455-1.124,0.678-1.706c0.418-1.174,0.888-2.375,1.263-3.631c0.414-1.243,0.757-2.529,1.124-3.808
		c0.308-1.294,0.643-2.582,0.894-3.868c0.29-1.278,0.473-2.555,0.686-3.782c0.091-0.598,0.168-1.187,0.242-1.765
		c0.162,0.58,0.329,1.176,0.504,1.8c0.374,1.561,0.756,3.256,1.031,5.071c0.307,1.81,0.475,3.741,0.608,5.735
		c0.03,0.52,0.05,1.046,0.062,1.575c-0.65,1.548-1.314,3.14-2.039,4.736c-0.752,1.751-1.607,3.488-2.432,5.239
		c-0.869,1.729-1.707,3.475-2.62,5.148c-0.88,1.691-1.799,3.325-2.68,4.913c-0.458,0.784-0.908,1.555-1.349,2.309
		c-0.435,0.758-0.868,1.496-1.311,2.2c-0.436,0.709-0.86,1.4-1.27,2.067c-0.409,0.668-0.829,1.298-1.219,1.912
		c-0.394,0.612-0.771,1.198-1.13,1.755c-0.368,0.552-0.717,1.075-1.046,1.566c-0.328,0.492-0.636,0.952-0.92,1.378
		c-0.287,0.424-0.564,0.804-0.807,1.152c-0.493,0.692-0.866,1.247-1.127,1.62c-0.259,0.375-0.397,0.575-0.397,0.575
		s0.154-0.188,0.443-0.54c0.287-0.353,0.718-0.865,1.248-1.53c0.265-0.333,0.566-0.696,0.879-1.102
		c0.311-0.408,0.647-0.849,1.006-1.321c0.359-0.472,0.742-0.974,1.145-1.503c0.395-0.535,0.792-1.111,1.217-1.705
		c0.419-0.598,0.869-1.212,1.31-1.864c0.435-0.656,0.885-1.335,1.347-2.032c0.469-0.694,0.927-1.421,1.39-2.169
		c0.466-0.745,0.94-1.509,1.41-2.292c0.911-1.583,1.892-3.198,2.779-4.9c0.93-1.679,1.786-3.43,2.671-5.168
		c0.819-1.769,1.669-3.524,2.415-5.292c0.387-0.857,0.744-1.719,1.088-2.574c-0.012,0.665-0.029,1.333-0.056,2.006
		c-0.116,2.096-0.344,4.217-0.675,6.323C-3.01-9.416-3.46-7.331-4.009-5.304c-0.583,2.016-1.208,3.987-1.946,5.847
		c-0.754,1.851-1.521,3.63-2.381,5.253c-0.105,0.206-0.212,0.403-0.319,0.604c-0.301,0.321-0.552,0.594-0.744,0.797
		c-0.292,0.313-0.448,0.48-0.448,0.48s0.17-0.152,0.488-0.438c0.135-0.123,0.305-0.273,0.494-0.443
		c-0.676,1.248-1.376,2.409-2.045,3.489c-0.448,0.666-0.878,1.304-1.287,1.91c-0.43,0.593-0.838,1.155-1.222,1.684
		c-0.405,0.513-0.784,0.993-1.135,1.437c-0.356,0.44-0.706,0.825-1.01,1.183c-0.605,0.72-1.124,1.247-1.463,1.621
		c-0.343,0.37-0.526,0.568-0.526,0.568s0.197-0.183,0.567-0.526c0.363-0.35,0.934-0.828,1.576-1.52
		c0.325-0.342,0.699-0.709,1.081-1.13c0.378-0.426,0.786-0.887,1.223-1.38c0.416-0.511,0.86-1.054,1.327-1.627
		c0.452-0.585,0.9-1.221,1.383-1.874c0.446-0.678,0.935-1.37,1.397-2.114c0.453-0.75,0.937-1.517,1.372-2.341
		c0.193-0.339,0.38-0.689,0.565-1.041c0.016-0.016,0.031-0.03,0.047-0.046c0.331-0.351,0.688-0.731,1.07-1.137
		c0.383-0.407,0.79-0.84,1.22-1.297C-4.313,2.18-3.916,1.654-3.482,1.12c0.215-0.269,0.434-0.544,0.658-0.823
		c0.219-0.284,0.465-0.556,0.666-0.868c0.419-0.614,0.851-1.248,1.296-1.9C-0.644-2.8-0.406-3.124-0.195-3.469
		c0.205-0.35,0.412-0.704,0.621-1.062C0.842-5.249,1.28-5.976,1.684-6.738c0.747-1.553,1.594-3.128,2.218-4.832
		c0.726-1.664,1.236-3.436,1.82-5.182c0.432-1.79,0.941-3.562,1.21-5.357c0.375-1.775,0.495-3.559,0.687-5.272
		c0.063-0.86,0.077-1.709,0.106-2.537c0.013-0.414,0.025-0.824,0.038-1.229c0.005-0.405-0.025-0.805-0.035-1.2
		c-0.031-0.789-0.06-1.556-0.089-2.298c-0.004-0.371-0.068-0.733-0.103-1.089c-0.041-0.356-0.081-0.705-0.12-1.047
		C7.407-36.857,7.4-36.927,7.391-37l-0.607,0.015c0.006,0.087,0.011,0.171,0.017,0.259c0.023,0.339,0.046,0.685,0.069,1.038
		c0.017,0.353,0.063,0.711,0.05,1.078c0.001,0.732,0.003,1.489,0.005,2.267c-0.003,0.389,0.012,0.783-0.006,1.181
		c-0.026,0.398-0.052,0.801-0.079,1.209c-0.063,0.814-0.084,1.648-0.166,2.491c-0.106,0.841-0.214,1.695-0.323,2.561
		c-0.083,0.869-0.293,1.729-0.443,2.605c-0.275,1.759-0.789,3.495-1.223,5.248c-0.564,1.715-1.05,3.459-1.752,5.095
		c-0.163,0.414-0.325,0.826-0.486,1.236c-0.148,0.416-0.338,0.811-0.522,1.206C1.557-8.722,1.195-7.94,0.838-7.172
		C0.461-6.414,0.034-5.697-0.345-4.974C-0.539-4.614-0.73-4.259-0.92-3.907C-1.116-3.56-1.338-3.235-1.542-2.903
		C-1.957-2.245-2.36-1.605-2.75-0.985c-0.184,0.318-0.413,0.597-0.615,0.887c-0.207,0.286-0.41,0.568-0.61,0.843
		c-0.401,0.549-0.775,1.084-1.15,1.578c-0.394,0.479-0.768,0.934-1.12,1.361c-0.073,0.089-0.141,0.171-0.212,0.258
		c0.479-0.979,0.939-1.995,1.382-3.044C-4.298-0.983-3.6-2.97-3.006-5.024c0.571-2.06,1.044-4.182,1.409-6.324
		c0.326-2.148,0.545-4.311,0.65-6.446c0.057-1.525,0.052-3.033-0.007-4.51c0.024-0.06,0.048-0.122,0.072-0.182
		c0.326-0.853,0.633-1.697,0.932-2.524c0.303-0.825,0.592-1.635,0.848-2.432c0.263-0.794,0.519-1.567,0.767-2.315
		c0.241-0.75,0.446-1.483,0.657-2.181c0.205-0.701,0.414-1.368,0.59-2.01c0.168-0.644,0.326-1.256,0.476-1.83
		c0.103-0.398,0.2-0.771,0.294-1.132l-0.346,0.008c-0.106,0.325-0.216,0.66-0.332,1.014c-0.184,0.561-0.379,1.159-0.586,1.789
		c-0.217,0.626-0.445,1.285-0.683,1.972c-0.242,0.686-0.478,1.405-0.751,2.14c-0.272,0.735-0.553,1.494-0.842,2.275
		c-0.28,0.784-0.594,1.58-0.921,2.39c-0.103,0.261-0.208,0.526-0.313,0.79c-0.16-1.86-0.386-3.658-0.721-5.345
		c-0.154-0.919-0.371-1.8-0.567-2.653c-0.204-0.852-0.451-1.662-0.661-2.446c-0.199-0.608-0.383-1.192-0.572-1.757l-1.412,0.034
		C-5.118-36.143-5.215-35.579-5.314-35.003z"/>
	<path id="XMLID_750_" style="fill:#8FA229;" d="M-16.242-32.63c0.2,1.591,0.318,3.216,0.464,4.837
		c0.106,1.625,0.242,3.248,0.292,4.851c0.081,1.601,0.113,3.179,0.149,4.706c0.002,0.764,0.004,1.515,0.006,2.25
		c0.008,0.735,0.009,1.455-0.012,2.155c-0.027,1.401-0.047,2.726-0.106,3.949c-0.024,0.612-0.048,1.198-0.07,1.755
		c-0.032,0.557-0.063,1.086-0.092,1.582c-0.056,0.994-0.102,1.862-0.166,2.574c-0.102,1.429-0.16,2.245-0.16,2.245
		s0.136-0.808,0.373-2.221c0.055-0.354,0.125-0.745,0.185-1.173c0.055-0.428,0.115-0.892,0.179-1.387
		c0.063-0.496,0.13-1.023,0.2-1.579c0.062-0.557,0.109-1.144,0.168-1.756c0.054-0.613,0.123-1.25,0.17-1.912
		c0.04-0.662,0.081-1.347,0.123-2.05c0.048-0.704,0.075-1.428,0.096-2.168c0.025-0.74,0.045-1.497,0.055-2.266
		c-0.009-1.539,0.022-3.131-0.058-4.746c-0.038-1.617-0.161-3.255-0.258-4.894c-0.16-1.635-0.292-3.272-0.506-4.875
		c-0.135-1.254-0.333-2.483-0.523-3.686l-0.977,0.024C-16.543-35.176-16.376-33.917-16.242-32.63z"/>
	<path id="XMLID_748_" style="fill:#8FA229;" d="M21.333-37.231c-0.217,0.73-0.407,1.484-0.641,2.239
		c-0.502,1.5-0.992,3.057-1.61,4.598c-0.555,1.565-1.271,3.092-1.936,4.64c-0.746,1.51-1.441,3.047-2.271,4.485
		c-0.772,1.469-1.637,2.855-2.452,4.21c-0.27,0.429-0.55,0.842-0.827,1.252c0.013-0.301,0.026-0.602,0.033-0.902
		c0.073-1.444,0.041-2.868,0.047-4.244c-0.011-0.688-0.033-1.364-0.058-2.026c-0.021-0.662-0.048-1.309-0.096-1.938
		c-0.042-0.629-0.083-1.241-0.123-1.832c-0.046-0.591-0.115-1.161-0.168-1.708c-0.059-0.547-0.104-1.071-0.166-1.569
		c-0.069-0.497-0.135-0.968-0.197-1.411c-0.063-0.442-0.122-0.856-0.176-1.238c-0.059-0.381-0.127-0.729-0.181-1.044
		c-0.233-1.259-0.366-1.979-0.366-1.979s0.056,0.73,0.154,2.006c0.062,0.637,0.106,1.413,0.16,2.3
		c0.028,0.443,0.058,0.915,0.089,1.412c0.022,0.498,0.044,1.021,0.068,1.568c0.02,0.546,0.055,1.114,0.066,1.703
		c0.012,0.589,0.025,1.197,0.039,1.823c0.021,0.625,0.02,1.268,0.013,1.925c-0.001,0.656-0.003,1.327-0.004,2.009
		c-0.031,1.237-0.061,2.514-0.124,3.808c-0.045-0.956-0.088-1.889-0.131-2.791c-0.056-0.944-0.175-1.852-0.254-2.725
		c-0.093-0.872-0.16-1.709-0.263-2.502c-0.125-0.79-0.243-1.539-0.354-2.244c-0.111-0.703-0.215-1.361-0.311-1.969
		c-0.104-0.606-0.236-1.155-0.336-1.655c-0.206-0.999-0.386-1.78-0.501-2.314c-0.117-0.534-0.18-0.819-0.18-0.819
		s0.043,0.288,0.122,0.829c0.082,0.54,0.191,1.335,0.352,2.342c0.074,0.504,0.178,1.06,0.25,1.67c0.064,0.61,0.134,1.27,0.208,1.975
		c0.074,0.704,0.153,1.452,0.236,2.242c0.061,0.792,0.105,1.627,0.162,2.496c0.046,0.87,0.131,1.774,0.151,2.712
		c0.017,0.938,0.034,1.909,0.052,2.906c0.006,0.498,0.028,1.004,0.02,1.515c-0.015,0.511-0.031,1.029-0.046,1.552
		c-0.01,0.261-0.017,0.522-0.024,0.786c-0.391,0.533-0.774,1.055-1.144,1.559c-0.405,0.55-0.835,1.051-1.227,1.55
		c-0.398,0.494-0.78,0.967-1.143,1.417C5.863-8.178,5.502-7.765,5.163-7.377c-0.34,0.389-0.658,0.753-0.952,1.09
		C3.913-5.954,3.618-5.668,3.363-5.399c-0.519,0.53-0.915,0.96-1.19,1.248c-0.274,0.29-0.42,0.444-0.42,0.444s0.16-0.14,0.46-0.401
		C2.512-4.371,2.957-4.75,3.51-5.249C3.785-5.5,4.101-5.766,4.424-6.078c0.319-0.316,0.664-0.658,1.032-1.023
		c0.369-0.366,0.762-0.755,1.175-1.166c0.402-0.422,0.8-0.888,1.229-1.363c0.421-0.481,0.882-0.966,1.319-1.5
		c0.179-0.225,0.363-0.456,0.547-0.687c-0.01,0.363-0.022,0.727-0.04,1.093C9.524-8.555,9.402-6.312,9.098-4.049
		C8.886-1.776,8.45,0.503,8.089,2.792C7.896,3.699,7.712,4.609,7.525,5.515C7.461,5.79,7.398,6.059,7.339,6.316
		c-0.2,0.867-0.37,1.624-0.535,2.241C6.498,9.8,6.324,10.511,6.324,10.511s0.012-0.032,0.029-0.079
		c-0.491,1.903-1.073,3.75-1.614,5.552c-0.336,1.034-0.72,2.032-1.057,3.023c-0.173,0.494-0.344,0.983-0.513,1.466
		c-0.176,0.48-0.378,0.944-0.561,1.407c-0.374,0.925-0.738,1.824-1.09,2.694c-0.355,0.869-0.757,1.683-1.112,2.479
		c-0.365,0.791-0.704,1.555-1.045,2.272c-0.361,0.708-0.703,1.38-1.024,2.011c-0.322,0.632-0.623,1.223-0.902,1.77
		c-0.285,0.543-0.581,1.024-0.83,1.468c-0.51,0.881-0.896,1.584-1.166,2.059c-0.268,0.477-0.411,0.731-0.411,0.731
		s0.16-0.243,0.461-0.699c0.299-0.457,0.746-1.123,1.297-1.983c0.273-0.432,0.594-0.898,0.908-1.427
		c0.308-0.533,0.64-1.11,0.996-1.726c0.356-0.617,0.734-1.273,1.134-1.966c0.38-0.703,0.743-1.46,1.141-2.241
		c0.386-0.787,0.823-1.592,1.213-2.453c0.38-0.866,0.772-1.762,1.175-2.683c0.198-0.462,0.414-0.925,0.604-1.404
		c0.184-0.482,0.369-0.97,0.557-1.464c0.372-0.988,0.765-1.995,1.125-3.031c0.658-2.094,1.414-4.237,1.95-6.482
		C8.223,7.584,8.651,5.278,9.15,2.989C9.409,1.291,9.706-0.4,9.927-2.088c0.113-0.555,0.225-1.119,0.33-1.695
		c0.22-1.358,0.487-2.757,0.65-4.194c0.204-1.432,0.33-2.895,0.481-4.356c0.036-0.591,0.076-1.18,0.114-1.769
		c0.121-0.169,0.241-0.337,0.364-0.508c0.447-0.628,0.909-1.267,1.355-1.933c0.849-1.358,1.782-2.732,2.566-4.223
		c0.852-1.454,1.572-3.008,2.339-4.537c0.664-1.577,1.379-3.133,1.931-4.725c0.623-1.566,1.063-3.166,1.545-4.694
		c0.217-0.771,0.402-1.538,0.589-2.286c0.03-0.12,0.058-0.236,0.088-0.355l-0.913,0.022C21.354-37.304,21.344-37.268,21.333-37.231z
		"/>
</symbol>
<g id="Background">
	<linearGradient id="SVGID_1_" gradientUnits="userSpaceOnUse" x1="400" y1="-93.5" x2="400" y2="828.6757">
		<stop  offset="0" style="stop-color:#0053A1"/>
		<stop  offset="0.6768" style="stop-color:#5CDDE6"/>
		<stop  offset="1" style="stop-color:#AFF0F3"/>
	</linearGradient>
	<rect y="1.5" style="fill:url(#SVGID_1_);" width="800" height="800"/>
	<g id="XMLID_7_">
		<g id="XMLID_8_">
			<path id="XMLID_9_" style="fill:#4B4B4B;" d="M286.024,774.287v-0.257c-0.349,0.398-0.692,0.724-1.031,0.973
				c-0.338,0.251-0.706,0.441-1.102,0.57c-0.396,0.132-0.827,0.195-1.296,0.195c-0.621,0-1.196-0.131-1.725-0.394
				c-0.528-0.263-0.986-0.639-1.372-1.126c-0.387-0.487-0.68-1.06-0.879-1.719c-0.199-0.659-0.299-1.371-0.299-2.137
				c0-1.621,0.396-2.886,1.188-3.791c0.792-0.904,1.833-1.357,3.125-1.357c0.747,0,1.377,0.129,1.89,0.384
				c0.513,0.257,1.013,0.652,1.501,1.183v-3.827c0-0.532,0.105-0.934,0.318-1.206c0.211-0.273,0.514-0.408,0.907-0.408
				c0.393,0,0.694,0.125,0.907,0.375c0.212,0.251,0.318,0.618,0.318,1.106v11.436c0,0.494-0.113,0.864-0.342,1.111
				c-0.228,0.246-0.522,0.37-0.883,0.37c-0.354,0-0.647-0.128-0.879-0.384C286.139,775.127,286.024,774.761,286.024,774.287z
				 M280.923,770.478c0,0.703,0.109,1.301,0.328,1.795c0.219,0.494,0.518,0.866,0.897,1.115c0.38,0.251,0.795,0.377,1.244,0.377
				c0.456,0,0.872-0.119,1.25-0.357c0.376-0.236,0.677-0.602,0.902-1.091c0.225-0.491,0.337-1.105,0.337-1.839
				c0-0.69-0.112-1.284-0.337-1.782c-0.225-0.496-0.528-0.876-0.912-1.14c-0.383-0.262-0.803-0.393-1.258-0.393
				c-0.475,0-0.899,0.135-1.273,0.403c-0.374,0.269-0.663,0.654-0.869,1.158C281.026,769.229,280.923,769.813,280.923,770.478z"/>
			<path id="XMLID_12_" style="fill:#4B4B4B;" d="M297.458,771.134h-5.071c0.006,0.588,0.124,1.107,0.356,1.557
				c0.23,0.45,0.538,0.789,0.921,1.017c0.383,0.229,0.806,0.341,1.268,0.341c0.31,0,0.593-0.035,0.85-0.107
				c0.257-0.074,0.505-0.187,0.746-0.343c0.241-0.154,0.462-0.321,0.664-0.499c0.202-0.178,0.464-0.419,0.788-0.723
				c0.133-0.113,0.323-0.171,0.571-0.171c0.266,0,0.48,0.074,0.645,0.22c0.165,0.146,0.248,0.351,0.248,0.617
				c0,0.234-0.093,0.507-0.275,0.821c-0.185,0.314-0.462,0.614-0.832,0.902c-0.371,0.288-0.835,0.526-1.397,0.717
				c-0.56,0.19-1.204,0.285-1.933,0.285c-1.664,0-2.96-0.476-3.884-1.425c-0.924-0.949-1.386-2.238-1.386-3.865
				c0-0.767,0.113-1.478,0.341-2.132c0.228-0.656,0.561-1.218,0.997-1.686c0.437-0.469,0.975-0.827,1.615-1.078
				c0.639-0.25,1.349-0.374,2.127-0.374c1.013,0,1.882,0.212,2.606,0.641c0.726,0.427,1.27,0.979,1.63,1.656
				c0.36,0.678,0.542,1.369,0.542,2.07c0,0.653-0.187,1.075-0.56,1.269C298.662,771.037,298.136,771.134,297.458,771.134z
				 M292.386,769.662h4.702c-0.063-0.887-0.303-1.551-0.717-1.99c-0.415-0.44-0.96-0.66-1.638-0.66
				c-0.646,0-1.177,0.223-1.591,0.669C292.727,768.127,292.476,768.788,292.386,769.662z"/>
			<path id="XMLID_15_" style="fill:#4B4B4B;" d="M309.273,772.377c0,0.716-0.173,1.329-0.523,1.839
				c-0.348,0.51-0.862,0.896-1.543,1.159c-0.68,0.263-1.508,0.394-2.483,0.394c-0.931,0-1.728-0.143-2.394-0.428
				c-0.665-0.284-1.156-0.642-1.472-1.067c-0.317-0.429-0.475-0.857-0.475-1.288c0-0.285,0.101-0.528,0.304-0.731
				c0.202-0.202,0.459-0.304,0.77-0.304c0.272,0,0.48,0.066,0.626,0.199c0.146,0.133,0.286,0.32,0.417,0.56
				c0.266,0.464,0.585,0.807,0.956,1.036c0.37,0.227,0.875,0.342,1.515,0.342c0.519,0,0.945-0.116,1.277-0.347
				c0.332-0.232,0.498-0.496,0.498-0.794c0-0.456-0.172-0.787-0.518-0.996c-0.345-0.209-0.914-0.409-1.705-0.6
				c-0.893-0.221-1.619-0.454-2.18-0.698c-0.561-0.242-1.008-0.565-1.344-0.963c-0.335-0.399-0.503-0.891-0.503-1.473
				c0-0.518,0.155-1.01,0.465-1.473c0.311-0.461,0.768-0.83,1.374-1.105c0.603-0.276,1.333-0.414,2.188-0.414
				c0.671,0,1.275,0.069,1.809,0.21c0.536,0.138,0.983,0.326,1.34,0.561c0.358,0.233,0.63,0.493,0.816,0.777
				c0.187,0.285,0.28,0.563,0.28,0.837c0,0.297-0.1,0.541-0.298,0.731c-0.199,0.188-0.482,0.285-0.85,0.285
				c-0.266,0-0.492-0.076-0.679-0.23c-0.187-0.151-0.4-0.379-0.641-0.683c-0.196-0.253-0.426-0.456-0.693-0.608
				c-0.266-0.152-0.627-0.228-1.083-0.228c-0.469,0-0.857,0.099-1.168,0.3c-0.31,0.198-0.465,0.446-0.465,0.744
				c0,0.273,0.114,0.496,0.341,0.67c0.229,0.175,0.535,0.319,0.922,0.433c0.386,0.113,0.917,0.252,1.596,0.417
				c0.803,0.197,1.46,0.432,1.97,0.703c0.509,0.271,0.895,0.594,1.16,0.965C309.142,771.48,309.273,771.902,309.273,772.377z"/>
			<path id="XMLID_17_" style="fill:#4B4B4B;" d="M311.922,764.02c-0.361,0-0.669-0.111-0.926-0.333
				c-0.256-0.221-0.385-0.534-0.385-0.94c0-0.368,0.131-0.669,0.394-0.907c0.263-0.238,0.569-0.356,0.917-0.356
				c0.336,0,0.633,0.107,0.893,0.323c0.26,0.216,0.39,0.528,0.39,0.94c0,0.399-0.127,0.711-0.381,0.936
				C312.57,763.907,312.27,764.02,311.922,764.02z M313.204,766.698v7.493c0,0.52-0.124,0.913-0.371,1.179
				c-0.247,0.266-0.56,0.398-0.94,0.398s-0.689-0.136-0.926-0.408c-0.238-0.273-0.356-0.662-0.356-1.169v-7.418
				c0-0.512,0.118-0.898,0.356-1.158c0.237-0.26,0.546-0.39,0.926-0.39s0.693,0.13,0.94,0.39
				C313.081,765.875,313.204,766.236,313.204,766.698z"/>
			<path id="XMLID_20_" style="fill:#4B4B4B;" d="M324.563,767.125v7.531c0,0.861-0.093,1.602-0.277,2.224
				c-0.182,0.619-0.477,1.133-0.883,1.538c-0.405,0.404-0.936,0.706-1.59,0.901c-0.655,0.197-1.471,0.295-2.446,0.295
				c-0.893,0-1.69-0.125-2.393-0.375c-0.702-0.251-1.243-0.573-1.624-0.969c-0.379-0.396-0.57-0.803-0.57-1.221
				c0-0.316,0.108-0.575,0.324-0.773c0.215-0.2,0.475-0.3,0.778-0.3c0.38,0,0.712,0.168,0.997,0.503
				c0.139,0.171,0.283,0.345,0.432,0.519c0.149,0.175,0.314,0.323,0.494,0.447c0.181,0.122,0.398,0.214,0.65,0.274
				c0.253,0.059,0.545,0.09,0.874,0.09c0.671,0,1.192-0.093,1.563-0.28c0.371-0.186,0.63-0.448,0.779-0.784
				c0.149-0.334,0.236-0.693,0.261-1.077c0.025-0.384,0.044-0.999,0.057-1.849c-0.399,0.559-0.859,0.983-1.382,1.274
				c-0.522,0.291-1.145,0.437-1.866,0.437c-0.868,0-1.625-0.222-2.275-0.665c-0.648-0.443-1.147-1.063-1.495-1.861
				c-0.349-0.799-0.522-1.719-0.522-2.764c0-0.778,0.105-1.482,0.317-2.108c0.213-0.628,0.515-1.156,0.907-1.587
				c0.393-0.431,0.845-0.755,1.358-0.974c0.513-0.218,1.076-0.327,1.691-0.327c0.734,0,1.371,0.142,1.909,0.422
				c0.538,0.283,1.039,0.725,1.501,1.326v-0.352c0-0.449,0.11-0.797,0.332-1.045c0.222-0.246,0.507-0.37,0.855-0.37
				c0.5,0,0.832,0.164,0.997,0.489C324.48,766.041,324.563,766.511,324.563,767.125z M317.05,770.412
				c0,1.051,0.229,1.846,0.688,2.384c0.459,0.539,1.053,0.808,1.781,0.808c0.43,0,0.837-0.116,1.22-0.347
				c0.384-0.232,0.695-0.58,0.937-1.045c0.24-0.466,0.361-1.03,0.361-1.695c0-1.057-0.232-1.881-0.698-2.469
				c-0.466-0.589-1.078-0.884-1.838-0.884c-0.741,0-1.334,0.282-1.78,0.846C317.273,768.572,317.05,769.374,317.05,770.412z"/>
			<path id="XMLID_23_" style="fill:#4B4B4B;" d="M328.684,766.66v0.313c0.455-0.602,0.954-1.043,1.496-1.325
				c0.542-0.281,1.163-0.423,1.866-0.423c0.684,0,1.295,0.149,1.833,0.447c0.538,0.298,0.941,0.719,1.206,1.262
				c0.172,0.317,0.282,0.66,0.333,1.026c0.051,0.368,0.077,0.836,0.077,1.406v4.824c0,0.52-0.119,0.913-0.357,1.179
				c-0.237,0.266-0.546,0.398-0.926,0.398c-0.387,0-0.7-0.136-0.941-0.408c-0.241-0.273-0.361-0.662-0.361-1.169v-4.321
				c0-0.854-0.119-1.509-0.357-1.961c-0.238-0.452-0.71-0.68-1.42-0.68c-0.461,0-0.883,0.138-1.263,0.413
				c-0.38,0.276-0.659,0.655-0.836,1.136c-0.126,0.387-0.19,1.107-0.19,2.165v3.248c0,0.525-0.123,0.921-0.365,1.184
				c-0.244,0.263-0.559,0.394-0.945,0.394c-0.374,0-0.681-0.136-0.922-0.408c-0.24-0.273-0.361-0.662-0.361-1.169v-7.493
				c0-0.494,0.107-0.863,0.323-1.107c0.215-0.243,0.51-0.365,0.883-0.365c0.229,0,0.435,0.054,0.619,0.162
				c0.183,0.108,0.331,0.269,0.441,0.483C328.629,766.086,328.684,766.35,328.684,766.66z"/>
			<path id="XMLID_25_" style="fill:#4B4B4B;" d="M344.458,771.134h-5.071c0.007,0.588,0.125,1.107,0.356,1.557
				c0.231,0.45,0.538,0.789,0.921,1.017c0.382,0.229,0.805,0.341,1.267,0.341c0.311,0,0.594-0.035,0.851-0.107
				c0.255-0.074,0.504-0.187,0.746-0.343c0.24-0.154,0.461-0.321,0.665-0.499c0.202-0.178,0.464-0.419,0.788-0.723
				c0.133-0.113,0.323-0.171,0.57-0.171c0.266,0,0.482,0.074,0.646,0.22c0.165,0.146,0.247,0.351,0.247,0.617
				c0,0.234-0.091,0.507-0.275,0.821c-0.184,0.314-0.461,0.614-0.831,0.902c-0.371,0.288-0.835,0.526-1.396,0.717
				c-0.561,0.19-1.205,0.285-1.933,0.285c-1.665,0-2.96-0.476-3.885-1.425c-0.923-0.949-1.386-2.238-1.386-3.865
				c0-0.767,0.114-1.478,0.342-2.132c0.228-0.656,0.561-1.218,0.998-1.686c0.436-0.469,0.975-0.827,1.614-1.078
				c0.639-0.25,1.349-0.374,2.128-0.374c1.013,0,1.881,0.212,2.606,0.641c0.726,0.427,1.269,0.979,1.63,1.656
				c0.36,0.678,0.542,1.369,0.542,2.07c0,0.653-0.186,1.075-0.56,1.269C345.662,771.037,345.136,771.134,344.458,771.134z
				 M339.387,769.662h4.701c-0.063-0.887-0.302-1.551-0.717-1.99c-0.415-0.44-0.961-0.66-1.638-0.66
				c-0.646,0-1.177,0.223-1.592,0.669C339.726,768.127,339.476,768.788,339.387,769.662z"/>
			<path id="XMLID_28_" style="fill:#4B4B4B;" d="M355.028,774.287v-0.257c-0.348,0.398-0.691,0.724-1.03,0.973
				c-0.339,0.251-0.706,0.441-1.102,0.57c-0.395,0.132-0.828,0.195-1.296,0.195c-0.622,0-1.196-0.131-1.724-0.394
				c-0.529-0.263-0.986-0.639-1.373-1.126c-0.387-0.487-0.679-1.06-0.878-1.719c-0.2-0.659-0.299-1.371-0.299-2.137
				c0-1.621,0.395-2.886,1.187-3.791c0.792-0.904,1.833-1.357,3.125-1.357c0.747,0,1.378,0.129,1.89,0.384
				c0.513,0.257,1.013,0.652,1.5,1.183v-3.827c0-0.532,0.106-0.934,0.319-1.206c0.211-0.273,0.515-0.408,0.907-0.408
				c0.392,0,0.694,0.125,0.907,0.375c0.212,0.251,0.318,0.618,0.318,1.106v11.436c0,0.494-0.114,0.864-0.342,1.111
				c-0.228,0.246-0.522,0.37-0.883,0.37c-0.354,0-0.647-0.128-0.879-0.384C355.144,775.127,355.028,774.761,355.028,774.287z
				 M349.928,770.478c0,0.703,0.108,1.301,0.327,1.795c0.218,0.494,0.518,0.866,0.898,1.115c0.379,0.251,0.794,0.377,1.243,0.377
				c0.457,0,0.873-0.119,1.249-0.357c0.377-0.236,0.678-0.602,0.902-1.091c0.225-0.491,0.337-1.105,0.337-1.839
				c0-0.69-0.112-1.284-0.337-1.782c-0.224-0.496-0.528-0.876-0.912-1.14c-0.384-0.262-0.803-0.393-1.259-0.393
				c-0.474,0-0.899,0.135-1.272,0.403c-0.373,0.269-0.663,0.654-0.869,1.158C350.03,769.229,349.928,769.813,349.928,770.478z"/>
			<path id="XMLID_31_" style="fill:#4B4B4B;" d="M365.626,762.851v3.96c0.487-0.506,0.984-0.895,1.491-1.163
				c0.506-0.269,1.134-0.403,1.881-0.403c0.861,0,1.616,0.204,2.266,0.611c0.648,0.41,1.151,1.002,1.51,1.777
				c0.357,0.774,0.537,1.695,0.537,2.76c0,0.785-0.1,1.504-0.299,2.16c-0.2,0.655-0.49,1.224-0.869,1.704
				c-0.38,0.481-0.841,0.854-1.382,1.117c-0.542,0.263-1.139,0.394-1.79,0.394c-0.4,0-0.775-0.047-1.126-0.143
				c-0.352-0.095-0.651-0.219-0.898-0.375c-0.246-0.154-0.457-0.314-0.631-0.479c-0.174-0.164-0.404-0.412-0.689-0.741v0.257
				c0,0.487-0.117,0.856-0.352,1.107c-0.233,0.25-0.531,0.374-0.893,0.374c-0.367,0-0.66-0.124-0.878-0.374
				c-0.219-0.251-0.328-0.62-0.328-1.107v-11.322c0-0.525,0.106-0.923,0.317-1.191c0.212-0.269,0.509-0.403,0.889-0.403
				c0.399,0,0.706,0.128,0.921,0.384C365.518,762.011,365.626,762.375,365.626,762.851z M365.75,770.554
				c0,1.032,0.236,1.824,0.708,2.378c0.472,0.555,1.091,0.833,1.857,0.833c0.652,0,1.214-0.283,1.686-0.851
				c0.472-0.567,0.708-1.379,0.708-2.437c0-0.684-0.097-1.273-0.294-1.767c-0.197-0.494-0.475-0.876-0.835-1.145
				c-0.361-0.268-0.783-0.403-1.264-0.403c-0.494,0-0.935,0.135-1.32,0.403c-0.386,0.269-0.69,0.658-0.912,1.168
				C365.861,769.244,365.75,769.851,365.75,770.554z"/>
			<path id="XMLID_34_" style="fill:#4B4B4B;" d="M376.672,776.091l0.237-0.58l-3.191-8.035c-0.196-0.461-0.295-0.798-0.295-1.007
				c0-0.222,0.058-0.427,0.171-0.616c0.114-0.19,0.271-0.343,0.47-0.456c0.2-0.115,0.407-0.172,0.623-0.172
				c0.373,0,0.655,0.119,0.846,0.357c0.19,0.237,0.357,0.577,0.503,1.021l2.194,6.383l2.08-5.937
				c0.164-0.479,0.313-0.857,0.446-1.13c0.133-0.273,0.273-0.456,0.422-0.55c0.148-0.096,0.359-0.144,0.632-0.144
				c0.197,0,0.385,0.052,0.565,0.157c0.18,0.104,0.319,0.245,0.417,0.423c0.098,0.177,0.148,0.363,0.148,0.56
				c-0.026,0.12-0.066,0.291-0.124,0.514c-0.058,0.221-0.126,0.447-0.208,0.674l-3.381,8.852c-0.292,0.778-0.577,1.389-0.855,1.832
				c-0.279,0.443-0.647,0.785-1.106,1.021c-0.46,0.238-1.078,0.357-1.857,0.357c-0.759,0-1.33-0.082-1.708-0.246
				c-0.381-0.166-0.57-0.467-0.57-0.903c0-0.297,0.089-0.527,0.271-0.688c0.18-0.161,0.448-0.243,0.801-0.243
				c0.14,0,0.276,0.02,0.409,0.059c0.164,0.037,0.307,0.057,0.427,0.057c0.297,0,0.532-0.044,0.704-0.134
				c0.17-0.088,0.324-0.241,0.46-0.461C376.337,776.837,376.495,776.515,376.672,776.091z"/>
		</g>
		<g id="XMLID_36_">
			<path id="XMLID_37_" style="fill:#4B4B4B;" d="M414.235,765.45h0.618v-0.778c0-0.814,0.1-1.457,0.307-1.938
				c0.204-0.479,0.556-0.826,1.047-1.045c0.49-0.217,1.163-0.326,2.017-0.326c1.52,0,2.273,0.367,2.273,1.114
				c0,0.238-0.079,0.444-0.24,0.615c-0.154,0.169-0.343,0.256-0.558,0.256c-0.1,0-0.278-0.019-0.527-0.06
				c-0.237-0.033-0.452-0.056-0.623-0.056c-0.468,0-0.767,0.141-0.905,0.415c-0.127,0.275-0.195,0.669-0.195,1.185v0.617h0.633
				c0.991,0,1.481,0.297,1.481,0.895c0,0.419-0.127,0.69-0.393,0.805c-0.262,0.114-0.624,0.171-1.089,0.171h-0.633v6.871
				c0,0.511-0.12,0.9-0.369,1.168c-0.241,0.272-0.554,0.406-0.942,0.406c-0.367,0-0.671-0.134-0.918-0.406
				c-0.244-0.268-0.364-0.657-0.364-1.168v-6.871h-0.714c-0.389,0-0.683-0.084-0.893-0.262c-0.209-0.171-0.315-0.399-0.315-0.678
				C412.931,765.757,413.366,765.45,414.235,765.45"/>
			<path id="XMLID_38_" style="fill:#4B4B4B;" d="M422.724,772.024v2.168c0,0.523-0.133,0.919-0.374,1.18
				c-0.247,0.266-0.559,0.395-0.938,0.395c-0.382,0-0.688-0.131-0.927-0.4c-0.236-0.264-0.36-0.656-0.36-1.174v-7.223
				c0-1.166,0.42-1.749,1.261-1.749c0.434,0,0.743,0.135,0.934,0.408c0.19,0.273,0.295,0.674,0.317,1.208
				c0.308-0.534,0.624-0.935,0.948-1.208c0.332-0.273,0.763-0.408,1.31-0.408c0.549,0,1.072,0.135,1.585,0.408
				c0.516,0.273,0.771,0.637,0.771,1.085c0,0.315-0.11,0.58-0.326,0.781c-0.22,0.209-0.454,0.312-0.706,0.312
				c-0.1,0-0.331-0.063-0.692-0.18c-0.365-0.113-0.688-0.173-0.963-0.173c-0.38,0-0.692,0.103-0.932,0.298
				c-0.242,0.205-0.431,0.497-0.564,0.887c-0.129,0.395-0.219,0.865-0.272,1.404C422.747,770.584,422.724,771.246,422.724,772.024"
				/>
			<path id="XMLID_39_" style="fill:#4B4B4B;" d="M434.645,771.131h-5.074c0.009,0.588,0.124,1.11,0.354,1.559
				c0.235,0.446,0.54,0.786,0.925,1.017c0.385,0.227,0.804,0.34,1.268,0.34c0.311,0,0.593-0.033,0.85-0.111
				c0.254-0.069,0.505-0.186,0.745-0.341c0.242-0.152,0.46-0.318,0.664-0.5c0.202-0.175,0.467-0.416,0.79-0.719
				c0.135-0.113,0.324-0.174,0.568-0.174c0.269,0,0.481,0.074,0.649,0.222c0.166,0.147,0.243,0.351,0.243,0.617
				c0,0.235-0.089,0.508-0.268,0.819c-0.188,0.317-0.463,0.616-0.836,0.906c-0.374,0.285-0.839,0.527-1.398,0.714
				c-0.559,0.19-1.206,0.286-1.932,0.286c-1.671,0-2.964-0.473-3.887-1.422c-0.924-0.952-1.392-2.242-1.392-3.868
				c0-0.767,0.117-1.478,0.348-2.135c0.225-0.658,0.558-1.216,0.999-1.688c0.436-0.471,0.97-0.828,1.612-1.078
				c0.638-0.249,1.347-0.374,2.128-0.374c1.011,0,1.881,0.214,2.606,0.646c0.724,0.423,1.273,0.977,1.629,1.654
				c0.361,0.681,0.542,1.368,0.542,2.074c0,0.648-0.189,1.07-0.562,1.266C435.847,771.035,435.323,771.131,434.645,771.131
				 M429.571,769.657h4.701c-0.063-0.885-0.298-1.55-0.714-1.986c-0.418-0.442-0.959-0.66-1.641-0.66
				c-0.645,0-1.177,0.22-1.592,0.669C429.912,768.125,429.658,768.784,429.571,769.657"/>
			<path id="XMLID_42_" style="fill:#4B4B4B;" d="M445.432,771.131h-5.073c0.006,0.588,0.125,1.11,0.355,1.559
				c0.231,0.446,0.539,0.786,0.921,1.017c0.383,0.227,0.806,0.34,1.271,0.34c0.308,0,0.593-0.033,0.845-0.111
				c0.259-0.069,0.506-0.186,0.75-0.341c0.242-0.152,0.46-0.318,0.664-0.5c0.199-0.175,0.464-0.416,0.788-0.719
				c0.135-0.113,0.326-0.174,0.568-0.174c0.268,0,0.483,0.074,0.65,0.222c0.165,0.147,0.24,0.351,0.24,0.617
				c0,0.235-0.087,0.508-0.273,0.819c-0.177,0.317-0.455,0.616-0.83,0.906c-0.37,0.285-0.84,0.527-1.396,0.714
				c-0.558,0.19-1.208,0.286-1.935,0.286c-1.667,0-2.959-0.473-3.887-1.422c-0.924-0.952-1.389-2.242-1.389-3.868
				c0-0.767,0.116-1.478,0.348-2.135c0.227-0.658,0.559-1.216,0.996-1.688c0.436-0.471,0.973-0.828,1.614-1.078
				c0.638-0.249,1.351-0.374,2.129-0.374c1.009,0,1.878,0.214,2.613,0.646c0.72,0.423,1.266,0.977,1.621,1.654
				c0.359,0.681,0.545,1.368,0.545,2.074c0,0.648-0.191,1.07-0.561,1.266C446.632,771.035,446.108,771.131,445.432,771.131
				 M440.359,769.657h4.701c-0.063-0.885-0.304-1.55-0.715-1.986c-0.421-0.442-0.962-0.66-1.643-0.66
				c-0.646,0-1.176,0.22-1.593,0.669C440.697,768.125,440.443,768.784,440.359,769.657"/>
			<path id="XMLID_45_" style="fill:#4B4B4B;" d="M451.112,766.679v0.311c0.486-0.601,0.994-1.042,1.524-1.324
				c0.519-0.284,1.118-0.427,1.782-0.427c0.795,0,1.535,0.208,2.207,0.617c0.671,0.414,1.198,1.016,1.589,1.807
				c0.39,0.795,0.586,1.729,0.586,2.813c0,0.796-0.112,1.531-0.336,2.201c-0.224,0.668-0.537,1.227-0.929,1.68
				c-0.394,0.45-0.855,0.802-1.39,1.046c-0.542,0.241-1.111,0.363-1.728,0.363c-0.738,0-1.364-0.148-1.865-0.447
				c-0.503-0.292-0.982-0.733-1.441-1.306v3.893c0,1.136-0.416,1.71-1.244,1.71c-0.49,0-0.809-0.146-0.972-0.44
				c-0.151-0.299-0.233-0.724-0.233-1.291v-11.193c0-0.495,0.106-0.859,0.32-1.107c0.215-0.239,0.512-0.364,0.885-0.364
				c0.369,0,0.666,0.125,0.895,0.374C450.999,765.848,451.112,766.205,451.112,766.679 M456.196,770.447
				c0-0.684-0.107-1.273-0.315-1.763c-0.209-0.492-0.499-0.867-0.866-1.128c-0.367-0.263-0.782-0.396-1.232-0.396
				c-0.714,0-1.318,0.284-1.809,0.844c-0.492,0.566-0.739,1.396-0.739,2.493c0,1.026,0.244,1.833,0.735,2.406
				c0.487,0.573,1.086,0.858,1.813,0.858c0.429,0,0.83-0.126,1.197-0.372c0.371-0.253,0.665-0.627,0.884-1.127
				C456.085,771.76,456.196,771.155,456.196,770.447"/>
			<path id="XMLID_48_" style="fill:#4B4B4B;" d="M461.412,764.013c-0.362,0-0.669-0.114-0.923-0.335
				c-0.26-0.223-0.388-0.532-0.388-0.937c0-0.368,0.131-0.67,0.396-0.91c0.262-0.234,0.566-0.356,0.914-0.356
				c0.34,0,0.636,0.107,0.894,0.319c0.26,0.219,0.391,0.534,0.391,0.946c0,0.399-0.127,0.711-0.378,0.936
				C462.064,763.899,461.763,764.013,461.412,764.013 M462.696,766.692v7.502c0,0.516-0.124,0.908-0.37,1.172
				c-0.25,0.27-0.561,0.4-0.941,0.4c-0.381,0-0.685-0.134-0.928-0.406c-0.233-0.276-0.355-0.665-0.355-1.166v-7.428
				c0-0.51,0.122-0.895,0.355-1.154c0.243-0.265,0.547-0.392,0.928-0.392c0.381,0,0.691,0.127,0.941,0.392
				C462.572,765.872,462.696,766.234,462.696,766.692"/>
			<path id="XMLID_51_" style="fill:#4B4B4B;" d="M471.055,774.583l-2.284-3.766l-1.408,1.328v2.065
				c0,0.499-0.133,0.882-0.396,1.149c-0.257,0.272-0.566,0.406-0.906,0.406c-0.398,0-0.715-0.131-0.94-0.4
				c-0.227-0.264-0.344-0.656-0.344-1.174v-11.063c0-0.573,0.114-1.011,0.331-1.313c0.223-0.305,0.545-0.452,0.953-0.452
				c0.4,0,0.713,0.137,0.949,0.411c0.234,0.271,0.353,0.674,0.353,1.202v6.293l2.916-3.063c0.362-0.376,0.633-0.641,0.827-0.778
				c0.189-0.139,0.419-0.208,0.689-0.208c0.326,0,0.594,0.104,0.815,0.309c0.211,0.206,0.32,0.466,0.32,0.773
				c0,0.379-0.353,0.889-1.055,1.521l-1.377,1.263l2.659,4.183c0.193,0.313,0.339,0.544,0.424,0.706
				c0.084,0.159,0.13,0.319,0.13,0.462c0,0.413-0.114,0.734-0.341,0.976c-0.225,0.236-0.524,0.354-0.886,0.354
				c-0.316,0-0.564-0.081-0.733-0.256C471.582,775.337,471.345,775.027,471.055,774.583"/>
			<path id="XMLID_52_" style="fill:#4B4B4B;" d="M476.691,775.766c-0.392,0-0.728-0.126-1.014-0.381
				c-0.284-0.249-0.429-0.606-0.429-1.065c0-0.386,0.138-0.719,0.41-0.995c0.274-0.279,0.607-0.419,1.008-0.419
				c0.397,0,0.735,0.14,1.022,0.412c0.279,0.275,0.422,0.612,0.422,1.002c0,0.452-0.143,0.808-0.422,1.06
				C477.402,775.64,477.07,775.766,476.691,775.766"/>
			<path id="XMLID_53_" style="fill:#4B4B4B;" d="M489.589,772.556c0,0.32-0.097,0.668-0.291,1.034
				c-0.191,0.37-0.488,0.718-0.886,1.05c-0.395,0.332-0.892,0.602-1.495,0.804c-0.601,0.202-1.28,0.307-2.03,0.307
				c-1.607,0-2.858-0.47-3.758-1.401c-0.896-0.936-1.346-2.189-1.346-3.76c0-1.067,0.204-2.006,0.619-2.824
				c0.407-0.815,1.004-1.447,1.781-1.894c0.779-0.448,1.716-0.67,2.794-0.67c0.674,0,1.288,0.098,1.853,0.295
				c0.561,0.195,1.032,0.451,1.425,0.759c0.387,0.315,0.685,0.644,0.89,0.992c0.207,0.352,0.308,0.681,0.308,0.987
				c0,0.308-0.113,0.571-0.343,0.787c-0.235,0.215-0.516,0.324-0.839,0.324c-0.219,0-0.397-0.057-0.541-0.166
				c-0.144-0.112-0.305-0.29-0.479-0.542c-0.317-0.478-0.646-0.842-0.996-1.079c-0.343-0.243-0.78-0.362-1.314-0.362
				c-0.762,0-1.384,0.298-1.854,0.898c-0.468,0.596-0.703,1.42-0.703,2.454c0,0.488,0.063,0.939,0.183,1.348
				c0.117,0.407,0.291,0.756,0.52,1.044c0.23,0.287,0.504,0.505,0.826,0.654c0.324,0.153,0.681,0.226,1.064,0.226
				c0.521,0,0.967-0.12,1.337-0.36c0.376-0.241,0.702-0.607,0.986-1.102c0.158-0.291,0.327-0.518,0.509-0.684
				c0.183-0.163,0.409-0.249,0.676-0.249c0.316,0,0.58,0.123,0.786,0.362C489.483,772.027,489.589,772.286,489.589,772.556"/>
			<path id="XMLID_54_" style="fill:#4B4B4B;" d="M500.78,770.496c0,0.769-0.122,1.484-0.355,2.139
				c-0.247,0.652-0.592,1.213-1.05,1.679c-0.455,0.469-1.002,0.828-1.632,1.08c-0.64,0.247-1.35,0.375-2.139,0.375
				c-0.785,0-1.493-0.128-2.121-0.383c-0.623-0.249-1.171-0.614-1.626-1.082c-0.461-0.477-0.809-1.034-1.052-1.677
				c-0.23-0.644-0.351-1.355-0.351-2.131c0-0.786,0.124-1.506,0.358-2.158c0.242-0.654,0.589-1.212,1.039-1.673
				c0.451-0.462,0.993-0.817,1.631-1.07c0.644-0.249,1.35-0.374,2.121-0.374c0.784,0,1.498,0.125,2.139,0.382
				c0.638,0.251,1.183,0.614,1.643,1.079c0.458,0.475,0.803,1.029,1.04,1.672C500.66,769.004,500.78,769.713,500.78,770.496
				 M498.176,770.496c0-1.059-0.234-1.881-0.698-2.469c-0.463-0.596-1.09-0.888-1.874-0.888c-0.508,0-0.955,0.132-1.343,0.394
				c-0.387,0.262-0.681,0.649-0.89,1.164c-0.209,0.514-0.316,1.113-0.316,1.799c0,0.679,0.103,1.267,0.31,1.773
				c0.208,0.511,0.502,0.897,0.886,1.166c0.386,0.267,0.835,0.404,1.353,0.404c0.784,0,1.411-0.296,1.874-0.892
				C497.942,772.357,498.176,771.537,498.176,770.496"/>
			<path id="XMLID_57_" style="fill:#4B4B4B;" d="M510.671,770.686v3.446c0,0.547-0.12,0.951-0.369,1.228
				c-0.25,0.272-0.571,0.408-0.977,0.408c-0.393,0-0.714-0.136-0.951-0.408c-0.247-0.276-0.372-0.681-0.372-1.228v-4.131
				c0-0.653-0.021-1.162-0.063-1.524c-0.046-0.354-0.168-0.655-0.362-0.883c-0.196-0.235-0.509-0.352-0.931-0.352
				c-0.851,0-1.407,0.29-1.677,0.881c-0.268,0.576-0.406,1.413-0.406,2.507v3.502c0,0.538-0.122,0.946-0.361,1.224
				c-0.249,0.273-0.567,0.412-0.965,0.412c-0.395,0-0.717-0.139-0.967-0.412c-0.252-0.277-0.376-0.686-0.376-1.224v-7.419
				c0-0.489,0.111-0.86,0.335-1.111c0.229-0.257,0.526-0.382,0.89-0.382c0.356,0,0.651,0.123,0.892,0.355
				c0.236,0.238,0.354,0.566,0.354,0.984v0.245c0.453-0.535,0.935-0.932,1.444-1.181c0.517-0.26,1.082-0.386,1.713-0.386
				c0.651,0,1.211,0.131,1.678,0.39c0.47,0.261,0.853,0.655,1.16,1.177c0.439-0.528,0.909-0.923,1.41-1.181
				c0.5-0.257,1.053-0.386,1.662-0.386c0.706,0,1.321,0.143,1.834,0.419c0.51,0.278,0.893,0.68,1.148,1.195
				c0.221,0.473,0.33,1.21,0.33,2.217v5.063c0,0.547-0.122,0.951-0.367,1.228c-0.246,0.272-0.575,0.408-0.979,0.408
				c-0.395,0-0.714-0.139-0.965-0.412c-0.25-0.277-0.376-0.686-0.376-1.224v-4.361c0-0.559-0.023-1.003-0.069-1.338
				c-0.047-0.337-0.177-0.62-0.383-0.847c-0.212-0.228-0.53-0.344-0.953-0.344c-0.342,0-0.666,0.107-0.974,0.308
				c-0.307,0.198-0.547,0.477-0.721,0.813C510.77,768.801,510.671,769.576,510.671,770.686"/>
		</g>
		<g id="XMLID_58_">
			<path id="XMLID_59_" style="fill:#4B4B4B;" d="M389.967,769.868c-0.002-0.005-0.002-0.01-0.002-0.018
				C389.965,769.858,389.965,769.863,389.967,769.868z"/>
			<path id="XMLID_60_" style="fill:#4B4B4B;" d="M390.098,770.697c0.002,0,0.002,0,0.003,0c-0.05-0.236-0.088-0.471-0.119-0.702
				C390.012,770.228,390.051,770.463,390.098,770.697z"/>
			<path id="XMLID_61_" style="fill:#4B4B4B;" d="M390.956,773.103c-0.006-0.01-0.011-0.021-0.017-0.033
				C390.945,773.082,390.95,773.093,390.956,773.103z"/>
			<path id="XMLID_62_" style="fill:#4B4B4B;" d="M390.874,772.943c-0.022-0.044-0.044-0.09-0.065-0.134
				C390.83,772.856,390.852,772.899,390.874,772.943z"/>
			<path id="XMLID_63_" style="fill:#4B4B4B;" d="M390.339,771.624c0.127,0.4,0.28,0.788,0.457,1.158
				c-0.18-0.378-0.33-0.767-0.454-1.158C390.341,771.624,390.34,771.624,390.339,771.624z"/>
			<path id="XMLID_64_" style="fill:#4B4B4B;" d="M400.004,759.931c0.501,0,0.871,0.04,1.295,0.111l0.12-0.763
				c0,0-1.171-0.36-2.71-0.234l-0.121-0.415c0.479-0.101,0.838-0.526,0.838-1.034c0-0.582-0.474-1.054-1.057-1.054
				c-0.583,0-1.056,0.472-1.056,1.054c0,0.508,0.358,0.934,0.836,1.034l0.134,0.463c-1.634,0.225-2.935,0.862-2.935,0.862
				l0.23,0.705c0.989-0.329,1.846-0.529,2.624-0.613C398.964,759.966,399.537,759.931,400.004,759.931z"/>
			<path id="XMLID_65_" style="fill:#4B4B4B;" d="M390.936,763.79l0.006-0.008c0.039-0.05,0.076-0.097,0.113-0.143l-0.313-0.226
				l-0.488-0.356c-0.027,0.038-0.795,0.744-1.401,2.048c-0.025-0.041-0.056-0.081-0.09-0.119c-0.182-0.198-0.436-0.3-0.758-0.294
				c-0.004,0-0.009,0-0.015,0c-0.2,0-0.337-0.066-0.427-0.147c0.089-0.113,0.143-0.256,0.143-0.413c0-0.368-0.3-0.669-0.669-0.669
				c-0.369,0-0.668,0.301-0.668,0.669c0,0.37,0.3,0.669,0.668,0.669c0.058,0,0.113-0.01,0.167-0.021
				c0.165,0.183,0.425,0.342,0.808,0.334c0.197-0.002,0.341,0.049,0.438,0.155c0.111,0.121,0.148,0.296,0.16,0.428
				c-0.001,0.002-0.001,0.005-0.003,0.005c-0.435,1.189-0.311,2.67-0.311,2.67l1.057,0.042c0.021-0.539,0.099-1.482,0.372-2.23
				C390.25,764.734,390.91,763.828,390.936,763.79z"/>
			<path id="XMLID_66_" style="fill:#4B4B4B;" d="M409.204,760.815c-0.368,0-0.669,0.299-0.669,0.669
				c0,0.058,0.009,0.112,0.023,0.165c-0.184,0.166-0.343,0.428-0.337,0.81c0.003,0.197-0.048,0.34-0.154,0.437
				c-0.085,0.075-0.191,0.115-0.296,0.141c-0.787-1.103-1.756-1.775-1.756-1.775l-0.759,0.814c0.573,0.521,1.159,1.175,1.729,1.99
				c0.394,0.563,0.799,1.29,1.136,2.015l1.024-0.486c0,0-0.468-1.155-1.126-2.191c0.114-0.04,0.23-0.103,0.331-0.192
				c0.2-0.181,0.299-0.436,0.293-0.758c-0.002-0.208,0.066-0.349,0.148-0.441c0.114,0.087,0.257,0.143,0.412,0.143
				c0.371,0,0.67-0.3,0.67-0.669C409.874,761.114,409.575,760.815,409.204,760.815z"/>
			<path id="XMLID_67_" style="fill:#4B4B4B;" d="M406.546,770.017c-1.409,0.687-3.728,1.594-6.781,2.02
				c-1.198,0.166-2.359,0.228-3.428,0.228c-1.391,0-2.62-0.104-3.563-0.223c-1.076-0.136-1.917-0.302-2.432-0.418
				c0.124,0.392,0.273,0.78,0.454,1.158c0.003,0.01,0.008,0.021,0.013,0.027c0.022,0.044,0.043,0.09,0.065,0.134
				c0.022,0.044,0.043,0.087,0.065,0.127c0.006,0.012,0.011,0.023,0.017,0.033c0.303,0.57,0.667,1.095,1.081,1.549
				c1.44,1.575,2.907,1.824,2.921,1.826l0.023,0.003l0.021,0.008c0.013,0.005,1.314,0.425,3.292,0.425
				c1.945,0,3.854-0.393,5.674-1.167c1.348-0.689,2.622-1.736,3.254-2.67c0.488-0.723,0.841-1.493,1.05-2.294
				c0.111-0.426,0.199-1.107,0.147-1.825C408.022,769.224,407.395,769.604,406.546,770.017z"/>
			<path id="XMLID_68_" style="fill:#4B4B4B;" d="M391.389,764.124c-0.041,0.06-0.652,0.925-1.135,2.253
				c-0.362,0.995-0.346,2.443-0.346,2.46v0.003c0,0.34,0.019,0.677,0.057,1.011c0,0.008,0,0.013,0.002,0.018
				c0.004,0.043,0.011,0.084,0.015,0.127c0.03,0.231,0.069,0.466,0.119,0.702c0.7,0.178,4.878,1.152,9.548,0.502
				c2.927-0.407,5.149-1.273,6.499-1.927c1.121-0.544,1.842-1.036,2.12-1.238c-0.277-1.028-1.042-2.641-1.743-3.646
				c-2.005-2.865-4.167-3.601-5.277-3.783c-0.424-0.069-0.763-0.109-1.243-0.109c-0.447,0-1.002,0.036-1.743,0.114
				c-0.743,0.077-1.572,0.273-2.532,0.596c-1.348,0.451-2.567,1.159-3.527,2.048l-0.033,0.03
				C392.027,763.414,391.73,763.689,391.389,764.124z M403.659,763.457c0.961,0,1.743,0.781,1.743,1.743
				c0,0.962-0.782,1.744-1.743,1.744c-0.962,0-1.742-0.782-1.742-1.744C401.917,764.238,402.697,763.457,403.659,763.457z
				 M395.417,763.387c1.557,0,2.817,1.262,2.817,2.817c0,1.556-1.26,2.815-2.817,2.815c-1.555,0-2.816-1.259-2.816-2.815
				C392.601,764.649,393.862,763.387,395.417,763.387z"/>
		</g>
	</g>
</g>
<g id="Objects">
	<g>
		<g>
			<g>
				<path d="M268.275,401.456c-1.016,4.242-2.34,8.41-3.956,12.461c-0.535,1.341-1.125,2.703-2.137,3.733
					c-1.07,1.089-2.525,1.713-3.99,2.141c-4.878,1.424-10.133,0.914-15.063-0.319c-2.243-0.561-4.534-1.316-6.214-2.905
					c-2.192-2.073-2.981-5.202-3.483-8.177c-0.919-5.443-1.218-10.99-0.89-16.501c0.807,1.818,3.081,2.359,5.045,2.674
					c10.173,1.63,20.347,3.259,30.52,4.889L268.275,401.456z"/>
				
					<linearGradient id="SVGID_00000051349168233807061260000010289455942463323064_" gradientUnits="userSpaceOnUse" x1="885.4592" y1="355.6852" x2="1117.9597" y2="426.1774" gradientTransform="matrix(-0.9865 -0.1639 -0.1639 0.9865 1317.3293 146.6366)">
					<stop  offset="0" style="stop-color:#9A999E"/>
					<stop  offset="1" style="stop-color:#000000"/>
				</linearGradient>
				<path style="fill:url(#SVGID_00000051349168233807061260000010289455942463323064_);" d="M289.705,376.417
					c0,0-7.735,2.947-11.76,8.717c-4.025,5.77-9.143,14.425-9.838,16.762c-0.695,2.337-4.124,6.367-18.746,2.097
					c-14.621-4.27-15.916-7.551-16.613-10.733c-0.698-3.182-5.384-30.33-6.432-36.944c-1.047-6.613-3.092-20.138-3.092-20.138
					l56.104,27.721c0,0,1.962,2.046,3.754,6.023S289.705,376.417,289.705,376.417z"/>
				
					<linearGradient id="SVGID_00000113349281991233577490000007116121538663520644_" gradientUnits="userSpaceOnUse" x1="928.7183" y1="408.1274" x2="999.0428" y2="384.9884" gradientTransform="matrix(-0.9865 -0.1639 -0.1639 0.9865 1317.3293 146.6366)">
					<stop  offset="0" style="stop-color:#9A999E"/>
					<stop  offset="1" style="stop-color:#000000"/>
				</linearGradient>
				<path style="fill:url(#SVGID_00000113349281991233577490000007116121538663520644_);" d="M280.422,364.696
					c0,0,0.499,4.376,1.893,7.06s7.611,5.864,7.611,5.864l43.123,22.805l1.887-5.819L280.422,364.696z"/>
				
					<radialGradient id="SVGID_00000011714705578924474190000010115523677036823939_" cx="987.7308" cy="361.5124" r="69.3827" gradientTransform="matrix(-0.9591 -0.283 -0.1353 0.4588 1279.9867 454.9665)" gradientUnits="userSpaceOnUse">
					<stop  offset="0.6378" style="stop-color:#4D4D4D"/>
					<stop  offset="1" style="stop-color:#000000"/>
				</radialGradient>
				<path style="fill:url(#SVGID_00000011714705578924474190000010115523677036823939_);" d="M351.883,375.652
					c0,0-14.547-3.797-30.437-10.578c-15.891-6.78-24.769-11.475-28.724-15.352c-3.955-3.877-6.942-10.812-11.792-14.838
					c-4.749-3.941-10.371-6.783-20.591-8.941c-10.22-2.158-22.527-2.824-26.853-1.703c-4.326,1.121-7.756,2.39-9.246,5.822
					c-1.49,3.432-2.31,5.595,0.079,10.592c2.389,4.996,2.653,11.709,16.416,14.687c12.213,2.642,22.117,2.526,33.569,8.339
					c8.573,4.351,17.758,12.15,30.515,18.41c12.758,6.26,29.545,15.948,29.545,15.948L351.883,375.652z"/>
				
					<radialGradient id="SVGID_00000065758146268831437830000004009088520317579148_" cx="1032.5601" cy="342.5202" r="17.096" gradientTransform="matrix(-0.9865 -0.1639 -0.1639 0.9865 1317.3293 146.6366)" gradientUnits="userSpaceOnUse">
					<stop  offset="0" style="stop-color:#FFFFFF"/>
					<stop  offset="1" style="stop-color:#F21700"/>
				</radialGradient>
				<path style="fill:url(#SVGID_00000065758146268831437830000004009088520317579148_);" d="M234.901,316.651
					c-0.52,5.899-0.171,9.466-0.171,9.466s1.918,1.146,4.515,1.398c4.672,0.453,4.986-0.79,4.986-0.79s1.753-6.651,2.008-8.189
					c0.52-3.131-1.596-6.091-4.727-6.611C238.382,311.403,235.18,313.489,234.901,316.651z"/>
				<path style="fill:#211915;" d="M283.516,378.637c0.084-1.13-2.523-0.601-7.621,4.557c-5.251,5.313-9.389,9.567-11.42,14.727
					c-1.567,3.98-1.936,6.117,0.4,4.972c2.337-1.145,2.124-2.459,4.685-7.233c3.301-6.153,5.75-9.43,8.285-11.768
					C280.38,381.553,283.477,379.158,283.516,378.637z"/>
				<path style="fill:#211915;" d="M277.845,370.207c-5.243,4.016-21.597,13.569-21.597,13.569s-3.44,1.3-2.851-1.618
					c0.589-2.918,2.354-15.415,2.775-16.697c0.421-1.282-0.508-5.076,5.766-3.409c6.274,1.667,7.371,1.953,9.799,2.357
					c2.429,0.404,3.693,0.302,4.79,1.836C277.625,367.779,278.674,369.572,277.845,370.207z"/>
				<path style="fill:#211915;" d="M245.923,361.492l-3.384,21.744c0,0-0.11,3.431-2.236,3.768
					c-2.126,0.337-4.699,0.599-5.931-1.676c-1.232-2.274-3.96-14.916-4.633-19.167c-0.673-4.251-2.654-13.089-1.908-13.425
					c0.746-0.336-0.112-0.709,2.76,1.379c2.873,2.087,6.603,3.167,9.064,3.576S246.443,358.359,245.923,361.492z"/>
				<path style="fill:#F7F7F8;" d="M237.317,382.828c0.168-1.008,2.789-16.783,4.132-24.861c2.315,0.381,4.881,1.07,4.473,3.524
					l-3.384,21.744c0,0-0.097,2.856-1.734,3.608C238.911,385.846,237.123,383.998,237.317,382.828z"/>
				<g>
					<path d="M279.684,338.861c0.447,1.451-2.88,5.87-9.263,7.031c-6.987,1.271-17.654,0.218-26.565-4.415
						c-6.282-3.266-7.881-8.689-6.594-9.984c5.145-5.176,12.094-6.878,20.563-5.312C268.562,328.167,277.21,330.832,279.684,338.861
						z"/>
					
						<linearGradient id="SVGID_00000071554406302157058110000011390490225722718367_" gradientUnits="userSpaceOnUse" x1="230.3279" y1="346.7403" x2="260.8831" y2="346.7403" gradientTransform="matrix(0.9865 0.1639 -0.1639 0.9865 74.977 -59.836)">
						<stop  offset="0" style="stop-color:#FFFFFF"/>
						<stop  offset="0.1654" style="stop-color:#F9F9F9"/>
						<stop  offset="0.3915" style="stop-color:#E7E7E8"/>
						<stop  offset="0.6526" style="stop-color:#CBCACD"/>
						<stop  offset="0.9379" style="stop-color:#A4A3A7"/>
						<stop  offset="1" style="stop-color:#9A999E"/>
					</linearGradient>
					<path style="fill:url(#SVGID_00000071554406302157058110000011390490225722718367_);" d="M273.814,335.029l3.619-21.777
						c0,0-0.105-5.096-13.748-7.046c-13.643-1.95-16.317,2.684-16.317,2.684l-3.594,21.622c0,0-3.882,5.2,14.006,8.359
						C273.045,341.567,273.814,335.029,273.814,335.029z"/>
					<g>
						
							<radialGradient id="SVGID_00000181780011851719555620000003809338593602362296_" cx="254.6052" cy="343.1783" r="152.8998" gradientTransform="matrix(0.9865 0.1635 -0.0543 0.3267 39.1919 151.8709)" gradientUnits="userSpaceOnUse">
							<stop  offset="0.3622" style="stop-color:#000000;stop-opacity:0"/>
							<stop  offset="1" style="stop-color:#000000;stop-opacity:0.5"/>
						</radialGradient>
						<path style="fill:url(#SVGID_00000181780011851719555620000003809338593602362296_);" d="M411.448,325.839
							c-3.7,22.257-72.316,29.75-149.616,16.937s-136.964-41.243-133.264-63.501c3.7-22.257,69.363-29.913,146.662-17.1
							C352.529,274.988,415.147,303.582,411.448,325.839z"/>
						
							<radialGradient id="SVGID_00000038385646777096001530000008996539291086517922_" cx="349.1151" cy="281.4601" r="204.8984" gradientTransform="matrix(-0.9715 0.1606 -0.0457 -0.1762 724.1964 272.7157)" gradientUnits="userSpaceOnUse">
							<stop  offset="0" style="stop-color:#000000;stop-opacity:0.6"/>
							<stop  offset="1" style="stop-color:#000000;stop-opacity:0"/>
						</radialGradient>
						<path style="fill:url(#SVGID_00000038385646777096001530000008996539291086517922_);" d="M403.483,309.146
							c-17.233-16.573-60.17-33.652-111.866-43.976l-27.996,35.47L403.483,309.146z"/>
						<path style="fill:#262626;" d="M271.777,310.662c0,0,3.116-14.485,2.46-20.899c-0.381-3.727-3.16-7.809-6.575-8.594
							c-3.272-0.752-7.945,0.274-10.202,5.915c-2.395,5.986-3.92,21.201-3.92,21.201s2.353,4.043,8.24,5.021
							C267.667,314.283,271.777,310.662,271.777,310.662z"/>
						
							<radialGradient id="SVGID_00000176740491284169866380000011008792539928184211_" cx="124.0745" cy="382.6081" r="287.58" gradientTransform="matrix(0.956 -0.213 0.0528 0.1591 -3.0172 295.6312)" gradientUnits="userSpaceOnUse">
							<stop  offset="0.2083" style="stop-color:#000000;stop-opacity:0.6"/>
							<stop  offset="0.9808" style="stop-color:#000000;stop-opacity:0"/>
						</radialGradient>
						<path style="fill:url(#SVGID_00000176740491284169866380000011008792539928184211_);" d="M132.616,291.962
							c13.351,17.709,57.188,36.631,112.651,47.776l20.758-37.539c0,0-4.161-0.531-6.658-1.966
							c-2.126-1.222-3.512-2.904-3.512-2.904L132.616,291.962z"/>
					</g>
				</g>
			</g>
			<g>
				<path d="M522.854,443.766c-0.41,4.342-0.506,8.714-0.287,13.07c0.073,1.442,0.19,2.922,0.815,4.224
					c0.66,1.376,1.835,2.438,3.083,3.317c4.156,2.926,9.293,4.142,14.356,4.57c2.304,0.195,4.716,0.221,6.819-0.739
					c2.745-1.253,4.503-3.959,5.941-6.611c2.63-4.853,4.708-10.006,6.179-15.326c-1.352,1.459-3.678,1.236-5.639,0.898
					c-10.154-1.748-20.307-3.497-30.461-5.245L522.854,443.766z"/>
				
					<linearGradient id="SVGID_00000092427085392257302050000002629332280474132647_" gradientUnits="userSpaceOnUse" x1="419.328" y1="356.4046" x2="648.1992" y2="425.7964" gradientTransform="matrix(0.9865 0.1639 -0.1639 0.9865 74.977 -59.836)">
					<stop  offset="0" style="stop-color:#9A999E"/>
					<stop  offset="1" style="stop-color:#000000"/>
				</linearGradient>
				<path style="fill:url(#SVGID_00000092427085392257302050000002629332280474132647_);" d="M512.023,412.98
					c0,0,5.213,5.484,7.155,12.246c1.942,6.762,3.986,16.607,3.887,19.043c-0.098,2.437,1.843,7.359,17.06,8.048
					s17.503-1.997,19.192-4.783c1.689-2.785,14.905-26.958,18.035-32.877c3.13-5.919,9.44-18.055,9.44-18.055l-64.78,7.254
					c0,0-0.326,2.814-3.308,5.998S512.023,412.98,512.023,412.98z"/>
				
					<linearGradient id="SVGID_00000008137243300815669880000009510076168188202883_" gradientUnits="userSpaceOnUse" x1="460.2139" y1="408.1273" x2="530.5385" y2="384.9882" gradientTransform="matrix(0.9865 0.1639 -0.1639 0.9865 74.977 -59.836)">
					<stop  offset="0" style="stop-color:#9A999E"/>
					<stop  offset="1" style="stop-color:#000000"/>
				</linearGradient>
				<path style="fill:url(#SVGID_00000008137243300815669880000009510076168188202883_);" d="M523.445,405.085
					c0,0-1.888,3.979-4.075,6.068c-2.187,2.09-9.098,3.087-9.098,3.087l-48.181,7.63l0.097-6.116L523.445,405.085z"/>
				
					<radialGradient id="SVGID_00000070823048869861934970000006136737321541625269_" cx="519.2264" cy="361.5122" r="69.3827" gradientTransform="matrix(0.9991 0.0425 -0.0203 0.4779 16.4974 187.0909)" gradientUnits="userSpaceOnUse">
					<stop  offset="0.6378" style="stop-color:#4D4D4D"/>
					<stop  offset="1" style="stop-color:#000000"/>
				</radialGradient>
				<path style="fill:url(#SVGID_00000070823048869861934970000006136737321541625269_);" d="M452.282,392.338
					c0,0,14.993,1.112,32.222-0.164c17.229-1.276,27.149-2.847,32.145-5.236c4.996-2.389,10.066-7.986,15.957-10.226
					c5.768-2.193,12.007-3.064,22.376-1.8c10.368,1.263,22.23,4.614,25.96,7.074s6.566,4.771,6.866,8.5
					c0.3,3.729,0.376,6.042-3.501,9.997c-3.877,3.955-6.298,10.222-20.284,8.587c-12.411-1.45-21.745-4.764-34.462-2.968
					c-9.519,1.344-20.733,5.753-34.83,7.549c-14.096,1.797-33.115,5.535-33.115,5.535L452.282,392.338z"/>
				
					<radialGradient id="SVGID_00000139280500101095899880000011831567241180665239_" cx="569.3478" cy="341.638" r="16.2571" gradientTransform="matrix(0.9865 0.1639 -0.1639 0.9865 74.977 -59.836)" gradientUnits="userSpaceOnUse">
					<stop  offset="0" style="stop-color:#FFFFFF"/>
					<stop  offset="1" style="stop-color:#F21700"/>
				</radialGradient>
				<path style="fill:url(#SVGID_00000139280500101095899880000011831567241180665239_);" d="M582.059,374.347
					c-1.416,5.75-2.9,9.012-2.9,9.012s-2.185,0.464-4.724-0.138c-4.567-1.083-4.463-2.36-4.463-2.36s0.493-6.861,0.748-8.399
					c0.52-3.131,3.48-5.247,6.611-4.727C580.463,368.256,582.818,371.265,582.059,374.347z"/>
				<path style="fill:#211915;" d="M516.008,417.276c0.286-1.096,2.582,0.247,5.737,6.777c3.25,6.726,5.79,12.089,6.043,17.629
					c0.195,4.273-0.146,6.415-1.987,4.576s-1.214-3.014-2.093-8.359c-1.134-6.89-2.391-10.783-4.033-13.816
					C518.033,421.05,515.876,417.782,516.008,417.276z"/>
				<path style="fill:#211915;" d="M524.101,411.133c3.662,5.496,16.047,19.826,16.047,19.826s2.834,2.343,3.221-0.609
					c0.387-2.951,2.759-15.348,2.775-16.697c0.016-1.349,2.123-4.639-4.353-5.091c-6.476-0.452-7.606-0.536-10.035-0.94
					c-2.429-0.404-3.593-0.909-5.127,0.188C525.095,408.907,523.522,410.265,524.101,411.133z"/>
				<path style="fill:#211915;" d="M557.126,413.212l-3.831,21.67c0,0-1.005,3.282,0.897,4.288c1.903,1.006,4.253,2.087,6.154,0.333
					c1.901-1.754,8.572-12.833,10.584-16.638s6.745-11.527,6.148-12.086s0.335-0.634-3.058,0.412
					c-3.393,1.046-7.272,0.861-9.734,0.452C561.824,411.234,557.647,410.079,557.126,413.212z"/>
				<path style="fill:#F7F7F8;" d="M558.367,436.185c0.168-1.008,2.789-16.783,4.132-24.861c-2.314-0.389-4.965-0.567-5.373,1.888
					l-3.831,21.67c0,0-0.832,2.734,0.473,3.975C555.884,438.525,558.173,437.355,558.367,436.185z"/>
				<g>
					<path d="M532.5,380.878c-0.892,1.228,0.827,6.486,6.491,9.649c6.2,3.463,16.634,5.916,26.565,4.415
						c7-1.059,10.268-5.673,9.469-7.314c-3.195-6.562-9.219-10.42-17.74-11.677C546.482,374.356,537.438,374.08,532.5,380.878z"/>
					
						<linearGradient id="SVGID_00000115505369076280207760000015933446283206056849_" gradientUnits="userSpaceOnUse" x1="530.0031" y1="346.7403" x2="560.5583" y2="346.7403" gradientTransform="matrix(0.9865 0.1639 -0.1639 0.9865 74.977 -59.836)">
						<stop  offset="0" style="stop-color:#FFFFFF"/>
						<stop  offset="0.2525" style="stop-color:#FCFCFC"/>
						<stop  offset="0.4413" style="stop-color:#F3F2F3"/>
						<stop  offset="0.6094" style="stop-color:#E3E2E4"/>
						<stop  offset="0.7654" style="stop-color:#CCCCCE"/>
						<stop  offset="0.9117" style="stop-color:#AFAFB2"/>
						<stop  offset="1" style="stop-color:#9A999E"/>
					</linearGradient>
					<path style="fill:url(#SVGID_00000115505369076280207760000015933446283206056849_);" d="M539.294,379.15l3.619-21.777
						c0,0,1.748-4.788,15.288-2.221c13.54,2.568,14.572,7.818,14.572,7.818l-3.594,21.622c0,0,1.991,6.176-15.957,3.379
						C537.907,385.586,539.294,379.15,539.294,379.15z"/>
					<g>
						
							<radialGradient id="SVGID_00000070084859370359663050000004594347506173566346_" cx="647.6384" cy="281.6351" r="204.8984" gradientTransform="matrix(-0.9698 0.1506 -0.0465 -0.1709 1307.7552 279.4467)" gradientUnits="userSpaceOnUse">
							<stop  offset="0" style="stop-color:#000000;stop-opacity:0.6"/>
							<stop  offset="1" style="stop-color:#000000;stop-opacity:0"/>
						</radialGradient>
						<path style="fill:url(#SVGID_00000070084859370359663050000004594347506173566346_);" d="M697.981,358.011
							c-17.304-16.143-60.292-32.908-111.997-43.175l-27.79,34.217L697.981,358.011z"/>
						
							<radialGradient id="SVGID_00000030485719753860864800000009570774979045549737_" cx="553.1279" cy="342.847" r="152.8998" gradientTransform="matrix(0.9865 0.1635 -0.0526 0.3162 38.6644 155.0848)" gradientUnits="userSpaceOnUse">
							<stop  offset="0.3622" style="stop-color:#000000;stop-opacity:0"/>
							<stop  offset="1" style="stop-color:#000000;stop-opacity:0.5"/>
						</radialGradient>
						<path style="fill:url(#SVGID_00000030485719753860864800000009570774979045549737_);" d="M706.024,374.222
							c-3.582,21.542-72.102,28.448-149.403,15.639c-77.3-12.809-137.06-40.657-133.478-62.199
							c3.582-21.542,69.151-28.622,146.451-15.812S709.606,352.68,706.024,374.222z"/>
						<path d="M549.103,356.752c0,0,1.736-14.714,4.432-20.572c1.566-3.403,5.516-6.367,9.002-6.005
							c3.34,0.347,7.43,2.829,7.741,8.897c0.33,6.439-3.149,21.329-3.149,21.329s-3.534,3.064-9.421,2.086
							C551.821,361.508,549.103,356.752,549.103,356.752z"/>
						
							<radialGradient id="SVGID_00000058557457552698393710000003576599842018391991_" cx="422.5977" cy="382.7831" r="287.58" gradientTransform="matrix(0.9541 -0.2014 0.0535 0.1544 6.9247 402.9244)" gradientUnits="userSpaceOnUse">
							<stop  offset="0.2083" style="stop-color:#000000;stop-opacity:0.6"/>
							<stop  offset="0.9808" style="stop-color:#000000;stop-opacity:0"/>
						</radialGradient>
						<path style="fill:url(#SVGID_00000058557457552698393710000003576599842018391991_);" d="M427.254,339.973
							c13.431,17.223,57.328,35.779,112.801,46.861l20.548-36.259c0,0-4.16-0.536-6.663-1.939c-2.131-1.195-3.524-2.832-3.524-2.832
							L427.254,339.973z"/>
					</g>
				</g>
			</g>
			<g>
				<path d="M470.047,435.978c0.779-8.839-4.38-35.911-11.543-42.62c-7.163-6.709-9.737-7.827-13.432-14.65
					c-3.695-6.823-6.468-11.378-15.558-14.313c-9.922-3.203-15.293-1.685-23.641-3.379v0c-8.448-1.097-12.983-4.262-23.407-4.44
					c-9.55-0.163-13.648,3.251-19.351,8.512s-8.5,5.486-17.449,9.518c-8.948,4.032-22.587,27.98-24.708,36.595
					c-2.122,8.616-4.124,33.118-2.108,37.592c2.016,4.474,8.731,9.729,10.747,14.204c2.016,4.474,3.695,6.823,4.591,9.731
					c0.896,2.908,6.155,4.472,6.155,4.472l44.978,7.475l45.035,7.485c0,0,5.482,0.221,7.271-2.241
					c1.789-2.462,4.138-4.141,7.492-7.723s11.409-6.382,14.763-9.964S469.268,444.816,470.047,435.978z"/>
				<path style="fill:#404040;" d="M470.047,435.978c0.121-1.372,0.099-3.184-0.052-5.29c-4.262,10.655-13.045,19.784-23.204,25.128
					c-4.549,2.464-4.173,8.505-6.334,13.205c-0.223,1.343-2.237,2.388-3.654,2.612c-2.76,0.001-6.34-0.594-8.354,0.451
					c-14.012,5.824-27.964,6.596-41.486,2.706c-14.053-0.693-26.95-5.927-38.324-15.97c-1.567-1.64-5.148-2.235-7.759-3.129
					c-1.268-0.671-2.835-2.311-2.612-3.654c-0.525-5.146,1.785-10.742-1.722-14.544c-7.884-8.343-13.242-19.822-13.828-31.283
					c-0.824,1.944-1.431,3.651-1.76,4.989c-2.122,8.616-4.124,33.118-2.108,37.592c2.016,4.474,8.731,9.729,10.747,14.204
					c2.016,4.474,3.695,6.823,4.591,9.731c0.896,2.908,6.155,4.472,6.155,4.472l44.978,7.475l45.035,7.485
					c0,0,5.482,0.221,7.271-2.241c1.789-2.462,4.138-4.141,7.492-7.723c3.355-3.582,11.409-6.382,14.763-9.964
					C463.237,468.649,469.268,444.816,470.047,435.978z"/>
				<g>
					<path style="fill:#F21700;" d="M443.364,383.727c-0.835-4.603-3.011-10.793-5.581-15.422c-2.039-1.701-4.63-3.031-8.236-3.903
						c2.983,2.923,5.098,6.767,6.27,10.805c1.608,5.539,1.399,10.399,0.763,16.131c-0.07,0.634,0.046,2.308,0.138,2.939
						c0.122,0.841,0.536,1.607,0.942,2.353c1.741,3.194,3.483,6.388,5.224,9.582c1.102-1.071,1.148-2.797,1.097-4.333
						C443.751,395.039,444.586,390.462,443.364,383.727z"/>
					<path style="fill:#F21700;" d="M425.492,373.116c-2.224,3.473-1.764,5.924-2.019,9.556c-0.387,5.499,3.17,10.368,5.56,15.336
						c4.317,8.974,4.999,19.376,3.487,29.219c-1.512,9.843-5.1,19.242-9.019,28.397c-1.304,3.046-2.677,6.124-4.835,8.639
						s-5.241,4.43-8.554,4.43c-0.498-6.423,2.934-12.398,5.874-18.13c4.354-8.49,7.854-17.418,10.428-26.605
						c1.177-4.2,2.168-8.538,1.824-12.886c-0.367-4.637-2.227-9.006-4.055-13.283s-3.671-8.656-4.003-13.296
						c-0.332-4.639-0.036-10.896,4.285-12.618C425.04,371.647,426.198,372.014,425.492,373.116z"/>
					<path style="fill:#F21700;" d="M446.656,385.738c2.516,5.531,5.831,10.683,8.15,16.299c2.442,5.914,3.735,12.233,4.859,18.532
						c-1.066-11.75-4.065-23.316-8.796-34.123c-2.187-2.099-3.834-4.113-5.798-7.739c-0.773-1.427-1.497-2.784-2.243-4.061
						C443.755,378.452,445.034,382.172,446.656,385.738z"/>
					<path style="fill:#F21700;" d="M469.6,439.448c0.207-1.31,0.359-2.484,0.446-3.47c0.138-1.561,0.089-3.691-0.122-6.176
						c-0.654-1.332-1.462-2.588-2.42-3.722c-0.743-0.879-1.763-1.756-2.899-1.568c-0.489,1.159-0.978,2.319-1.467,3.478
						c-0.124,0.294-0.25,0.595-0.266,0.913c-0.029,0.56,0.277,1.075,0.557,1.561c1.188,2.069,2.062,4.322,3.436,6.273
						C467.602,437.784,468.531,438.75,469.6,439.448z"/>
					<path style="fill:#F21700;" d="M363.106,370.389c2.279-4.086,6.34-9.239,10.269-12.787c2.48-0.95,5.361-1.371,9.056-1.029
						c-3.768,1.801-7.013,4.754-9.428,8.196c-3.313,4.721-4.687,9.387-5.94,15.017c-0.139,0.622-0.79,2.169-1.081,2.736
						c-0.388,0.756-1.027,1.347-1.653,1.922c-2.681,2.459-5.362,4.918-8.043,7.377c-0.696-1.37-0.182-3.018,0.364-4.455
						C359.082,380.967,359.772,376.366,363.106,370.389z"/>
					<path style="fill:#F21700;" d="M383.449,366.129c0.981,4.006-0.248,6.176-1.18,9.695c-1.413,5.329-6.353,8.786-10.221,12.713
						c-6.988,7.095-10.997,16.717-12.751,26.521s-1.398,19.857-0.651,29.788c0.249,3.304,0.553,6.661,1.781,9.738
						c1.228,3.077,3.526,5.887,6.662,6.959c2.549-5.917,1.234-12.68,0.306-19.055c-1.374-9.442-1.798-19.022-1.262-28.548
						c0.245-4.355,0.71-8.781,2.442-12.783c1.847-4.269,5.021-7.801,8.133-11.257s6.274-7.003,8.088-11.286
						s3.558-10.298,0.027-13.325C384.353,364.885,383.138,364.857,383.449,366.129z"/>
					<path style="fill:#F21700;" d="M359.341,371.227c-4.17,4.42-8.973,8.222-12.984,12.787
						c-4.224,4.806-7.491,10.367-10.592,15.964c4.809-10.773,11.388-20.747,19.36-29.444c2.748-1.278,4.958-2.652,7.989-5.448
						c1.193-1.1,2.317-2.15,3.436-3.117C364.442,365.271,362.029,368.377,359.341,371.227z"/>
					<path style="fill:#F21700;" d="M320.257,414.628c0.228-1.307,0.464-2.467,0.7-3.428c0.375-1.521,1.11-3.522,2.113-5.805
						c1.05-1.048,2.22-1.976,3.493-2.739c0.988-0.592,2.237-1.091,3.251-0.546c0.088,1.255,0.175,2.511,0.263,3.766
						c0.022,0.318,0.044,0.644-0.043,0.95c-0.153,0.539-0.61,0.927-1.032,1.297c-1.793,1.574-3.349,3.423-5.28,4.824
						C322.686,413.7,321.495,414.313,320.257,414.628z"/>
				</g>
			</g>
			<g>
				
					<radialGradient id="SVGID_00000067935380723996491580000011213317130807807405_" cx="540.3994" cy="432.2905" r="107.3744" gradientTransform="matrix(0.8669 0.4985 -0.2139 0.372 161.184 25.0115)" gradientUnits="userSpaceOnUse">
					<stop  offset="0.6378" style="stop-color:#4D4D4D"/>
					<stop  offset="1" style="stop-color:#000000"/>
				</radialGradient>
				<path style="fill:url(#SVGID_00000067935380723996491580000011213317130807807405_);" d="M446.32,416.857
					c0,0,7.84,19.239,41.41,33.097s62.998,23.577,79.335,29.052c16.337,5.475,29.655,16.656,32.791,22.696
					c3.135,6.04,3.81,14.431,2.47,18.347c-1.341,3.916-0.554,11.636-10.735,10.633c-10.181-1.002-39.606-2.443-54.49-12.505
					s-15.52-14.537-24.698-21.581c-9.177-7.044-70.989-46.061-70.989-46.061s-3.137-10.179-0.681-20.809
					S446.32,416.857,446.32,416.857z"/>
				<path d="M525.088,555.361c0,0-1.508,0.973-1.806,1.291s-0.019,2.322,0.597,4.505c0.616,2.183,1.136,9.367,1.673,12.761
					c0.537,3.394,1.949,9.625,7.488,12.381c5.539,2.756,13.3,5.392,18.202,3.882s6.687-2.682,7.54-4.132
					s10.433-14.176,10.771-14.732c0.337-0.556-0.775-1.965-1.331-2.302S525.088,555.361,525.088,555.361z"/>
				<path d="M534.793,480.713c-3.181,2.538-4.05,6.839-2.208,10.518c1.911,3.818,8.061,8.883,16.788,11.529
					c10.071,3.054,18.176,3.369,24.292,2.351c5.992-0.997,10.992-3.234,11.434-6.992c0.371-3.158-1.221-6.489-3.56-9.024
					c-2.338-2.535-9.003-6.709-19.522-8.917C551.5,477.971,540.517,476.148,534.793,480.713z"/>
				
					<radialGradient id="SVGID_00000109031428254356561620000008406404805172312505_" cx="538.5846" cy="501.254" r="106.2433" gradientTransform="matrix(-0.36 0.933 -0.5761 -0.2223 1006.7552 131.8749)" gradientUnits="userSpaceOnUse">
					<stop  offset="0" style="stop-color:#9A999E"/>
					<stop  offset="1" style="stop-color:#000000"/>
				</radialGradient>
				<path style="fill:url(#SVGID_00000109031428254356561620000008406404805172312505_);" d="M505.757,480.733l-2.135,9.068
					c0,0-0.798,1.019,0.154,2.853c0.952,1.833,4.629,4.756,6.362,8.185c1.734,3.429,5.424,11.551,6.895,17.55
					c0.988,4.029,4.587,22.613,5.669,27.764c1.181,5.625,1.549,10.577,2.586,13.158c1.037,2.581,3.041,5.125,5.362,6.766
					c3.395,2.4,13.633,7.116,24.291,8.059c6.156,0.545,8.11,0.12,10.743-0.891c1.842-0.707,3.115-3.276,3.115-3.276l24.462-42.445
					c0,0-24.639-0.43-38.768-5.501s-25.325-15.831-29.131-20.652C521.556,496.551,505.757,480.733,505.757,480.733z"/>
				<path style="fill:#211915;" d="M507.546,487.837c0,0-0.571,1.592-0.024,2.909c0.548,1.318,4.129,4.672,6.867,9.42
					c2.737,4.748,3.708,7.209,4.58,12.106c0.872,4.898,2.044,11.685,2.294,13.872c0.25,2.188,0.151,4.624,0.848,5.047
					s0.722,1.193,0.595-4.5c-0.127-5.694-0.279-12.158-0.405-16.012s0.195-9.473,0.195-9.473L507.546,487.837z"/>
				<path style="fill:#211915;" d="M525.309,510.106c0,0,1.854,30.357,2.328,33.962s0.724,5.793,3.286,7.905
					c2.562,2.112,9.401,7.082,12.062,7.677c2.661,0.595,4.649-1.22,5.344-3.558c0.695-2.337,1.728-22.841,2.127-24.789
					c0.819-4.003-1.346-7.583-4.255-8.526c-4.925-1.597-6.316-2.583-11.912-6.732c-5.596-4.15-6.866-7.58-8.059-7.778
					S525.309,510.106,525.309,510.106z"/>
				<path style="fill:#F7F7F8;" d="M550.455,531.302c0.819-4.003-1.346-7.583-4.256-8.526c-3.509-1.138-5.225-1.966-7.946-3.849
					c-1.042,6.272-4.351,26.182-4.351,26.182s-1.315,5.147,4.703,9.52c6.019,4.373,6.516,3.229,7.535,2.632
					c0.669-0.392,1.69-2.122,2.74-5.568C549.488,544.882,550.153,532.778,550.455,531.302z"/>
				<path d="M586.333,532.206c-1.639,0.415-5.17,2.514-6.909,5.597c-1.739,3.084-14.581,29.619-15.748,32.031
					c-1.167,2.412-3.428,6.789-1.737,6.764s4.349-4.95,5.019-6.218c0.671-1.268,16.073-29.371,17.216-31.634
					C585.315,536.483,588.893,531.558,586.333,532.206z"/>
				<path style="fill:#1A1A1A;" d="M441.297,442.927c0,0-1.002,10.181,4.259,15.885c5.261,5.703,1.568,3.02,10.631,6.596
					c9.064,3.576,32.341,17.103,38.048,20.121c2.976,1.574,5.305,4.055,6.619,5.174c1.376,1.171,2.191-0.599,2.241-1.512
					l2.186-8.746L441.297,442.927z"/>
				
					<radialGradient id="SVGID_00000107590700438215568610000001009642304497625474_" cx="599.2428" cy="461.7318" r="20.961" gradientTransform="matrix(0.9865 0.1639 -0.1639 0.9865 74.977 -59.836)" gradientUnits="userSpaceOnUse">
					<stop  offset="0" style="stop-color:#FFFFFF"/>
					<stop  offset="1" style="stop-color:#F21700"/>
				</radialGradient>
				<path style="fill:url(#SVGID_00000107590700438215568610000001009642304497625474_);" d="M595.939,497.468
					c-0.414,2.494-4.121,12.806-4.121,12.806s-3.105,0.659-6.713-0.196c-6.49-1.539-6.342-3.354-6.342-3.354s0.7-9.749,1.064-11.935
					c0.74-4.449,4.946-7.457,9.395-6.717S596.678,493.018,595.939,497.468z"/>
				<g>
					
						<radialGradient id="SVGID_00000085936234896742531510000012637829163651040684_" cx="668.6334" cy="377.9043" r="204.8984" gradientTransform="matrix(-0.9788 0.205 -0.0418 -0.1996 1342.9016 359.5321)" gradientUnits="userSpaceOnUse">
						<stop  offset="0" style="stop-color:#FFFFFF;stop-opacity:0.9"/>
						<stop  offset="1" style="stop-color:#FFFFFF;stop-opacity:0"/>
					</radialGradient>
					<path style="fill:url(#SVGID_00000085936234896742531510000012637829163651040684_);" d="M703.394,454.596
						c-16.92-18.48-59.628-36.952-111.282-47.53l-28.91,41.033L703.394,454.596z"/>
					
						<linearGradient id="SVGID_00000034050466304269864770000002737263942400614831_" gradientUnits="userSpaceOnUse" x1="547.4894" y1="447.1181" x2="585.4496" y2="447.1181" gradientTransform="matrix(0.9865 0.1639 -0.1639 0.9865 74.977 -59.836)">
						<stop  offset="0" style="stop-color:#FFFFFF"/>
						<stop  offset="0.2878" style="stop-color:#FCFCFC"/>
						<stop  offset="0.4726" style="stop-color:#F4F4F4"/>
						<stop  offset="0.6283" style="stop-color:#E5E5E6"/>
						<stop  offset="0.7679" style="stop-color:#D0D0D2"/>
						<stop  offset="0.8955" style="stop-color:#B6B5B9"/>
						<stop  offset="1" style="stop-color:#9A999E"/>
					</linearGradient>
					<path style="fill:url(#SVGID_00000034050466304269864770000002737263942400614831_);" d="M541.01,483.893l5.284-25.338
						c0,0,2.361-3.134,4.797-3.955s9.198-1.844,15.987-0.256c6.788,1.588,11.538,4.371,13.429,6.831
						c1.891,2.461,1.818,5.668,1.818,5.668l-4.042,24.318c0,0-2.284,7.286-21.978,3.093
						C541.044,491.005,541.01,483.893,541.01,483.893z"/>
					<g>
						<path style="fill:#D8D9DD;" d="M553.748,456.294c0,0,1.911-16.689,5.106-23.306c1.856-3.844,6.612-7.158,10.849-6.7
							c4.06,0.439,9.059,3.313,9.518,10.208c0.487,7.318-3.537,24.183-3.537,24.183s-4.25,3.433-11.411,2.243
							C557.111,461.733,553.748,456.294,553.748,456.294z"/>
					</g>
					
						<radialGradient id="SVGID_00000069362452335431998590000008901608006751949995_" cx="574.2861" cy="439.0803" r="152.8998" gradientTransform="matrix(0.9865 0.1637 -0.062 0.3733 31.8994 195.6502)" gradientUnits="userSpaceOnUse">
						<stop  offset="0.3622" style="stop-color:#FFFFFF;stop-opacity:0"/>
						<stop  offset="1" style="stop-color:#FFFFFF;stop-opacity:0.6"/>
					</radialGradient>
					<path style="fill:url(#SVGID_00000069362452335431998590000008901608006751949995_);" d="M711.008,473.425
						c-4.221,25.432-73.265,35.529-150.562,22.7c-77.297-12.829-136.537-43.846-132.316-69.278
						c4.221-25.432,70.305-35.648,147.601-22.819C653.028,416.857,715.229,447.993,711.008,473.425z"/>
					
						<radialGradient id="SVGID_00000058548022218325680990000006021480898992442508_" cx="443.5928" cy="479.0522" r="287.58" gradientTransform="matrix(0.9644 -0.2643 0.0493 0.18 -17.2313 515.5746)" gradientUnits="userSpaceOnUse">
						<stop  offset="0.2083" style="stop-color:#FFFFFF"/>
						<stop  offset="0.9808" style="stop-color:#FFFFFF;stop-opacity:0"/>
					</radialGradient>
					<path style="fill:url(#SVGID_00000058548022218325680990000006021480898992442508_);" d="M431.905,441.203
						c12.997,19.863,56.567,40.413,111.983,51.841l21.692-43.224c0,0-4.164-0.51-6.638-2.088c-2.107-1.343-3.459-3.228-3.459-3.228
						L431.905,441.203z"/>
				</g>
			</g>
			<g>
				
					<radialGradient id="SVGID_00000178197920059140078490000007124686298795345801_" cx="1008.9038" cy="432.2907" r="107.3744" gradientTransform="matrix(-0.9815 0.1913 0.0821 0.4212 1206.0026 32.6236)" gradientUnits="userSpaceOnUse">
					<stop  offset="0.6378" style="stop-color:#4D4D4D"/>
					<stop  offset="1" style="stop-color:#000000"/>
				</radialGradient>
				<path style="fill:url(#SVGID_00000178197920059140078490000007124686298795345801_);" d="M349.593,400.782
					c0,0-13.642,15.669-49.889,17.923c-36.247,2.254-67.238,1.933-84.467,1.829s-33.449,6.169-38.369,10.87
					c-4.92,4.701-8.273,12.422-8.271,16.562c0.002,4.139-3.239,11.189,6.719,13.534c9.958,2.345,38.267,10.499,55.606,5.792
					c17.339-4.707,19.388-8.735,30.351-12.432c10.962-3.697,82.072-20.623,82.072-20.623s6.261-8.617,7.375-19.47
					S349.593,400.782,349.593,400.782z"/>
				
					<linearGradient id="SVGID_00000072973948044028915970000004979400721051760522_" gradientUnits="userSpaceOnUse" x1="279.7103" y1="436.7975" x2="289.252" y2="456.3146" gradientTransform="matrix(0.9865 0.1639 -0.1639 0.9865 74.977 -59.836)">
					<stop  offset="0" style="stop-color:#FFFFFF"/>
					<stop  offset="1" style="stop-color:#FFFFFF;stop-opacity:0"/>
				</linearGradient>
				<path style="opacity:0.5;fill:url(#SVGID_00000072973948044028915970000004979400721051760522_);" d="M348.847,401.545
					c-3.271,3.158-17.696,15.204-49.143,17.16c-13.669,0.85-26.589,1.334-38.306,1.601c-7.269,0.716-20.193-1.279-25.811,3.167
					c1.191,5.083,8.587,7.127,10.965,11.186c-0.161,8.319-3.495,10.046-10.407,12.182c-6.912,2.136-14.295,1.973-21.527,1.79
					c1.325,2.365,4.169,3.406,6.837,3.881c11.973,2.131,23.911-3.384,34.401-9.536c10.49-6.152,20.974-13.27,33.037-14.811
					c10.123-1.293,20.867,1.442,30.352-2.323c5.652-2.243,11.627-6.743,17.12-4.132c1.81,0.86,3.511,2.488,5.483,2.129
					c1.972-0.36,3.005-2.508,3.64-4.409C347.416,413.658,348.541,407.623,348.847,401.545z"/>
				<path d="M245.222,432.588c2.19,3.43,1.62,7.781-1.313,10.667c-3.043,2.995-10.501,5.798-19.614,5.479
					c-10.517-0.368-18.288-2.691-23.747-5.633c-5.347-2.882-9.355-6.615-8.558-10.314c0.67-3.108,3.254-5.745,6.287-7.387
					c3.033-1.642,10.69-3.436,21.356-2.123C230.3,424.589,241.282,426.416,245.222,432.588z"/>
				<path d="M230.26,506.362c0,0,1.112,1.409,1.291,1.806c0.179,0.397-0.733,2.203-2.023,4.07
					c-1.289,1.866-4.105,8.497-5.711,11.534s-4.958,8.477-11.091,9.294c-6.133,0.817-14.33,0.8-18.479-2.214
					c-4.15-3.015-5.46-4.701-5.798-6.349c-0.338-1.647-5.287-16.789-5.426-17.424c-0.139-0.635,1.369-1.608,2.004-1.747
					C185.662,505.192,230.26,506.362,230.26,506.362z"/>
				
					<radialGradient id="SVGID_00000174586375724922761020000001049155972654531746_" cx="1007.089" cy="501.2542" r="106.2433" gradientTransform="matrix(0.0388 0.9992 0.6171 -0.024 -106.7313 -518.3087)" gradientUnits="userSpaceOnUse">
					<stop  offset="0" style="stop-color:#9A999E"/>
					<stop  offset="1" style="stop-color:#000000"/>
				</radialGradient>
				<path style="fill:url(#SVGID_00000174586375724922761020000001049155972654531746_);" d="M272.69,441.998l-0.913,9.272
					c0,0,0.425,1.222-1.069,2.649c-1.494,1.427-5.918,3.003-8.668,5.687c-2.75,2.684-8.869,9.175-12.201,14.376
					c-2.238,3.493-11.655,19.913-14.344,24.438c-2.937,4.941-4.887,9.508-6.703,11.614s-4.536,3.866-7.262,4.668
					c-3.989,1.173-15.202,2.324-25.592-0.231c-6.001-1.476-7.713-2.51-9.878-4.318c-1.515-1.265-1.887-4.108-1.887-4.108
					l-9.418-48.075c0,0,23.453,7.562,38.464,7.335s29.084-6.788,34.245-10.119C252.624,451.856,272.69,441.998,272.69,441.998z"/>
				<path style="fill:#211915;" d="M268.7,448.142c0,0,0.026,1.691-0.919,2.76s-5.419,3.086-9.544,6.693
					c-4.126,3.607-5.84,5.622-8.25,9.974c-2.41,4.352-5.714,10.395-6.658,12.385c-0.944,1.99-1.639,4.327-2.435,4.501
					c-0.796,0.174-1.069,0.896,0.893-4.451c1.962-5.346,4.197-11.414,5.562-15.02s2.88-9.027,2.88-9.027L268.7,448.142z"/>
				<path style="fill:#211915;" d="M244.689,463.468c0,0-11.573,28.125-13.188,31.383c-1.615,3.258-2.558,5.247-5.666,6.417
					s-11.187,3.66-13.897,3.363s-4.004-2.659-3.906-5.095c0.098-2.437,5.753-22.172,6.006-24.145c0.52-4.053,3.726-6.74,6.785-6.691
					c5.177,0.082,6.812-0.401,13.45-2.517c6.637-2.116,8.948-4.952,10.142-4.753C245.608,461.628,244.689,463.468,244.689,463.468z"
					/>
				<path style="fill:#F7F7F8;" d="M214.038,475.392c0.52-4.053,3.726-6.74,6.785-6.691c3.689,0.058,5.58-0.171,8.764-1.072
					c-1.042,6.272-4.351,26.182-4.351,26.182s-0.42,5.296-7.53,7.487c-7.11,2.191-7.21,0.948-7.981,0.053
					c-0.506-0.587-0.912-2.555-0.792-6.155C210.561,488.554,213.847,476.885,214.038,475.392z"/>
				<path d="M179.797,464.642c1.417,0.923,4.079,4.051,4.727,7.531c0.648,3.481,4.217,32.743,4.541,35.403
					c0.324,2.66,1.048,7.533-0.544,6.962c-1.591-0.571-2.514-6.09-2.738-7.507c-0.224-1.417-5.709-32.991-6.058-35.502
					C179.376,469.018,177.584,463.201,179.797,464.642z"/>
				<path style="fill:#1A1A1A;" d="M345.914,427.075c0,0-2.345,9.958-9.168,13.653c-6.823,3.695-2.46,2.351-12.193,2.803
					c-9.733,0.452-36.134,5.722-42.511,6.732c-3.325,0.527-6.331,2.121-7.937,2.755c-1.681,0.663-1.88-1.276-1.631-2.156l0.76-8.983
					L345.914,427.075z"/>
				
					<radialGradient id="SVGID_00000170982394084609155070000014031433640018640291_" cx="195.9784" cy="462.544" r="15.8375" gradientTransform="matrix(0.9865 0.1639 -0.1639 0.9865 74.977 -59.836)" gradientUnits="userSpaceOnUse">
					<stop  offset="0" style="stop-color:#FFFFFF"/>
					<stop  offset="1" style="stop-color:#F21700"/>
				</radialGradient>
				<path style="fill:url(#SVGID_00000170982394084609155070000014031433640018640291_);" d="M181.944,428.664
					c-0.415,2.494-0.242,13.451-0.242,13.451s2.725,1.628,6.416,1.986c6.639,0.643,7.085-1.122,7.085-1.122
					s2.491-9.452,2.854-11.637c0.739-4.449-2.268-8.656-6.717-9.395C186.889,421.207,182.683,424.215,181.944,428.664z"/>
				<g>
					
						<linearGradient id="SVGID_00000156546609269544019510000003666909113073387657_" gradientUnits="userSpaceOnUse" x1="203.3678" y1="447.1181" x2="241.328" y2="447.1181" gradientTransform="matrix(0.9865 0.1639 -0.1639 0.9865 74.977 -59.836)">
						<stop  offset="0" style="stop-color:#FFFFFF"/>
						<stop  offset="0.2058" style="stop-color:#FBFBFB"/>
						<stop  offset="0.4021" style="stop-color:#F0F0F0"/>
						<stop  offset="0.5945" style="stop-color:#DDDCDE"/>
						<stop  offset="0.7845" style="stop-color:#C2C1C4"/>
						<stop  offset="0.9711" style="stop-color:#A09FA4"/>
						<stop  offset="1" style="stop-color:#9A999E"/>
					</linearGradient>
					<path style="fill:url(#SVGID_00000156546609269544019510000003666909113073387657_);" d="M238.31,433.586l3.196-25.685
						c0,0-1.22-3.729-3.259-5.294c-2.039-1.565-8.108-4.72-15.045-5.413c-6.937-0.693-12.332,0.403-14.917,2.12
						c-2.585,1.717-3.553,4.775-3.553,4.775l-4.042,24.318c0,0-0.195,7.633,19.796,10.036
						C235.978,440.304,238.31,433.586,238.31,433.586z"/>
					<g>
						
							<radialGradient id="SVGID_00000105399295597731722180000004624181187532558513_" cx="322.2152" cy="379.2165" r="204.8984" gradientTransform="matrix(-0.9788 0.205 -0.0418 -0.1996 661.8466 375.9744)" gradientUnits="userSpaceOnUse">
							<stop  offset="0" style="stop-color:#FFFFFF;stop-opacity:0.9"/>
							<stop  offset="1" style="stop-color:#FFFFFF;stop-opacity:0"/>
						</radialGradient>
						<path style="fill:url(#SVGID_00000105399295597731722180000004624181187532558513_);" d="M361.343,399.749
							c-16.92-18.481-59.628-36.952-111.282-47.53l-28.91,41.033L361.343,399.749z"/>
						
							<radialGradient id="SVGID_00000063592903902569644250000003515587082038760841_" cx="227.8712" cy="440.9799" r="152.8998" gradientTransform="matrix(0.9865 0.1637 -0.062 0.3733 31.7061 196.8151)" gradientUnits="userSpaceOnUse">
							<stop  offset="0.3622" style="stop-color:#FFFFFF;stop-opacity:0"/>
							<stop  offset="1" style="stop-color:#FFFFFF;stop-opacity:0.6"/>
						</radialGradient>
						<path style="fill:url(#SVGID_00000063592903902569644250000003515587082038760841_);" d="M368.957,418.578
							c-4.221,25.432-73.265,35.529-150.562,22.7S81.858,397.431,86.079,372c4.221-25.432,70.305-35.648,147.601-22.819
							S373.178,393.146,368.957,418.578z"/>
						<path style="fill:#D8D9DD;" d="M235.184,403.351c0,0,3.59-16.41,2.707-23.704c-0.513-4.238-3.941-8.912-8.099-9.849
							c-3.983-0.898-9.644,0.205-12.308,6.581c-2.828,6.767-4.475,24.027-4.475,24.027s2.911,4.623,10.072,5.813
							C230.243,407.409,235.184,403.351,235.184,403.351z"/>
						
							<radialGradient id="SVGID_00000109031720095752974220000007366167382021872804_" cx="97.1746" cy="480.3644" r="287.58" gradientTransform="matrix(0.9644 -0.2643 0.0493 0.18 -25.2508 368.9219)" gradientUnits="userSpaceOnUse">
							<stop  offset="0.2083" style="stop-color:#FFFFFF"/>
							<stop  offset="0.9808" style="stop-color:#FFFFFF;stop-opacity:0"/>
						</radialGradient>
						<path style="fill:url(#SVGID_00000109031720095752974220000007366167382021872804_);" d="M89.853,386.356
							c12.997,19.863,56.567,40.413,111.983,51.841l21.692-43.224c0,0-4.165-0.51-6.638-2.088c-2.106-1.343-3.459-3.228-3.459-3.228
							L89.853,386.356z"/>
					</g>
				</g>
			</g>
		</g>
		
			<linearGradient id="SVGID_00000092422580055781185420000011858707439009437871_" gradientUnits="userSpaceOnUse" x1="416.2662" y1="391.6895" x2="412.7417" y2="495.8894" gradientTransform="matrix(0.9865 0.1639 -0.1639 0.9865 74.977 -59.836)">
			<stop  offset="0" style="stop-color:#FFFFFF"/>
			<stop  offset="1" style="stop-color:#FFFFFF;stop-opacity:0"/>
		</linearGradient>
		<path style="opacity:0.5;fill:url(#SVGID_00000092422580055781185420000011858707439009437871_);" d="M366.251,401.737
			c-7.608,16.051-6.871,35.79,1.912,51.229c0.711,1.25,1.525,2.525,2.781,3.225c1.499,0.834,3.322,0.692,5.022,0.924
			c5.405,0.736,9.807,5.979,9.595,11.43c0.375-3.644,4.892-5.199,8.554-5.134c3.663,0.066,7.717,0.798,10.68-1.356
			c2.196-1.596,3.168-4.394,5.089-6.312c2.487-2.482,6.312-3.257,8.76-5.777c3.219-3.315,4.176-7.153,6.842-10.928
			c1.763-2.497,3.92-5.677,6.923-5.108c3.004,0.569,5.443,3.744,4.694,6.708c5.436-1.82,8.902-4.298,8.902-4.298
			s8.317,3.26,9.979,5.585c2.124,2.971,8.929,1.792,10.935,1.763c-6.007-5.556-12.445-12-12.785-20.176
			c-0.085-2.038,0.228-4.099-0.11-6.111c-0.585-3.487-2.734-7.666-5.068-10.322c-3.713-4.225-13.165-16.593-12.024-9.337
			c0.422,2.685-1.781,8.51-6.242,13.272c-2.259,2.412-7.248,4.666-10.015,2.86c-0.937-0.612-1.328-1.818-2.222-2.491
			c-3.607-2.714-10.429-2.626-16.802-2.26c-1.159,0.067-1.845,0.06-4.466-0.217c-1.078-0.114-5.25-3.164-6.306-3.408
			c-11.307-2.613-15.861-6.1-24.815-1.431"/>
		
			<linearGradient id="SVGID_00000098217068110517941400000009501731054072550554_" gradientUnits="userSpaceOnUse" x1="399.4686" y1="357.115" x2="399.0004" y2="380.9656" gradientTransform="matrix(0.9865 0.1639 -0.1639 0.9865 74.977 -59.836)">
			<stop  offset="0" style="stop-color:#FFFFFF"/>
			<stop  offset="1" style="stop-color:#FFFFFF;stop-opacity:0"/>
		</linearGradient>
		<path style="opacity:0.88;fill:url(#SVGID_00000098217068110517941400000009501731054072550554_);" d="M456.636,392.903
			c0.184-0.287,0.303-0.597,0.379-0.92c-6.049-5.52-8.518-6.949-11.943-13.275c-3.695-6.823-6.468-11.378-15.558-14.313
			c-9.922-3.203-15.293-1.685-23.641-3.379c-8.448-1.097-12.983-4.262-23.407-4.44c-9.55-0.163-13.648,3.251-19.351,8.512
			c-2.865,2.643-4.997,4.014-7.543,5.236c-0.557,1.205-0.852,2.439-0.544,3.765c0.502,2.162,2.566,3.668,4.713,4.231
			c7.295,1.911,14.125-4.833,21.656-5.232c7.111-0.377,13.386,4.92,20.48,5.537c7.034,0.611,13.918-3.455,20.917-2.525
			c11.311,1.503,17.599,14.947,28.615,17.921C453.254,394.517,455.606,394.511,456.636,392.903z"/>
		
			<linearGradient id="SVGID_00000146479168372761759510000006158022793188731032_" gradientUnits="userSpaceOnUse" x1="264.3088" y1="390.7092" x2="296.2357" y2="355.3235" gradientTransform="matrix(0.9865 0.1639 -0.1639 0.9865 74.977 -59.836)">
			<stop  offset="0" style="stop-color:#FFFFFF"/>
			<stop  offset="1" style="stop-color:#FFFFFF;stop-opacity:0"/>
		</linearGradient>
		<path style="opacity:0.35;fill:url(#SVGID_00000146479168372761759510000006158022793188731032_);" d="M279.119,358.049
			c-3.439-2.499-6.662-2.306-10.04-2.685c-5.492,0.164-11.193-1.486-16.539-3.149c-7.265-2.261-14.803-4.678-20.337-9.9
			c-3.976-3.752-6.548-9.406-6.217-14.699c-0.72,0.675-1.321,1.465-1.747,2.447c-1.49,3.432-2.31,5.595,0.079,10.592
			c2.389,4.996,2.653,11.709,16.416,14.687c12.213,2.642,22.117,2.526,33.569,8.339c8.573,4.351,17.758,12.15,30.515,18.409
			c10.91,5.353,24.758,13.209,28.543,15.374c2.297-1.991,4.747-4.231,4.339-3.95c0.18-0.124,0.335-0.253,0.502-0.38l3.702-4.731
			c0.053-0.133,0.089-0.264,0.136-0.397C319.437,386.88,297.747,370.331,279.119,358.049z"/>
		<g style="opacity:0.7;">
			
				<linearGradient id="SVGID_00000112632695765523379420000002250929994786799796_" gradientUnits="userSpaceOnUse" x1="507.5441" y1="365.3021" x2="519.4973" y2="395.6449" gradientTransform="matrix(0.9865 0.1639 -0.1639 0.9865 74.977 -59.836)">
				<stop  offset="0" style="stop-color:#FFFFFF"/>
				<stop  offset="1" style="stop-color:#FFFFFF;stop-opacity:0"/>
			</linearGradient>
			<path style="opacity:0.3;fill:url(#SVGID_00000112632695765523379420000002250929994786799796_);" d="M533.215,396.543
				c-3.962,0.198-7.685,1.84-11.361,3.332c-10.82,4.394-22.083,7.698-33.562,9.846c-3.276,0.613-6.637,1.154-9.573,2.732
				c-1.886,1.013-3.577,2.562-4.587,4.419c6.305-1.11,13.993-2.379,20.601-3.221c14.096-1.797,25.31-6.205,34.83-7.549
				c3.54-0.5,6.813-0.595,9.968-0.453c6.964-2.203,14.395-2.934,21.647-2.044c2.541,0.312,5.499,0.686,7.311-1.122
				c-9.281-1.718-18.561-3.435-27.842-5.153C538.191,396.875,535.709,396.419,533.215,396.543z"/>
			
				<linearGradient id="SVGID_00000152969663149699611010000009018041430294217372_" gradientUnits="userSpaceOnUse" x1="481.8079" y1="373.3225" x2="506.6338" y2="418.377" gradientTransform="matrix(0.9865 0.1639 -0.1639 0.9865 74.977 -59.836)">
				<stop  offset="0" style="stop-color:#FFFFFF"/>
				<stop  offset="1" style="stop-color:#FFFFFF;stop-opacity:0"/>
			</linearGradient>
			<path style="opacity:0.75;fill:url(#SVGID_00000152969663149699611010000009018041430294217372_);" d="M511.189,398.707
				c1.766-0.367,3.946-1.202,3.98-3.005c0.014-0.728-0.362-1.4-0.726-2.03c-0.962-1.664-1.925-3.327-2.887-4.991
				c-5.714,1.461-14.408,2.557-27.052,3.494c-6.104,0.452-11.923,0.604-16.898,0.612c1.086,1.493,2.112,3.059,2.473,4.856
				c0.231,1.153,0.183,2.37,0.611,3.465c0.652,1.667,2.306,2.752,4.012,3.296c3.502,1.117,7.293,0.376,10.892-0.372
				C494.125,402.256,502.657,400.482,511.189,398.707z"/>
			
				<linearGradient id="SVGID_00000145051052409408352470000006725717474078610056_" gradientUnits="userSpaceOnUse" x1="488.2469" y1="381.3443" x2="614.6315" y2="325.1733" gradientTransform="matrix(0.9865 0.1639 -0.1639 0.9865 74.977 -59.836)">
				<stop  offset="0" style="stop-color:#FFFFFF"/>
				<stop  offset="1" style="stop-color:#FFFFFF;stop-opacity:0"/>
			</linearGradient>
			<path style="opacity:0.7;fill:url(#SVGID_00000145051052409408352470000006725717474078610056_);" d="M520.158,391.905
				c6.196-1.342,12.782-0.828,18.696,1.458c-1.327-2.887-4.444-4.854-7.621-4.809c-0.903,0.013-1.914,0.142-2.61-0.434
				c-0.63-0.521-0.752-1.426-0.797-2.241c-0.126-2.303,0.019-4.617,0.403-6.891c-3.922,2.508-7.526,5.832-11.08,7.676
				C517.57,388.668,518.627,390.542,520.158,391.905z"/>
			
				<linearGradient id="SVGID_00000160156374192996115610000012303735391953073076_" gradientUnits="userSpaceOnUse" x1="543.6097" y1="362.0551" x2="604.2953" y2="364.8136" gradientTransform="matrix(0.9865 0.1639 -0.1639 0.9865 74.977 -59.836)">
				<stop  offset="0" style="stop-color:#FFFFFF"/>
				<stop  offset="1" style="stop-color:#FFFFFF;stop-opacity:0"/>
			</linearGradient>
			<path style="opacity:0.5;fill:url(#SVGID_00000160156374192996115610000012303735391953073076_);" d="M587.809,390.486
				c-0.251-3.117-2.285-5.242-5.12-7.292c0.067,2.06-0.887,4.326-2.263,5.955c-2.2,2.603-5.265,4.449-7.103,7.319
				c3.629-0.055,7.235-1.195,10.237-3.236c-0.274,3.33-1.76,6.547-4.118,8.913c2.133-0.652,4.146-1.645,5.989-2.894
				C588.158,396.011,588.077,393.81,587.809,390.486z"/>
		</g>
		
			<linearGradient id="SVGID_00000047032374247585660390000011905348325374635665_" gradientUnits="userSpaceOnUse" x1="571.9043" y1="465.4404" x2="601.3276" y2="510.4949" gradientTransform="matrix(0.9865 0.1639 -0.1639 0.9865 74.977 -59.836)">
			<stop  offset="0" style="stop-color:#FFFFFF"/>
			<stop  offset="1" style="stop-color:#FFFFFF;stop-opacity:0"/>
		</linearGradient>
		<path style="opacity:0.5;fill:url(#SVGID_00000047032374247585660390000011905348325374635665_);" d="M602.325,520.049
			c0.928-2.709,0.889-7.56-0.261-12.293c-1.164,1.335-2.583,2.468-4.131,3.286c-4.384,2.316-9.541,2.611-14.497,2.478
			c-15.432-0.414-30.75-4.561-44.283-11.988c-0.713-0.391-1.479-0.804-2.288-0.723c-1.72,0.173-2.416,2.562-1.603,4.087
			c0.814,1.525,2.495,2.34,4.069,3.056c11.365,5.173,22.812,10.375,34.939,13.349c8.903,2.183,18.267,3.103,27.308,1.89
			C601.82,522.046,602.018,520.947,602.325,520.049z"/>
		
			<linearGradient id="SVGID_00000160880790057392928910000009689517154677990050_" gradientUnits="userSpaceOnUse" x1="538.0789" y1="464.8999" x2="504.0581" y2="421.6844" gradientTransform="matrix(0.9865 0.1639 -0.1639 0.9865 74.977 -59.836)">
			<stop  offset="0" style="stop-color:#FFFFFF"/>
			<stop  offset="1" style="stop-color:#FFFFFF;stop-opacity:0"/>
		</linearGradient>
		<path style="opacity:0.56;fill:url(#SVGID_00000160880790057392928910000009689517154677990050_);" d="M507.291,457.765
			c0.01,0.181,0.035,0.362,0.026,0.544c-0.126,2.663-2.329,5.078-4.969,5.449c-2.064,0.29-4.714-0.306-5.805,1.469
			c-1.164,1.894,0.899,4.1,2.751,5.33c8.767,5.825,18.085,10.82,27.788,14.897c-1.395-2.564,0.311-5.864,2.738-7.485
			c2.427-1.622,5.404-2.135,8.127-3.183c2.045-0.787,4.099-2.081,5.202-3.894C532.673,467.251,520.502,462.872,507.291,457.765z"/>
	</g>
</g>
</svg>
