<?xml version="1.0" encoding="utf-8"?>
<!-- Generator: Adobe Illustrator 27.5.0, SVG Export Plug-In . SVG Version: 6.00 Build 0)  -->
<svg version="1.1" id="Layer_1" xmlns="http://www.w3.org/2000/svg" xmlns:xlink="http://www.w3.org/1999/xlink" x="0px" y="0px"
	 viewBox="0 0 2000 2000" style="enable-background:new 0 0 2000 2000;" xml:space="preserve">
<rect style="fill:#FFFFFF;" width="2000" height="2000"/>
<g>
	<rect y="98.812" style="fill:#FCBA00;" width="2000" height="94.188"/>
	<g>
		<g>
			<path style="fill:#231F20;" d="M265.528,125.965h12.091c7.644,0,11.396,4.239,11.396,12.021v24.599
				c0,7.783-3.752,12.021-11.396,12.021h-12.091V125.965z M273.172,132.914v34.745h4.308c2.432,0,3.892-1.251,3.892-4.725V137.64
				c0-3.475-1.46-4.726-3.892-4.726H273.172z"/>
			<path style="fill:#231F20;" d="M296.727,137.64c0-7.783,4.1-12.23,11.604-12.23c7.505,0,11.605,4.447,11.605,12.23v25.294
				c0,7.782-4.1,12.23-11.605,12.23c-7.505,0-11.604-4.447-11.604-12.23V137.64z M304.371,163.42c0,3.474,1.529,4.794,3.961,4.794
				c2.432,0,3.961-1.32,3.961-4.794v-26.267c0-3.475-1.529-4.795-3.961-4.795c-2.432,0-3.961,1.32-3.961,4.795V163.42z"/>
			<path style="fill:#231F20;" d="M349.397,139.377v35.23h-6.879v-48.642h9.589l7.853,29.116v-29.116h6.81v48.642h-7.852
				L349.397,139.377z"/>
			<path style="fill:#231F20;" d="M375.107,137.64c0-7.783,4.1-12.23,11.604-12.23c7.505,0,11.604,4.447,11.604,12.23v25.294
				c0,7.782-4.1,12.23-11.604,12.23c-7.505,0-11.604-4.447-11.604-12.23V137.64z M382.75,163.42c0,3.474,1.529,4.794,3.961,4.794
				c2.432,0,3.961-1.32,3.961-4.794v-26.267c0-3.475-1.529-4.795-3.961-4.795c-2.432,0-3.961,1.32-3.961,4.795V163.42z"/>
			<path style="fill:#231F20;" d="M404.499,125.965h23.626v6.949h-7.991v41.693h-7.644v-41.693h-7.991V125.965z"/>
			<path style="fill:#231F20;" d="M456.822,146.464h10.493v6.949h-10.493v14.245h13.203v6.949h-20.847v-48.642h20.847v6.949h-13.203
				V146.464z"/>
			<path style="fill:#231F20;" d="M485.033,139.377v35.23h-6.879v-48.642h9.589l7.852,29.116v-29.116h6.81v48.642h-7.852
				L485.033,139.377z"/>
			<path style="fill:#231F20;" d="M509.144,125.965h23.626v6.949h-7.991v41.693h-7.644v-41.693h-7.991V125.965z"/>
			<path style="fill:#231F20;" d="M547.222,146.464h10.493v6.949h-10.493v14.245h13.203v6.949h-20.846v-48.642h20.846v6.949h-13.203
				V146.464z"/>
			<path style="fill:#231F20;" d="M584.606,174.607c-0.417-1.251-0.695-2.015-0.695-5.976v-7.644c0-4.517-1.529-6.185-5.003-6.185
				h-2.641v19.804h-7.644v-48.642h11.535c7.922,0,11.327,3.683,11.327,11.188v3.822c0,5.003-1.598,8.269-5.003,9.867
				c3.822,1.598,5.073,5.281,5.073,10.354v7.504c0,2.363,0.069,4.1,0.833,5.907H584.606z M576.268,132.914v14.94h2.988
				c2.849,0,4.586-1.251,4.586-5.142v-4.795c0-3.475-1.181-5.003-3.892-5.003H576.268z"/>
		</g>
		<g>
			<polygon style="fill:#231F20;" points="81,193 38.5,193 89,98.812 131.5,98.812 			"/>
			<polygon style="fill:#231F20;" points="141,193 98.5,193 149,98.812 191.5,98.812 			"/>
			<polygon style="fill:#231F20;" points="201,193 158.5,193 209,98.812 251.5,98.812 			"/>
			<polygon style="fill:#231F20;" points="651,193 608.5,193 659,98.812 701.5,98.812 			"/>
			<polygon style="fill:#231F20;" points="711,193 668.5,193 719,98.812 761.5,98.812 			"/>
			<polygon style="fill:#231F20;" points="771,193 728.5,193 779,98.812 821.5,98.812 			"/>
		</g>
		<g>
			<path style="fill:#231F20;" d="M835.528,125.965h12.091c7.644,0,11.396,4.239,11.396,12.021v24.599
				c0,7.783-3.752,12.021-11.396,12.021h-12.091V125.965z M843.172,132.914v34.745h4.308c2.432,0,3.892-1.251,3.892-4.725V137.64
				c0-3.475-1.46-4.726-3.892-4.726H843.172z"/>
			<path style="fill:#231F20;" d="M866.727,137.64c0-7.783,4.1-12.23,11.604-12.23c7.505,0,11.604,4.447,11.604,12.23v25.294
				c0,7.782-4.1,12.23-11.604,12.23c-7.505,0-11.604-4.447-11.604-12.23V137.64z M874.371,163.42c0,3.474,1.529,4.794,3.961,4.794
				c2.432,0,3.961-1.32,3.961-4.794v-26.267c0-3.475-1.529-4.795-3.961-4.795c-2.432,0-3.961,1.32-3.961,4.795V163.42z"/>
			<path style="fill:#231F20;" d="M919.397,139.377v35.23h-6.879v-48.642h9.589l7.853,29.116v-29.116h6.809v48.642h-7.852
				L919.397,139.377z"/>
			<path style="fill:#231F20;" d="M945.107,137.64c0-7.783,4.1-12.23,11.604-12.23s11.604,4.447,11.604,12.23v25.294
				c0,7.782-4.1,12.23-11.604,12.23s-11.604-4.447-11.604-12.23V137.64z M952.75,163.42c0,3.474,1.529,4.794,3.961,4.794
				c2.432,0,3.961-1.32,3.961-4.794v-26.267c0-3.475-1.529-4.795-3.961-4.795c-2.432,0-3.961,1.32-3.961,4.795V163.42z"/>
			<path style="fill:#231F20;" d="M974.499,125.965h23.626v6.949h-7.991v41.693h-7.644v-41.693h-7.991V125.965z"/>
			<path style="fill:#231F20;" d="M1026.822,146.464h10.492v6.949h-10.492v14.245h13.203v6.949h-20.848v-48.642h20.848v6.949
				h-13.203V146.464z"/>
			<path style="fill:#231F20;" d="M1055.033,139.377v35.23h-6.879v-48.642h9.589l7.853,29.116v-29.116h6.81v48.642h-7.853
				L1055.033,139.377z"/>
			<path style="fill:#231F20;" d="M1079.145,125.965h23.625v6.949h-7.99v41.693h-7.645v-41.693h-7.99V125.965z"/>
			<path style="fill:#231F20;" d="M1117.223,146.464h10.492v6.949h-10.492v14.245h13.202v6.949h-20.847v-48.642h20.847v6.949
				h-13.202V146.464z"/>
			<path style="fill:#231F20;" d="M1154.605,174.607c-0.416-1.251-0.694-2.015-0.694-5.976v-7.644c0-4.517-1.528-6.185-5.003-6.185
				h-2.641v19.804h-7.645v-48.642h11.535c7.922,0,11.327,3.683,11.327,11.188v3.822c0,5.003-1.599,8.269-5.003,9.867
				c3.822,1.598,5.072,5.281,5.072,10.354v7.504c0,2.363,0.07,4.1,0.834,5.907H1154.605z M1146.268,132.914v14.94h2.988
				c2.849,0,4.586-1.251,4.586-5.142v-4.795c0-3.475-1.182-5.003-3.892-5.003H1146.268z"/>
		</g>
		<g>
			<polygon style="fill:#231F20;" points="1221,193 1178.5,193 1229,98.812 1271.5,98.812 			"/>
			<polygon style="fill:#231F20;" points="1281,193 1238.5,193 1289,98.812 1331.5,98.812 			"/>
			<polygon style="fill:#231F20;" points="1341,193 1298.5,193 1349,98.812 1391.5,98.812 			"/>
		</g>
		<g>
			<path style="fill:#231F20;" d="M1405.527,125.965h12.092c7.644,0,11.396,4.239,11.396,12.021v24.599
				c0,7.783-3.753,12.021-11.396,12.021h-12.092V125.965z M1413.172,132.914v34.745h4.309c2.432,0,3.891-1.251,3.891-4.725V137.64
				c0-3.475-1.459-4.726-3.891-4.726H1413.172z"/>
			<path style="fill:#231F20;" d="M1436.727,137.64c0-7.783,4.1-12.23,11.605-12.23c7.504,0,11.604,4.447,11.604,12.23v25.294
				c0,7.782-4.1,12.23-11.604,12.23c-7.506,0-11.605-4.447-11.605-12.23V137.64z M1444.371,163.42c0,3.474,1.528,4.794,3.961,4.794
				c2.432,0,3.961-1.32,3.961-4.794v-26.267c0-3.475-1.529-4.795-3.961-4.795c-2.433,0-3.961,1.32-3.961,4.795V163.42z"/>
			<path style="fill:#231F20;" d="M1489.397,139.377v35.23h-6.88v-48.642h9.59l7.853,29.116v-29.116h6.81v48.642h-7.852
				L1489.397,139.377z"/>
			<path style="fill:#231F20;" d="M1515.107,137.64c0-7.783,4.1-12.23,11.604-12.23c7.506,0,11.605,4.447,11.605,12.23v25.294
				c0,7.782-4.1,12.23-11.605,12.23c-7.504,0-11.604-4.447-11.604-12.23V137.64z M1522.75,163.42c0,3.474,1.529,4.794,3.961,4.794
				c2.433,0,3.961-1.32,3.961-4.794v-26.267c0-3.475-1.528-4.795-3.961-4.795c-2.432,0-3.961,1.32-3.961,4.795V163.42z"/>
			<path style="fill:#231F20;" d="M1544.5,125.965h23.625v6.949h-7.99v41.693h-7.645v-41.693h-7.99V125.965z"/>
			<path style="fill:#231F20;" d="M1596.822,146.464h10.492v6.949h-10.492v14.245h13.203v6.949h-20.848v-48.642h20.848v6.949
				h-13.203V146.464z"/>
			<path style="fill:#231F20;" d="M1625.033,139.377v35.23h-6.879v-48.642h9.589l7.853,29.116v-29.116h6.81v48.642h-7.853
				L1625.033,139.377z"/>
			<path style="fill:#231F20;" d="M1649.145,125.965h23.625v6.949h-7.99v41.693h-7.645v-41.693h-7.99V125.965z"/>
			<path style="fill:#231F20;" d="M1687.223,146.464h10.492v6.949h-10.492v14.245h13.202v6.949h-20.847v-48.642h20.847v6.949
				h-13.202V146.464z"/>
			<path style="fill:#231F20;" d="M1724.605,174.607c-0.416-1.251-0.694-2.015-0.694-5.976v-7.644c0-4.517-1.528-6.185-5.003-6.185
				h-2.641v19.804h-7.645v-48.642h11.535c7.922,0,11.327,3.683,11.327,11.188v3.822c0,5.003-1.599,8.269-5.003,9.867
				c3.822,1.598,5.072,5.281,5.072,10.354v7.504c0,2.363,0.07,4.1,0.834,5.907H1724.605z M1716.268,132.914v14.94h2.988
				c2.849,0,4.586-1.251,4.586-5.142v-4.795c0-3.475-1.182-5.003-3.892-5.003H1716.268z"/>
		</g>
		<g>
			<polygon style="fill:#231F20;" points="1791,193 1748.5,193 1799,98.812 1841.5,98.812 			"/>
			<polygon style="fill:#231F20;" points="1851,193 1808.5,193 1859,98.812 1901.5,98.812 			"/>
			<polygon style="fill:#231F20;" points="1911,193 1868.5,193 1919,98.812 1961.5,98.812 			"/>
		</g>
	</g>
</g>
<g>
	<rect y="293.835" style="fill:#FCBA00;" width="2000" height="94.188"/>
	<g>
		<path style="fill:#231F20;" d="M199.185,327.431c4.895,0,7.411,2.928,7.411,8.051v1.006h-4.758v-1.327
			c0-2.287-0.915-3.156-2.516-3.156s-2.516,0.869-2.516,3.156c0,6.587,9.835,7.823,9.835,16.972c0,5.124-2.562,8.052-7.502,8.052
			c-4.941,0-7.503-2.928-7.503-8.052v-1.967h4.757v2.287c0,2.288,1.006,3.111,2.608,3.111c1.601,0,2.607-0.823,2.607-3.111
			c0-6.587-9.835-7.822-9.835-16.972C191.774,330.359,194.29,327.431,199.185,327.431z"/>
		<path style="fill:#231F20;" d="M210.344,327.797h15.553v4.575h-5.261v27.447h-5.032v-27.447h-5.261V327.797z"/>
		<path style="fill:#231F20;" d="M229.965,335.482c0-5.124,2.699-8.051,7.64-8.051s7.64,2.928,7.64,8.051v16.651
			c0,5.124-2.699,8.052-7.64,8.052s-7.64-2.928-7.64-8.052V335.482z M234.997,352.454c0,2.288,1.006,3.157,2.607,3.157
			s2.607-0.869,2.607-3.157v-17.292c0-2.287-1.006-3.156-2.607-3.156s-2.607,0.869-2.607,3.156V352.454z"/>
		<path style="fill:#231F20;" d="M265.689,335.711v4.163c0,5.124-2.47,7.914-7.503,7.914h-2.379v12.031h-5.032v-32.022h7.411
			C263.219,327.797,265.689,330.588,265.689,335.711z M255.808,332.372v10.841h2.379c1.601,0,2.47-0.732,2.47-3.019v-4.803
			c0-2.288-0.869-3.019-2.47-3.019H255.808z"/>
	</g>
	<g>
		<path style="fill:#231F20;" d="M606.581,327.797h7.959c5.032,0,7.503,2.79,7.503,7.914v16.194c0,5.124-2.47,7.914-7.503,7.914
			h-7.959V327.797z M611.613,332.372v22.872h2.836c1.601,0,2.562-0.823,2.562-3.111v-16.651c0-2.287-0.96-3.11-2.562-3.11H611.613z"
			/>
		<path style="fill:#231F20;" d="M627.117,335.482c0-5.124,2.699-8.051,7.64-8.051c4.94,0,7.64,2.928,7.64,8.051v16.651
			c0,5.124-2.699,8.052-7.64,8.052c-4.94,0-7.64-2.928-7.64-8.052V335.482z M632.149,352.454c0,2.288,1.006,3.157,2.607,3.157
			c1.601,0,2.607-0.869,2.607-3.157v-17.292c0-2.287-1.006-3.156-2.607-3.156c-1.601,0-2.607,0.869-2.607,3.156V352.454z"/>
		<path style="fill:#231F20;" d="M661.788,336.626v23.193h-4.529v-32.022h6.313l5.169,19.167v-19.167h4.483v32.022h-5.169
			L661.788,336.626z"/>
		<path style="fill:#231F20;" d="M678.709,335.482c0-5.124,2.699-8.051,7.64-8.051c4.94,0,7.64,2.928,7.64,8.051v16.651
			c0,5.124-2.699,8.052-7.64,8.052c-4.94,0-7.64-2.928-7.64-8.052V335.482z M683.741,352.454c0,2.288,1.006,3.157,2.607,3.157
			c1.601,0,2.607-0.869,2.607-3.157v-17.292c0-2.287-1.006-3.156-2.607-3.156c-1.601,0-2.607,0.869-2.607,3.156V352.454z"/>
		<path style="fill:#231F20;" d="M698.057,327.797h15.553v4.575h-5.261v27.447h-5.032v-27.447h-5.261V327.797z"/>
		<path style="fill:#231F20;" d="M742.059,347.88v4.254c0,5.124-2.562,8.052-7.503,8.052c-4.94,0-7.502-2.928-7.502-8.052v-16.651
			c0-5.124,2.562-8.051,7.502-8.051c4.94,0,7.503,2.928,7.503,8.051v3.111h-4.758v-3.431c0-2.287-1.006-3.156-2.607-3.156
			c-1.601,0-2.607,0.869-2.607,3.156v17.292c0,2.288,1.006,3.111,2.607,3.111c1.601,0,2.607-0.823,2.607-3.111v-4.574H742.059z"/>
		<path style="fill:#231F20;" d="M757.929,359.819c-0.275-0.823-0.458-1.327-0.458-3.934v-5.032c0-2.973-1.006-4.071-3.294-4.071
			h-1.738v13.038h-5.032v-32.022h7.594c5.215,0,7.457,2.424,7.457,7.365v2.516c0,3.294-1.052,5.444-3.294,6.496
			c2.516,1.052,3.339,3.477,3.339,6.816v4.941c0,1.555,0.046,2.699,0.549,3.888H757.929z M752.439,332.372v9.835h1.967
			c1.875,0,3.019-0.823,3.019-3.385v-3.156c0-2.287-0.778-3.293-2.562-3.293H752.439z"/>
		<path style="fill:#231F20;" d="M767.669,335.482c0-5.124,2.699-8.051,7.64-8.051s7.64,2.928,7.64,8.051v16.651
			c0,5.124-2.699,8.052-7.64,8.052s-7.64-2.928-7.64-8.052V335.482z M772.701,352.454c0,2.288,1.006,3.157,2.607,3.157
			c1.601,0,2.607-0.869,2.607-3.157v-17.292c0-2.287-1.006-3.156-2.607-3.156c-1.601,0-2.607,0.869-2.607,3.156V352.454z"/>
		<path style="fill:#231F20;" d="M795.25,327.431c4.895,0,7.411,2.928,7.411,8.051v1.006h-4.758v-1.327
			c0-2.287-0.915-3.156-2.516-3.156c-1.601,0-2.516,0.869-2.516,3.156c0,6.587,9.835,7.823,9.835,16.972
			c0,5.124-2.561,8.052-7.502,8.052c-4.941,0-7.503-2.928-7.503-8.052v-1.967h4.757v2.287c0,2.288,1.006,3.111,2.607,3.111
			c1.602,0,2.608-0.823,2.608-3.111c0-6.587-9.836-7.822-9.836-16.972C787.84,330.359,790.356,327.431,795.25,327.431z"/>
		<path style="fill:#231F20;" d="M814.644,327.431c4.895,0,7.411,2.928,7.411,8.051v1.006h-4.758v-1.327
			c0-2.287-0.915-3.156-2.516-3.156c-1.601,0-2.516,0.869-2.516,3.156c0,6.587,9.836,7.823,9.836,16.972
			c0,5.124-2.562,8.052-7.502,8.052c-4.941,0-7.502-2.928-7.502-8.052v-1.967h4.757v2.287c0,2.288,1.006,3.111,2.608,3.111
			c1.601,0,2.607-0.823,2.607-3.111c0-6.587-9.836-7.822-9.836-16.972C807.233,330.359,809.749,327.431,814.644,327.431z"/>
	</g>
	<g>
		<g>
			<g>
				<polygon style="fill:#231F20;" points="85.408,340.928 71.42,367.014 68.788,371.925 40.813,371.925 57.433,340.928 
					40.813,309.925 68.788,309.925 71.42,314.842 				"/>
			</g>
		</g>
		<g>
			<g>
				<polygon style="fill:#231F20;" points="126.877,340.928 112.889,367.014 110.256,371.925 82.281,371.925 98.902,340.928 
					82.281,309.925 110.256,309.925 112.889,314.842 				"/>
			</g>
		</g>
		<g>
			<g>
				<polygon style="fill:#231F20;" points="168.346,340.928 154.358,367.014 151.726,371.925 123.75,371.925 140.371,340.928 
					123.75,309.925 151.726,309.925 154.358,314.842 				"/>
			</g>
		</g>
	</g>
	<g>
		<g>
			<g>
				<polygon style="fill:#231F20;" points="373.88,340.928 387.868,367.014 390.5,371.925 418.476,371.925 401.855,340.928 
					418.476,309.925 390.5,309.925 387.868,314.842 				"/>
			</g>
		</g>
		<g>
			<g>
				<polygon style="fill:#231F20;" points="332.411,340.928 346.399,367.014 349.032,371.925 377.007,371.925 360.386,340.928 
					377.007,309.925 349.032,309.925 346.399,314.842 				"/>
			</g>
		</g>
		<g>
			<g>
				<polygon style="fill:#231F20;" points="290.942,340.928 304.93,367.014 307.563,371.925 335.538,371.925 318.917,340.928 
					335.538,309.925 307.563,309.925 304.93,314.842 				"/>
			</g>
		</g>
	</g>
	<g>
		<g>
			<g>
				<g>
					<polygon style="fill:#231F20;" points="488.578,340.928 474.59,367.014 471.957,371.925 443.982,371.925 460.603,340.928 
						443.982,309.925 471.957,309.925 474.59,314.842 					"/>
				</g>
			</g>
			<g>
				<g>
					<polygon style="fill:#231F20;" points="530.047,340.928 516.059,367.014 513.426,371.925 485.451,371.925 502.072,340.928 
						485.451,309.925 513.426,309.925 516.059,314.842 					"/>
				</g>
			</g>
			<g>
				<g>
					<polygon style="fill:#231F20;" points="571.516,340.928 557.528,367.014 554.896,371.925 526.92,371.925 543.54,340.928 
						526.92,309.925 554.896,309.925 557.528,314.842 					"/>
				</g>
			</g>
		</g>
		<g>
			<g>
				<g>
					<polygon style="fill:#231F20;" points="941.609,340.928 955.597,367.014 958.229,371.925 986.205,371.925 969.584,340.928 
						986.205,309.925 958.229,309.925 955.597,314.842 					"/>
				</g>
			</g>
			<g>
				<g>
					<polygon style="fill:#231F20;" points="900.14,340.928 914.128,367.014 916.761,371.925 944.736,371.925 928.115,340.928 
						944.736,309.925 916.761,309.925 914.128,314.842 					"/>
				</g>
			</g>
			<g>
				<g>
					<polygon style="fill:#231F20;" points="858.671,340.928 872.659,367.014 875.292,371.925 903.267,371.925 886.646,340.928 
						903.267,309.925 875.292,309.925 872.659,314.842 					"/>
				</g>
			</g>
		</g>
	</g>
	<g>
		<path style="fill:#231F20;" d="M1166.792,327.431c4.895,0,7.41,2.928,7.41,8.051v1.006h-4.757v-1.327
			c0-2.287-0.915-3.156-2.517-3.156c-1.601,0-2.516,0.869-2.516,3.156c0,6.587,9.835,7.823,9.835,16.972
			c0,5.124-2.562,8.052-7.502,8.052s-7.503-2.928-7.503-8.052v-1.967h4.758v2.287c0,2.288,1.007,3.111,2.607,3.111
			c1.602,0,2.607-0.823,2.607-3.111c0-6.587-9.835-7.822-9.835-16.972C1159.381,330.359,1161.896,327.431,1166.792,327.431z"/>
		<path style="fill:#231F20;" d="M1177.95,327.797h15.554v4.575h-5.261v27.447h-5.032v-27.447h-5.261V327.797z"/>
		<path style="fill:#231F20;" d="M1197.571,335.482c0-5.124,2.699-8.051,7.64-8.051s7.64,2.928,7.64,8.051v16.651
			c0,5.124-2.699,8.052-7.64,8.052s-7.64-2.928-7.64-8.052V335.482z M1202.604,352.454c0,2.288,1.007,3.157,2.607,3.157
			c1.602,0,2.607-0.869,2.607-3.157v-17.292c0-2.287-1.006-3.156-2.607-3.156c-1.601,0-2.607,0.869-2.607,3.156V352.454z"/>
		<path style="fill:#231F20;" d="M1233.296,335.711v4.163c0,5.124-2.471,7.914-7.503,7.914h-2.378v12.031h-5.032v-32.022h7.41
			C1230.825,327.797,1233.296,330.588,1233.296,335.711z M1223.415,332.372v10.841h2.378c1.602,0,2.471-0.732,2.471-3.019v-4.803
			c0-2.288-0.869-3.019-2.471-3.019H1223.415z"/>
	</g>
	<g>
		<path style="fill:#231F20;" d="M1574.189,327.797h7.96c5.031,0,7.502,2.79,7.502,7.914v16.194c0,5.124-2.471,7.914-7.502,7.914
			h-7.96V327.797z M1579.222,332.372v22.872h2.836c1.601,0,2.562-0.823,2.562-3.111v-16.651c0-2.287-0.961-3.11-2.562-3.11H1579.222
			z"/>
		<path style="fill:#231F20;" d="M1594.726,335.482c0-5.124,2.699-8.051,7.64-8.051s7.64,2.928,7.64,8.051v16.651
			c0,5.124-2.699,8.052-7.64,8.052s-7.64-2.928-7.64-8.052V335.482z M1599.758,352.454c0,2.288,1.007,3.157,2.607,3.157
			c1.602,0,2.607-0.869,2.607-3.157v-17.292c0-2.287-1.006-3.156-2.607-3.156c-1.601,0-2.607,0.869-2.607,3.156V352.454z"/>
		<path style="fill:#231F20;" d="M1629.396,336.626v23.193h-4.528v-32.022h6.313l5.17,19.167v-19.167h4.482v32.022h-5.169
			L1629.396,336.626z"/>
		<path style="fill:#231F20;" d="M1646.317,335.482c0-5.124,2.699-8.051,7.64-8.051s7.64,2.928,7.64,8.051v16.651
			c0,5.124-2.699,8.052-7.64,8.052s-7.64-2.928-7.64-8.052V335.482z M1651.35,352.454c0,2.288,1.007,3.157,2.607,3.157
			c1.602,0,2.607-0.869,2.607-3.157v-17.292c0-2.287-1.006-3.156-2.607-3.156c-1.601,0-2.607,0.869-2.607,3.156V352.454z"/>
		<path style="fill:#231F20;" d="M1665.665,327.797h15.554v4.575h-5.261v27.447h-5.032v-27.447h-5.261V327.797z"/>
		<path style="fill:#231F20;" d="M1709.667,347.88v4.254c0,5.124-2.562,8.052-7.502,8.052c-4.941,0-7.503-2.928-7.503-8.052v-16.651
			c0-5.124,2.562-8.051,7.503-8.051c4.94,0,7.502,2.928,7.502,8.051v3.111h-4.758v-3.431c0-2.287-1.006-3.156-2.607-3.156
			c-1.601,0-2.607,0.869-2.607,3.156v17.292c0,2.288,1.007,3.111,2.607,3.111c1.602,0,2.607-0.823,2.607-3.111v-4.574H1709.667z"/>
		<path style="fill:#231F20;" d="M1725.537,359.819c-0.274-0.823-0.458-1.327-0.458-3.934v-5.032c0-2.973-1.006-4.071-3.293-4.071
			h-1.738v13.038h-5.032v-32.022h7.594c5.215,0,7.456,2.424,7.456,7.365v2.516c0,3.294-1.052,5.444-3.293,6.496
			c2.516,1.052,3.339,3.477,3.339,6.816v4.941c0,1.555,0.046,2.699,0.549,3.888H1725.537z M1720.048,332.372v9.835h1.967
			c1.875,0,3.02-0.823,3.02-3.385v-3.156c0-2.287-0.778-3.293-2.563-3.293H1720.048z"/>
		<path style="fill:#231F20;" d="M1735.277,335.482c0-5.124,2.699-8.051,7.64-8.051s7.64,2.928,7.64,8.051v16.651
			c0,5.124-2.699,8.052-7.64,8.052s-7.64-2.928-7.64-8.052V335.482z M1740.31,352.454c0,2.288,1.007,3.157,2.607,3.157
			c1.602,0,2.607-0.869,2.607-3.157v-17.292c0-2.287-1.006-3.156-2.607-3.156c-1.601,0-2.607,0.869-2.607,3.156V352.454z"/>
		<path style="fill:#231F20;" d="M1762.859,327.431c4.895,0,7.41,2.928,7.41,8.051v1.006h-4.757v-1.327
			c0-2.287-0.915-3.156-2.517-3.156c-1.601,0-2.516,0.869-2.516,3.156c0,6.587,9.835,7.823,9.835,16.972
			c0,5.124-2.562,8.052-7.502,8.052s-7.503-2.928-7.503-8.052v-1.967h4.758v2.287c0,2.288,1.007,3.111,2.607,3.111
			c1.602,0,2.607-0.823,2.607-3.111c0-6.587-9.835-7.822-9.835-16.972C1755.448,330.359,1757.964,327.431,1762.859,327.431z"/>
		<path style="fill:#231F20;" d="M1782.252,327.431c4.895,0,7.41,2.928,7.41,8.051v1.006h-4.757v-1.327
			c0-2.287-0.915-3.156-2.517-3.156c-1.601,0-2.516,0.869-2.516,3.156c0,6.587,9.835,7.823,9.835,16.972
			c0,5.124-2.562,8.052-7.502,8.052s-7.503-2.928-7.503-8.052v-1.967h4.758v2.287c0,2.288,1.007,3.111,2.607,3.111
			c1.602,0,2.607-0.823,2.607-3.111c0-6.587-9.835-7.822-9.835-16.972C1774.841,330.359,1777.356,327.431,1782.252,327.431z"/>
	</g>
	<g>
		<g>
			<g>
				<polygon style="fill:#231F20;" points="1053.016,340.928 1039.028,367.014 1036.396,371.925 1008.42,371.925 1025.041,340.928 
					1008.42,309.925 1036.396,309.925 1039.028,314.842 				"/>
			</g>
		</g>
		<g>
			<g>
				<polygon style="fill:#231F20;" points="1094.484,340.928 1080.497,367.014 1077.864,371.925 1049.889,371.925 1066.51,340.928 
					1049.889,309.925 1077.864,309.925 1080.497,314.842 				"/>
			</g>
		</g>
		<g>
			<g>
				<polygon style="fill:#231F20;" points="1135.953,340.928 1121.966,367.014 1119.333,371.925 1091.358,371.925 1107.979,340.928 
					1091.358,309.925 1119.333,309.925 1121.966,314.842 				"/>
			</g>
		</g>
	</g>
	<g>
		<g>
			<g>
				<polygon style="fill:#231F20;" points="1341.488,340.928 1355.476,367.014 1358.108,371.925 1386.084,371.925 1369.463,340.928 
					1386.084,309.925 1358.108,309.925 1355.476,314.842 				"/>
			</g>
		</g>
		<g>
			<g>
				<polygon style="fill:#231F20;" points="1300.02,340.928 1314.007,367.014 1316.64,371.925 1344.614,371.925 1327.994,340.928 
					1344.614,309.925 1316.64,309.925 1314.007,314.842 				"/>
			</g>
		</g>
		<g>
			<g>
				<polygon style="fill:#231F20;" points="1258.55,340.928 1272.538,367.014 1275.171,371.925 1303.146,371.925 1286.525,340.928 
					1303.146,309.925 1275.171,309.925 1272.538,314.842 				"/>
			</g>
		</g>
	</g>
	<g>
		<g>
			<g>
				<g>
					<polygon style="fill:#231F20;" points="1456.186,340.928 1442.198,367.014 1439.565,371.925 1411.59,371.925 1428.211,340.928 
						1411.59,309.925 1439.565,309.925 1442.198,314.842 					"/>
				</g>
			</g>
			<g>
				<g>
					<polygon style="fill:#231F20;" points="1497.654,340.928 1483.667,367.014 1481.034,371.925 1453.059,371.925 1469.68,340.928 
						1453.059,309.925 1481.034,309.925 1483.667,314.842 					"/>
				</g>
			</g>
			<g>
				<g>
					<polygon style="fill:#231F20;" points="1539.123,340.928 1525.136,367.014 1522.503,371.925 1494.527,371.925 
						1511.148,340.928 1494.527,309.925 1522.503,309.925 1525.136,314.842 					"/>
				</g>
			</g>
		</g>
		<g>
			<g>
				<g>
					<polygon style="fill:#231F20;" points="1909.217,340.928 1923.204,367.014 1925.838,371.925 1953.813,371.925 
						1937.192,340.928 1953.813,309.925 1925.838,309.925 1923.204,314.842 					"/>
				</g>
			</g>
			<g>
				<g>
					<polygon style="fill:#231F20;" points="1867.748,340.928 1881.735,367.014 1884.368,371.925 1912.344,371.925 
						1895.723,340.928 1912.344,309.925 1884.368,309.925 1881.735,314.842 					"/>
				</g>
			</g>
			<g>
				<g>
					<polygon style="fill:#231F20;" points="1826.279,340.928 1840.267,367.014 1842.899,371.925 1870.875,371.925 
						1854.254,340.928 1870.875,309.925 1842.899,309.925 1840.267,314.842 					"/>
				</g>
			</g>
		</g>
	</g>
</g>
<g>
	<rect y="1809.465" style="fill:#FCBA00;" width="2000" height="94.188"/>
	<g>
		<g>
			<path style="fill:#231F20;" d="M340.608,1859.34l-2.78,25.92h-10.493l-5.42-48.643h7.435l4.1,38.358l3.683-38.358h7.366
				l3.822,38.637l3.961-38.637h6.671l-5.42,48.643h-10.146L340.608,1859.34z"/>
			<path style="fill:#231F20;" d="M389.943,1885.26h-7.713l-1.32-8.825h-9.381l-1.32,8.825h-7.019l7.783-48.643h11.188
				L389.943,1885.26z M372.501,1869.834h7.366l-3.683-24.6L372.501,1869.834z"/>
			<path style="fill:#231F20;" d="M412.942,1885.26c-0.417-1.251-0.695-2.016-0.695-5.977v-7.643c0-4.518-1.529-6.186-5.003-6.186
				h-2.641v19.805h-7.644v-48.643h11.535c7.922,0,11.327,3.684,11.327,11.188v3.821c0,5.004-1.598,8.27-5.003,9.867
				c3.822,1.599,5.073,5.281,5.073,10.354v7.505c0,2.362,0.069,4.1,0.833,5.906H412.942z M404.604,1843.566v14.94h2.988
				c2.849,0,4.586-1.251,4.586-5.142v-4.795c0-3.475-1.181-5.004-3.892-5.004H404.604z"/>
			<path style="fill:#231F20;" d="M435.177,1850.029v35.23h-6.879v-48.643h9.589l7.853,29.116v-29.116h6.81v48.643h-7.852
				L435.177,1850.029z"/>
			<path style="fill:#231F20;" d="M461.512,1836.617h7.644v48.643h-7.644V1836.617z"/>
			<path style="fill:#231F20;" d="M484.998,1850.029v35.23h-6.879v-48.643h9.589l7.853,29.116v-29.116h6.81v48.643h-7.852
				L484.998,1850.029z"/>
			<path style="fill:#231F20;" d="M522.797,1858.159h10.701v15.427c0,7.782-3.891,12.229-11.396,12.229
				c-7.505,0-11.396-4.447-11.396-12.229v-25.294c0-7.782,3.891-12.229,11.396-12.229c7.505,0,11.396,4.447,11.396,12.229v4.726
				h-7.227v-5.212c0-3.475-1.529-4.795-3.961-4.795c-2.432,0-3.961,1.32-3.961,4.795v26.267c0,3.475,1.529,4.725,3.961,4.725
				c2.432,0,3.961-1.25,3.961-4.725v-8.965h-3.475V1858.159z"/>
		</g>
		<g>
			<polygon style="fill:#231F20;" points="81,1903.652 38.5,1903.652 89,1809.465 131.5,1809.465 			"/>
			<polygon style="fill:#231F20;" points="141,1903.652 98.5,1903.652 149,1809.465 191.5,1809.465 			"/>
			<polygon style="fill:#231F20;" points="201,1903.652 158.5,1903.652 209,1809.465 251.5,1809.465 			"/>
			<polygon style="fill:#231F20;" points="651,1903.652 608.5,1903.652 659,1809.465 701.5,1809.465 			"/>
			<polygon style="fill:#231F20;" points="711,1903.652 668.5,1903.652 719,1809.465 761.5,1809.465 			"/>
			<polygon style="fill:#231F20;" points="771,1903.652 728.5,1903.652 779,1809.465 821.5,1809.465 			"/>
		</g>
		<g>
			<path style="fill:#231F20;" d="M820.415,1836.617h12.091c7.643,0,11.396,4.239,11.396,12.021v24.6
				c0,7.783-3.753,12.021-11.396,12.021h-12.091V1836.617z M828.059,1843.566v34.744h4.308c2.432,0,3.892-1.25,3.892-4.725v-25.294
				c0-3.475-1.46-4.726-3.892-4.726H828.059z"/>
			<path style="fill:#231F20;" d="M851.614,1848.292c0-7.782,4.1-12.229,11.604-12.229c7.505,0,11.604,4.447,11.604,12.229v25.294
				c0,7.782-4.1,12.229-11.604,12.229c-7.505,0-11.604-4.447-11.604-12.229V1848.292z M859.257,1874.072
				c0,3.475,1.529,4.795,3.961,4.795c2.432,0,3.961-1.32,3.961-4.795v-26.267c0-3.475-1.529-4.795-3.961-4.795
				c-2.432,0-3.961,1.32-3.961,4.795V1874.072z"/>
			<path style="fill:#231F20;" d="M904.284,1850.029v35.23h-6.879v-48.643h9.589l7.853,29.116v-29.116h6.81v48.643h-7.852
				L904.284,1850.029z"/>
			<path style="fill:#231F20;" d="M929.994,1848.292c0-7.782,4.1-12.229,11.604-12.229c7.505,0,11.604,4.447,11.604,12.229v25.294
				c0,7.782-4.1,12.229-11.604,12.229c-7.505,0-11.604-4.447-11.604-12.229V1848.292z M937.637,1874.072
				c0,3.475,1.529,4.795,3.961,4.795c2.432,0,3.961-1.32,3.961-4.795v-26.267c0-3.475-1.529-4.795-3.961-4.795
				c-2.432,0-3.961,1.32-3.961,4.795V1874.072z"/>
			<path style="fill:#231F20;" d="M959.386,1836.617h23.626v6.949h-7.991v41.693h-7.644v-41.693h-7.991V1836.617z"/>
			<path style="fill:#231F20;" d="M1014.35,1836.063c7.436,0,11.257,4.447,11.257,12.229v1.528h-7.227v-2.015
				c0-3.475-1.39-4.795-3.821-4.795c-2.433,0-3.822,1.32-3.822,4.795c0,10.007,14.939,11.882,14.939,25.78
				c0,7.782-3.891,12.229-11.396,12.229c-7.504,0-11.396-4.447-11.396-12.229v-2.988h7.228v3.475c0,3.475,1.528,4.725,3.961,4.725
				c2.432,0,3.96-1.25,3.96-4.725c0-10.006-14.94-11.883-14.94-25.78C1003.092,1840.51,1006.914,1836.063,1014.35,1836.063z"/>
			<path style="fill:#231F20;" d="M1055.693,1867.123v6.463c0,7.782-3.891,12.229-11.396,12.229
				c-7.504,0-11.396-4.447-11.396-12.229v-25.294c0-7.782,3.892-12.229,11.396-12.229c7.506,0,11.396,4.447,11.396,12.229v4.726
				h-7.227v-5.212c0-3.475-1.529-4.795-3.961-4.795s-3.961,1.32-3.961,4.795v26.267c0,3.475,1.529,4.725,3.961,4.725
				s3.961-1.25,3.961-4.725v-6.949H1055.693z"/>
			<path style="fill:#231F20;" d="M1079.805,1885.26c-0.418-1.251-0.695-2.016-0.695-5.977v-7.643c0-4.518-1.529-6.186-5.003-6.186
				h-2.641v19.805h-7.644v-48.643h11.535c7.922,0,11.326,3.684,11.326,11.188v3.821c0,5.004-1.598,8.27-5.003,9.867
				c3.821,1.599,5.073,5.281,5.073,10.354v7.505c0,2.362,0.068,4.1,0.833,5.906H1079.805z M1071.466,1843.566v14.94h2.987
				c2.85,0,4.587-1.251,4.587-5.142v-4.795c0-3.475-1.181-5.004-3.892-5.004H1071.466z"/>
			<path style="fill:#231F20;" d="M1094.604,1848.292c0-7.782,4.1-12.229,11.604-12.229s11.604,4.447,11.604,12.229v25.294
				c0,7.782-4.1,12.229-11.604,12.229s-11.604-4.447-11.604-12.229V1848.292z M1102.248,1874.072c0,3.475,1.529,4.795,3.961,4.795
				s3.961-1.32,3.961-4.795v-26.267c0-3.475-1.529-4.795-3.961-4.795s-3.961,1.32-3.961,4.795V1874.072z"/>
			<path style="fill:#231F20;" d="M1136.505,1836.063c7.435,0,11.257,4.447,11.257,12.229v1.528h-7.227v-2.015
				c0-3.475-1.39-4.795-3.822-4.795c-2.432,0-3.822,1.32-3.822,4.795c0,10.007,14.941,11.882,14.941,25.78
				c0,7.782-3.893,12.229-11.396,12.229c-7.505,0-11.396-4.447-11.396-12.229v-2.988h7.227v3.475c0,3.475,1.529,4.725,3.961,4.725
				s3.961-1.25,3.961-4.725c0-10.006-14.939-11.883-14.939-25.78C1125.248,1840.51,1129.069,1836.063,1136.505,1836.063z"/>
			<path style="fill:#231F20;" d="M1165.967,1836.063c7.436,0,11.257,4.447,11.257,12.229v1.528h-7.227v-2.015
				c0-3.475-1.39-4.795-3.821-4.795c-2.433,0-3.822,1.32-3.822,4.795c0,10.007,14.939,11.882,14.939,25.78
				c0,7.782-3.891,12.229-11.396,12.229c-7.504,0-11.396-4.447-11.396-12.229v-2.988h7.228v3.475c0,3.475,1.528,4.725,3.961,4.725
				c2.432,0,3.96-1.25,3.96-4.725c0-10.006-14.94-11.883-14.94-25.78C1154.709,1840.51,1158.531,1836.063,1165.967,1836.063z"/>
		</g>
		<g>
			<polygon style="fill:#231F20;" points="1221,1903.652 1178.5,1903.652 1229,1809.465 1271.5,1809.465 			"/>
			<polygon style="fill:#231F20;" points="1281,1903.652 1238.5,1903.652 1289,1809.465 1331.5,1809.465 			"/>
			<polygon style="fill:#231F20;" points="1341,1903.652 1298.5,1903.652 1349,1809.465 1391.5,1809.465 			"/>
		</g>
		<g>
			<path style="fill:#231F20;" d="M1480.607,1859.34l-2.779,25.92h-10.492l-5.42-48.643h7.435l4.101,38.358l3.682-38.358h7.366
				l3.821,38.637l3.961-38.637h6.672l-5.42,48.643h-10.146L1480.607,1859.34z"/>
			<path style="fill:#231F20;" d="M1529.943,1885.26h-7.714l-1.32-8.825h-9.381l-1.32,8.825h-7.019l7.783-48.643h11.188
				L1529.943,1885.26z M1512.501,1869.834h7.366l-3.684-24.6L1512.501,1869.834z"/>
			<path style="fill:#231F20;" d="M1552.942,1885.26c-0.417-1.251-0.694-2.016-0.694-5.977v-7.643c0-4.518-1.529-6.186-5.004-6.186
				h-2.641v19.805h-7.643v-48.643h11.534c7.922,0,11.327,3.684,11.327,11.188v3.821c0,5.004-1.599,8.27-5.004,9.867
				c3.822,1.599,5.073,5.281,5.073,10.354v7.505c0,2.362,0.069,4.1,0.833,5.906H1552.942z M1544.604,1843.566v14.94h2.988
				c2.85,0,4.586-1.251,4.586-5.142v-4.795c0-3.475-1.181-5.004-3.891-5.004H1544.604z"/>
			<path style="fill:#231F20;" d="M1575.178,1850.029v35.23h-6.88v-48.643h9.589l7.854,29.116v-29.116h6.809v48.643h-7.852
				L1575.178,1850.029z"/>
			<path style="fill:#231F20;" d="M1601.512,1836.617h7.645v48.643h-7.645V1836.617z"/>
			<path style="fill:#231F20;" d="M1624.998,1850.029v35.23h-6.88v-48.643h9.589l7.854,29.116v-29.116h6.809v48.643h-7.852
				L1624.998,1850.029z"/>
			<path style="fill:#231F20;" d="M1662.797,1858.159h10.701v15.427c0,7.782-3.891,12.229-11.396,12.229
				s-11.396-4.447-11.396-12.229v-25.294c0-7.782,3.891-12.229,11.396-12.229s11.396,4.447,11.396,12.229v4.726h-7.227v-5.212
				c0-3.475-1.528-4.795-3.961-4.795c-2.432,0-3.961,1.32-3.961,4.795v26.267c0,3.475,1.529,4.725,3.961,4.725
				c2.433,0,3.961-1.25,3.961-4.725v-8.965h-3.475V1858.159z"/>
		</g>
		<g>
			<polygon style="fill:#231F20;" points="1791,1903.652 1748.5,1903.652 1799,1809.465 1841.5,1809.465 			"/>
			<polygon style="fill:#231F20;" points="1851,1903.652 1808.5,1903.652 1859,1809.465 1901.5,1809.465 			"/>
			<polygon style="fill:#231F20;" points="1911,1903.652 1868.5,1903.652 1919,1809.465 1961.5,1809.465 			"/>
		</g>
	</g>
	<rect x="178.333" y="1893" style="fill:#231F20;" width="452.667" height="10.652"/>
	<rect y="1809.465" style="fill:#231F20;" width="102.263" height="10.652"/>
	<rect x="807.667" y="1809.465" style="fill:#231F20;" width="452.667" height="10.652"/>
	<rect x="1308.333" y="1893" style="fill:#231F20;" width="452.667" height="10.652"/>
	<rect x="1937.667" y="1809.465" style="fill:#231F20;" width="62.333" height="10.652"/>
</g>
<g>
	<rect y="1611.971" style="fill:#FCBA00;" width="2000" height="94.188"/>
	<polygon style="fill:#231F20;" points="81,1706.159 38.5,1706.159 89,1611.971 131.5,1611.971 	"/>
	<polygon style="fill:#231F20;" points="141,1706.159 98.5,1706.159 149,1611.971 191.5,1611.971 	"/>
	<polygon style="fill:#231F20;" points="201,1706.159 158.5,1706.159 209,1611.971 251.5,1611.971 	"/>
	<polygon style="fill:#231F20;" points="589.25,1706.159 218.5,1706.159 269,1611.971 639.75,1611.971 	"/>
	<polygon style="fill:#231F20;" points="651,1706.159 608.5,1706.159 659,1611.971 701.5,1611.971 	"/>
	<polygon style="fill:#231F20;" points="711,1706.159 668.5,1706.159 719,1611.971 761.5,1611.971 	"/>
	<polygon style="fill:#231F20;" points="771,1706.159 728.5,1706.159 779,1611.971 821.5,1611.971 	"/>
	<g>
		<path style="fill:#231F20;" d="M868.083,1669.63v6.463c0,7.782-3.891,12.229-11.396,12.229c-7.505,0-11.396-4.447-11.396-12.229
			v-25.294c0-7.783,3.891-12.23,11.396-12.23c7.505,0,11.396,4.447,11.396,12.23v4.725h-7.227v-5.211
			c0-3.475-1.529-4.795-3.961-4.795c-2.432,0-3.961,1.32-3.961,4.795v26.267c0,3.474,1.529,4.725,3.961,4.725
			c2.432,0,3.961-1.251,3.961-4.725v-6.949H868.083z"/>
		<path style="fill:#231F20;" d="M892.194,1687.767c-0.417-1.251-0.695-2.016-0.695-5.977v-7.644c0-4.517-1.529-6.185-5.003-6.185
			h-2.641v19.805h-7.644v-48.643h11.535c7.922,0,11.327,3.684,11.327,11.188v3.821c0,5.003-1.598,8.27-5.003,9.867
			c3.822,1.599,5.073,5.281,5.073,10.354v7.504c0,2.363,0.069,4.101,0.833,5.907H892.194z M883.855,1646.073v14.94h2.988
			c2.849,0,4.586-1.251,4.586-5.143v-4.795c0-3.475-1.181-5.003-3.892-5.003H883.855z"/>
		<path style="fill:#231F20;" d="M907.619,1639.124h7.644v48.643h-7.644V1639.124z"/>
		<path style="fill:#231F20;" d="M940.486,1673.66l5.212-34.536h10.632v48.643h-7.227v-34.884l-5.281,34.884h-7.227l-5.698-34.397
			v34.397h-6.671v-48.643h10.632L940.486,1673.66z"/>
		<path style="fill:#231F20;" d="M973.004,1659.623h10.493v6.949h-10.493v14.245h13.203v6.949h-20.846v-48.643h20.846v6.949h-13.203
			V1659.623z"/>
		<path style="fill:#231F20;" d="M1018.935,1638.568c7.435,0,11.256,4.447,11.256,12.23v1.528h-7.227v-2.015
			c0-3.475-1.389-4.795-3.821-4.795c-2.433,0-3.821,1.32-3.821,4.795c0,10.006,14.939,11.882,14.939,25.78
			c0,7.782-3.892,12.229-11.397,12.229c-7.504,0-11.396-4.447-11.396-12.229v-2.988h7.227v3.475c0,3.474,1.528,4.725,3.96,4.725
			c2.433,0,3.961-1.251,3.961-4.725c0-10.007-14.94-11.883-14.94-25.78C1007.678,1643.016,1011.5,1638.568,1018.935,1638.568z"/>
		<path style="fill:#231F20;" d="M1060.279,1669.63v6.463c0,7.782-3.892,12.229-11.396,12.229s-11.396-4.447-11.396-12.229v-25.294
			c0-7.783,3.892-12.23,11.396-12.23s11.396,4.447,11.396,12.23v4.725h-7.227v-5.211c0-3.475-1.529-4.795-3.961-4.795
			c-2.433,0-3.961,1.32-3.961,4.795v26.267c0,3.474,1.528,4.725,3.961,4.725c2.432,0,3.961-1.251,3.961-4.725v-6.949H1060.279z"/>
		<path style="fill:#231F20;" d="M1076.051,1659.623h10.493v6.949h-10.493v14.245h13.203v6.949h-20.846v-48.643h20.846v6.949
			h-13.203V1659.623z"/>
		<path style="fill:#231F20;" d="M1104.263,1652.536v35.23h-6.88v-48.643h9.59l7.853,29.116v-29.116h6.81v48.643h-7.852
			L1104.263,1652.536z"/>
		<path style="fill:#231F20;" d="M1138.24,1659.623h10.493v6.949h-10.493v14.245h13.203v6.949h-20.846v-48.643h20.846v6.949h-13.203
			V1659.623z"/>
	</g>
	<g>
		<polygon style="fill:#231F20;" points="1221,1706.159 1178.5,1706.159 1229,1611.971 1271.5,1611.971 		"/>
		<polygon style="fill:#231F20;" points="1281,1706.159 1238.5,1706.159 1289,1611.971 1331.5,1611.971 		"/>
		<polygon style="fill:#231F20;" points="1341,1706.159 1298.5,1706.159 1349,1611.971 1391.5,1611.971 		"/>
	</g>
	<g>
		<polygon style="fill:#231F20;" points="1791,1706.159 1748.5,1706.159 1799,1611.971 1841.5,1611.971 		"/>
		<polygon style="fill:#231F20;" points="1851,1706.159 1808.5,1706.159 1859,1611.971 1901.5,1611.971 		"/>
		<polygon style="fill:#231F20;" points="1911,1706.159 1868.5,1706.159 1919,1611.971 1961.5,1611.971 		"/>
	</g>
	<g>
		<path style="fill:#FCBA00;" d="M265.528,1639.124h12.091c7.644,0,11.396,4.239,11.396,12.021v24.6
			c0,7.782-3.752,12.021-11.396,12.021h-12.091V1639.124z M273.172,1646.073v34.744h4.308c2.432,0,3.892-1.251,3.892-4.725v-25.294
			c0-3.475-1.46-4.726-3.892-4.726H273.172z"/>
		<path style="fill:#FCBA00;" d="M296.727,1650.799c0-7.783,4.1-12.23,11.604-12.23c7.505,0,11.605,4.447,11.605,12.23v25.294
			c0,7.782-4.1,12.229-11.605,12.229c-7.505,0-11.604-4.447-11.604-12.229V1650.799z M304.371,1676.579
			c0,3.474,1.529,4.794,3.961,4.794c2.432,0,3.961-1.32,3.961-4.794v-26.267c0-3.475-1.529-4.795-3.961-4.795
			c-2.432,0-3.961,1.32-3.961,4.795V1676.579z"/>
		<path style="fill:#FCBA00;" d="M349.397,1652.536v35.23h-6.879v-48.643h9.589l7.853,29.116v-29.116h6.81v48.643h-7.852
			L349.397,1652.536z"/>
		<path style="fill:#FCBA00;" d="M375.107,1650.799c0-7.783,4.1-12.23,11.604-12.23c7.505,0,11.604,4.447,11.604,12.23v25.294
			c0,7.782-4.1,12.229-11.604,12.229c-7.505,0-11.604-4.447-11.604-12.229V1650.799z M382.75,1676.579
			c0,3.474,1.529,4.794,3.961,4.794c2.432,0,3.961-1.32,3.961-4.794v-26.267c0-3.475-1.529-4.795-3.961-4.795
			c-2.432,0-3.961,1.32-3.961,4.795V1676.579z"/>
		<path style="fill:#FCBA00;" d="M404.499,1639.124h23.626v6.949h-7.991v41.693h-7.644v-41.693h-7.991V1639.124z"/>
		<path style="fill:#FCBA00;" d="M456.822,1659.623h10.493v6.949h-10.493v14.245h13.203v6.949h-20.847v-48.643h20.847v6.949h-13.203
			V1659.623z"/>
		<path style="fill:#FCBA00;" d="M485.033,1652.536v35.23h-6.879v-48.643h9.589l7.852,29.116v-29.116h6.81v48.643h-7.852
			L485.033,1652.536z"/>
		<path style="fill:#FCBA00;" d="M509.144,1639.124h23.626v6.949h-7.991v41.693h-7.644v-41.693h-7.991V1639.124z"/>
		<path style="fill:#FCBA00;" d="M547.222,1659.623h10.493v6.949h-10.493v14.245h13.203v6.949h-20.846v-48.643h20.846v6.949h-13.203
			V1659.623z"/>
		<path style="fill:#FCBA00;" d="M584.606,1687.767c-0.417-1.251-0.695-2.016-0.695-5.977v-7.644c0-4.517-1.529-6.185-5.003-6.185
			h-2.641v19.805h-7.644v-48.643h11.535c7.922,0,11.327,3.684,11.327,11.188v3.821c0,5.003-1.598,8.27-5.003,9.867
			c3.822,1.599,5.073,5.281,5.073,10.354v7.504c0,2.363,0.069,4.101,0.833,5.907H584.606z M576.268,1646.073v14.94h2.988
			c2.849,0,4.586-1.251,4.586-5.143v-4.795c0-3.475-1.181-5.003-3.892-5.003H576.268z"/>
	</g>
	<polygon style="fill:#231F20;" points="1729.388,1706.159 1358.638,1706.159 1409.138,1611.971 1779.888,1611.971 	"/>
	<g>
		<path style="fill:#FCBA00;" d="M1405.666,1639.124h12.091c7.644,0,11.396,4.239,11.396,12.021v24.6
			c0,7.782-3.752,12.021-11.396,12.021h-12.091V1639.124z M1413.31,1646.073v34.744h4.308c2.433,0,3.893-1.251,3.893-4.725v-25.294
			c0-3.475-1.46-4.726-3.893-4.726H1413.31z"/>
		<path style="fill:#FCBA00;" d="M1436.865,1650.799c0-7.783,4.1-12.23,11.604-12.23c7.506,0,11.605,4.447,11.605,12.23v25.294
			c0,7.782-4.1,12.229-11.605,12.229c-7.504,0-11.604-4.447-11.604-12.229V1650.799z M1444.508,1676.579
			c0,3.474,1.529,4.794,3.961,4.794c2.433,0,3.961-1.32,3.961-4.794v-26.267c0-3.475-1.528-4.795-3.961-4.795
			c-2.432,0-3.961,1.32-3.961,4.795V1676.579z"/>
		<path style="fill:#FCBA00;" d="M1489.535,1652.536v35.23h-6.879v-48.643h9.589l7.853,29.116v-29.116h6.81v48.643h-7.853
			L1489.535,1652.536z"/>
		<path style="fill:#FCBA00;" d="M1515.244,1650.799c0-7.783,4.1-12.23,11.605-12.23c7.504,0,11.604,4.447,11.604,12.23v25.294
			c0,7.782-4.1,12.229-11.604,12.229c-7.506,0-11.605-4.447-11.605-12.229V1650.799z M1522.889,1676.579
			c0,3.474,1.528,4.794,3.961,4.794c2.432,0,3.961-1.32,3.961-4.794v-26.267c0-3.475-1.529-4.795-3.961-4.795
			c-2.433,0-3.961,1.32-3.961,4.795V1676.579z"/>
		<path style="fill:#FCBA00;" d="M1544.637,1639.124h23.627v6.949h-7.992v41.693h-7.644v-41.693h-7.991V1639.124z"/>
		<path style="fill:#FCBA00;" d="M1596.96,1659.623h10.493v6.949h-10.493v14.245h13.202v6.949h-20.846v-48.643h20.846v6.949h-13.202
			V1659.623z"/>
		<path style="fill:#FCBA00;" d="M1625.171,1652.536v35.23h-6.88v-48.643h9.59l7.853,29.116v-29.116h6.81v48.643h-7.852
			L1625.171,1652.536z"/>
		<path style="fill:#FCBA00;" d="M1649.281,1639.124h23.627v6.949h-7.992v41.693h-7.644v-41.693h-7.991V1639.124z"/>
		<path style="fill:#FCBA00;" d="M1687.359,1659.623h10.493v6.949h-10.493v14.245h13.203v6.949h-20.846v-48.643h20.846v6.949
			h-13.203V1659.623z"/>
		<path style="fill:#FCBA00;" d="M1724.744,1687.767c-0.418-1.251-0.695-2.016-0.695-5.977v-7.644c0-4.517-1.529-6.185-5.003-6.185
			h-2.641v19.805h-7.644v-48.643h11.535c7.922,0,11.326,3.684,11.326,11.188v3.821c0,5.003-1.598,8.27-5.003,9.867
			c3.821,1.599,5.073,5.281,5.073,10.354v7.504c0,2.363,0.068,4.101,0.833,5.907H1724.744z M1716.405,1646.073v14.94h2.987
			c2.85,0,4.587-1.251,4.587-5.143v-4.795c0-3.475-1.181-5.003-3.892-5.003H1716.405z"/>
	</g>
</g>
<g>
	<g>
		<rect y="498.812" style="fill:#FCBA00;" width="2000" height="94.188"/>
		<polygon style="fill:#231F20;" points="101,593 58.5,593 109,498.812 151.5,498.812 		"/>
		<polygon style="fill:#231F20;" points="161,593 118.5,593 169,498.812 211.5,498.812 		"/>
		<polygon style="fill:#231F20;" points="221,593 178.5,593 229,498.812 271.5,498.812 		"/>
		<polygon style="fill:#231F20;" points="281,593 238.5,593 289,498.812 331.5,498.812 		"/>
		<polygon style="fill:#231F20;" points="341,593 298.5,593 349,498.812 391.5,498.812 		"/>
		<polygon style="fill:#231F20;" points="761,593 718.5,593 769,498.812 811.5,498.812 		"/>
		<polygon style="fill:#231F20;" points="821,593 778.5,593 829,498.812 871.5,498.812 		"/>
		<polygon style="fill:#231F20;" points="881,593 838.5,593 889,498.812 931.5,498.812 		"/>
		<polygon style="fill:#231F20;" points="941,593 898.5,593 949,498.812 991.5,498.812 		"/>
		<polygon style="fill:#231F20;" points="1001,593 958.5,593 1009,498.812 1051.5,498.812 		"/>
		<polygon style="fill:#231F20;" points="1061,593 1018.5,593 1069,498.812 1111.5,498.812 		"/>
		<polygon style="fill:#231F20;" points="401,593 358.5,593 409,498.812 451.5,498.812 		"/>
		<polygon style="fill:#231F20;" points="461,593 418.5,593 469,498.812 511.5,498.812 		"/>
		<polygon style="fill:#231F20;" points="521,593 478.5,593 529,498.812 571.5,498.812 		"/>
		<polygon style="fill:#231F20;" points="581,593 538.5,593 589,498.812 631.5,498.812 		"/>
		<polygon style="fill:#231F20;" points="641,593 598.5,593 649,498.812 691.5,498.812 		"/>
		<polygon style="fill:#231F20;" points="701,593 658.5,593 709,498.812 751.5,498.812 		"/>
		<polygon style="fill:#231F20;" points="1481,593 1438.5,593 1489,498.812 1531.5,498.812 		"/>
		<polygon style="fill:#231F20;" points="1541,593 1498.5,593 1549,498.812 1591.5,498.812 		"/>
		<polygon style="fill:#231F20;" points="1601,593 1558.5,593 1609,498.812 1651.5,498.812 		"/>
		<polygon style="fill:#231F20;" points="1661,593 1618.5,593 1669,498.812 1711.5,498.812 		"/>
		<polygon style="fill:#231F20;" points="1721,593 1678.5,593 1729,498.812 1771.5,498.812 		"/>
		<polygon style="fill:#231F20;" points="1781,593 1738.5,593 1789,498.812 1831.5,498.812 		"/>
		<polygon style="fill:#231F20;" points="1121,593 1078.5,593 1129,498.812 1171.5,498.812 		"/>
		<polygon style="fill:#231F20;" points="1181,593 1138.5,593 1189,498.812 1231.5,498.812 		"/>
		<polygon style="fill:#231F20;" points="1241,593 1198.5,593 1249,498.812 1291.5,498.812 		"/>
		<polygon style="fill:#231F20;" points="1301,593 1258.5,593 1309,498.812 1351.5,498.812 		"/>
		<polygon style="fill:#231F20;" points="1361,593 1318.5,593 1369,498.812 1411.5,498.812 		"/>
		<polygon style="fill:#231F20;" points="1421,593 1378.5,593 1429,498.812 1471.5,498.812 		"/>
		<polygon style="fill:#231F20;" points="1841,593 1798.5,593 1849,498.812 1891.5,498.812 		"/>
		<polygon style="fill:#231F20;" points="1901,593 1858.5,593 1909,498.812 1951.5,498.812 		"/>
		<rect y="514" style="fill:#FCBA00;" width="2000" height="61.812"/>
		<g>
			<g>
				<path style="fill:#231F20;" d="M12.939,521.965H25.03c7.644,0,11.396,4.239,11.396,12.022v24.599
					c0,7.783-3.752,12.022-11.396,12.022H12.939V521.965z M20.583,528.914v34.745h4.308c2.432,0,3.892-1.251,3.892-4.725V533.64
					c0-3.475-1.459-4.725-3.892-4.725H20.583z"/>
				<path style="fill:#231F20;" d="M69.432,570.607h-7.713l-1.32-8.825h-9.381l-1.32,8.825h-7.019l7.783-48.642h11.188
					L69.432,570.607z M51.99,555.181h7.366l-3.683-24.599L51.99,555.181z"/>
				<path style="fill:#231F20;" d="M83.259,535.377v35.23H76.38v-48.642h9.589l7.853,29.116v-29.116h6.809v48.642h-7.852
					L83.259,535.377z"/>
				<path style="fill:#231F20;" d="M121.059,543.507h10.701v15.427c0,7.782-3.891,12.229-11.396,12.229
					c-7.505,0-11.396-4.447-11.396-12.229V533.64c0-7.783,3.891-12.23,11.396-12.23c7.505,0,11.396,4.447,11.396,12.23v4.725h-7.227
					v-5.211c0-3.475-1.529-4.795-3.961-4.795c-2.432,0-3.961,1.32-3.961,4.795v26.267c0,3.474,1.529,4.725,3.961,4.725
					c2.432,0,3.961-1.251,3.961-4.725v-8.964h-3.475V543.507z"/>
				<path style="fill:#231F20;" d="M147.811,542.464h10.493v6.949h-10.493v14.245h13.203v6.949h-20.847v-48.642h20.847v6.949
					h-13.203V542.464z"/>
				<path style="fill:#231F20;" d="M185.195,570.607c-0.417-1.251-0.695-2.015-0.695-5.976v-7.643c0-4.517-1.529-6.185-5.003-6.185
					h-2.641v19.804h-7.644v-48.642h11.535c7.922,0,11.327,3.683,11.327,11.188v3.822c0,5.003-1.598,8.269-5.003,9.867
					c3.822,1.598,5.073,5.281,5.073,10.354v7.504c0,2.363,0.069,4.1,0.833,5.907H185.195z M176.856,528.914v14.94h2.988
					c2.849,0,4.587-1.251,4.587-5.142v-4.795c0-3.475-1.181-5.003-3.892-5.003H176.856z"/>
			</g>
			<g>
				<path style="fill:#231F20;" d="M451.824,570.607h-7.713l-1.32-8.825h-9.381l-1.32,8.825h-7.019l7.783-48.642h11.188
					L451.824,570.607z M434.382,555.181h7.366l-3.683-24.599L434.382,555.181z"/>
				<path style="fill:#231F20;" d="M456.618,521.965h23.626v6.949h-7.991v41.693h-7.644v-41.693h-7.991V521.965z"/>
				<path style="fill:#231F20;" d="M484.828,521.965h23.627v6.949h-7.991v41.693h-7.644v-41.693h-7.991V521.965z"/>
				<path style="fill:#231F20;" d="M522.906,542.464h10.493v6.949h-10.493v14.245h13.203v6.949h-20.847v-48.642h20.847v6.949
					h-13.203V542.464z"/>
				<path style="fill:#231F20;" d="M551.118,535.377v35.23h-6.879v-48.642h9.589l7.853,29.116v-29.116h6.81v48.642h-7.852
					L551.118,535.377z"/>
				<path style="fill:#231F20;" d="M575.228,521.965h23.626v6.949h-7.991v41.693h-7.644v-41.693h-7.991V521.965z"/>
				<path style="fill:#231F20;" d="M605.663,521.965h7.644v48.642h-7.644V521.965z"/>
				<path style="fill:#231F20;" d="M621.713,533.64c0-7.783,4.1-12.23,11.604-12.23s11.604,4.447,11.604,12.23v25.294
					c0,7.782-4.1,12.229-11.604,12.229s-11.604-4.447-11.604-12.229V533.64z M629.357,559.42c0,3.474,1.529,4.794,3.961,4.794
					c2.432,0,3.961-1.32,3.961-4.794v-26.267c0-3.475-1.529-4.795-3.961-4.795c-2.432,0-3.961,1.32-3.961,4.795V559.42z"/>
				<path style="fill:#231F20;" d="M660.139,535.377v35.23h-6.879v-48.642h9.589l7.853,29.116v-29.116h6.81v48.642h-7.852
					L660.139,535.377z"/>
			</g>
			<g>
				<path style="fill:#231F20;" d="M907.939,521.965h12.091c7.643,0,11.396,4.239,11.396,12.022v24.599
					c0,7.783-3.753,12.022-11.396,12.022h-12.091V521.965z M915.582,528.914v34.745h4.308c2.432,0,3.892-1.251,3.892-4.725V533.64
					c0-3.475-1.459-4.725-3.892-4.725H915.582z"/>
				<path style="fill:#231F20;" d="M964.432,570.607h-7.713l-1.32-8.825h-9.381l-1.32,8.825h-7.019l7.783-48.642h11.188
					L964.432,570.607z M946.99,555.181h7.366l-3.683-24.599L946.99,555.181z"/>
				<path style="fill:#231F20;" d="M978.259,535.377v35.23h-6.879v-48.642h9.589l7.853,29.116v-29.116h6.81v48.642h-7.852
					L978.259,535.377z"/>
				<path style="fill:#231F20;" d="M1016.059,543.507h10.701v15.427c0,7.782-3.891,12.229-11.395,12.229
					c-7.505,0-11.396-4.447-11.396-12.229V533.64c0-7.783,3.891-12.23,11.396-12.23c7.505,0,11.395,4.447,11.395,12.23v4.725h-7.227
					v-5.211c0-3.475-1.528-4.795-3.961-4.795c-2.432,0-3.961,1.32-3.961,4.795v26.267c0,3.474,1.529,4.725,3.961,4.725
					c2.433,0,3.961-1.251,3.961-4.725v-8.964h-3.475V543.507z"/>
				<path style="fill:#231F20;" d="M1042.812,542.464h10.493v6.949h-10.493v14.245h13.202v6.949h-20.846v-48.642h20.846v6.949
					h-13.202V542.464z"/>
				<path style="fill:#231F20;" d="M1080.195,570.607c-0.418-1.251-0.695-2.015-0.695-5.976v-7.643c0-4.517-1.529-6.185-5.003-6.185
					h-2.641v19.804h-7.644v-48.642h11.535c7.922,0,11.326,3.683,11.326,11.188v3.822c0,5.003-1.598,8.269-5.003,9.867
					c3.821,1.598,5.073,5.281,5.073,10.354v7.504c0,2.363,0.068,4.1,0.833,5.907H1080.195z M1071.856,528.914v14.94h2.987
					c2.85,0,4.587-1.251,4.587-5.142v-4.795c0-3.475-1.181-5.003-3.892-5.003H1071.856z"/>
			</g>
			<g>
				<path style="fill:#231F20;" d="M1804.939,521.965h12.09c7.645,0,11.396,4.239,11.396,12.022v24.599
					c0,7.783-3.752,12.022-11.396,12.022h-12.09V521.965z M1812.582,528.914v34.745h4.309c2.432,0,3.892-1.251,3.892-4.725V533.64
					c0-3.475-1.46-4.725-3.892-4.725H1812.582z"/>
				<path style="fill:#231F20;" d="M1861.432,570.607h-7.713l-1.32-8.825h-9.381l-1.32,8.825h-7.019l7.782-48.642h11.188
					L1861.432,570.607z M1843.99,555.181h7.365l-3.682-24.599L1843.99,555.181z"/>
				<path style="fill:#231F20;" d="M1875.26,535.377v35.23h-6.88v-48.642h9.589l7.854,29.116v-29.116h6.809v48.642h-7.852
					L1875.26,535.377z"/>
				<path style="fill:#231F20;" d="M1913.059,543.507h10.701v15.427c0,7.782-3.891,12.229-11.396,12.229
					s-11.396-4.447-11.396-12.229V533.64c0-7.783,3.891-12.23,11.396-12.23s11.396,4.447,11.396,12.23v4.725h-7.227v-5.211
					c0-3.475-1.528-4.795-3.961-4.795c-2.432,0-3.961,1.32-3.961,4.795v26.267c0,3.474,1.529,4.725,3.961,4.725
					c2.433,0,3.961-1.251,3.961-4.725v-8.964h-3.475V543.507z"/>
				<path style="fill:#231F20;" d="M1939.812,542.464h10.493v6.949h-10.493v14.245h13.202v6.949h-20.846v-48.642h20.846v6.949
					h-13.202V542.464z"/>
				<path style="fill:#231F20;" d="M1977.195,570.607c-0.418-1.251-0.695-2.015-0.695-5.976v-7.643c0-4.517-1.529-6.185-5.003-6.185
					h-2.641v19.804h-7.644v-48.642h11.535c7.922,0,11.326,3.683,11.326,11.188v3.822c0,5.003-1.598,8.269-5.003,9.867
					c3.821,1.598,5.073,5.281,5.073,10.354v7.504c0,2.363,0.068,4.1,0.833,5.907H1977.195z M1968.856,528.914v14.94h2.987
					c2.85,0,4.587-1.251,4.587-5.142v-4.795c0-3.475-1.181-5.003-3.892-5.003H1968.856z"/>
			</g>
			<g>
				<path style="fill:#231F20;" d="M1346.824,570.607h-7.714l-1.32-8.825h-9.381l-1.32,8.825h-7.019l7.783-48.642h11.188
					L1346.824,570.607z M1329.382,555.181h7.366l-3.684-24.599L1329.382,555.181z"/>
				<path style="fill:#231F20;" d="M1351.617,521.965h23.627v6.949h-7.992v41.693h-7.644v-41.693h-7.991V521.965z"/>
				<path style="fill:#231F20;" d="M1379.828,521.965h23.626v6.949h-7.991v41.693h-7.645v-41.693h-7.99V521.965z"/>
				<path style="fill:#231F20;" d="M1417.906,542.464h10.492v6.949h-10.492v14.245h13.203v6.949h-20.848v-48.642h20.848v6.949
					h-13.203V542.464z"/>
				<path style="fill:#231F20;" d="M1446.117,535.377v35.23h-6.879v-48.642h9.59l7.852,29.116v-29.116h6.811v48.642h-7.853
					L1446.117,535.377z"/>
				<path style="fill:#231F20;" d="M1470.229,521.965h23.626v6.949h-7.991v41.693h-7.645v-41.693h-7.99V521.965z"/>
				<path style="fill:#231F20;" d="M1500.662,521.965h7.645v48.642h-7.645V521.965z"/>
				<path style="fill:#231F20;" d="M1516.713,533.64c0-7.783,4.1-12.23,11.605-12.23c7.504,0,11.604,4.447,11.604,12.23v25.294
					c0,7.782-4.1,12.229-11.604,12.229c-7.506,0-11.605-4.447-11.605-12.229V533.64z M1524.357,559.42
					c0,3.474,1.528,4.794,3.961,4.794c2.432,0,3.961-1.32,3.961-4.794v-26.267c0-3.475-1.529-4.795-3.961-4.795
					c-2.433,0-3.961,1.32-3.961,4.795V559.42z"/>
				<path style="fill:#231F20;" d="M1555.139,535.377v35.23h-6.879v-48.642h9.59l7.852,29.116v-29.116h6.811v48.642h-7.853
					L1555.139,535.377z"/>
			</g>
		</g>
	</g>
	<g>
		<polygon style="fill:#231F20;" points="83.357,514 91.5,498.812 49,498.812 40.857,514 		"/>
		<polygon style="fill:#231F20;" points="7.715,575.812 0,590.202 0,593 41,593 50.215,575.812 		"/>
	</g>
	<polygon style="fill:#231F20;" points="23.357,514 31.5,498.812 0,498.812 0,514 	"/>
	<polygon style="fill:#231F20;" points="2000,552.9 1978.5,593 2000,593 	"/>
	<g>
		<polygon style="fill:#231F20;" points="2000,514 2000,498.812 1969,498.812 1960.856,514 		"/>
		<polygon style="fill:#231F20;" points="1927.716,575.812 1918.5,593 1961,593 1970.216,575.812 		"/>
	</g>
</g>
<g>
	<g>
		<path style="fill:#FCBA00;" d="M446.615,876.68L319.805,657.039c-5.689-9.854-16.291-15.975-27.669-15.975
			c-11.378,0-21.98,6.121-27.669,15.975L137.657,876.68c-5.689,9.854-5.689,22.096-0.001,31.949
			c5.689,9.854,16.291,15.975,27.669,15.975h253.62c11.378,0,21.98-6.121,27.669-15.974
			C452.304,898.776,452.304,886.534,446.615,876.68z"/>
		<path style="fill:#231F20;" d="M292.136,661.064c4.025,0,8.049,1.992,10.349,5.975l126.81,219.642
			c4.599,7.966-1.15,17.924-10.349,17.924h-253.62c-9.199,0-14.948-9.958-10.348-17.924l126.81-219.642
			C284.087,663.056,288.111,661.064,292.136,661.064L292.136,661.064z M292.136,651.064c-7.935,0-15.041,4.102-19.009,10.975
			L146.317,881.68c-3.968,6.872-3.968,15.077-0.001,21.949c3.968,6.872,11.074,10.975,19.009,10.975h253.62
			c7.935,0,15.041-4.102,19.009-10.975c3.968-6.872,3.968-15.077,0-21.949l-126.81-219.642
			C307.177,655.167,300.071,651.064,292.136,651.064L292.136,651.064z"/>
		<g>
			<polygon style="fill:#231F20;" points="302.331,846.673 281.94,846.673 273.618,715.173 310.654,715.173 			"/>
			<rect x="281.94" y="866.673" style="fill:#231F20;" width="19.822" height="19.822"/>
		</g>
	</g>
	<g>
		<path style="fill:#FCBA00;" d="M1388.575,1307.809l-126.81-219.641c-5.688-9.854-16.291-15.975-27.669-15.975
			s-21.98,6.121-27.669,15.975l-126.81,219.641c-5.689,9.854-5.689,22.097,0,31.95c5.688,9.854,16.29,15.975,27.668,15.975h253.62
			c11.378,0,21.98-6.121,27.669-15.975C1394.265,1329.905,1394.265,1317.662,1388.575,1307.809z"/>
		<path style="fill:#231F20;" d="M1234.097,1092.193c4.024,0,8.049,1.991,10.349,5.975l126.81,219.641
			c4.6,7.967-1.149,17.925-10.349,17.925h-253.62c-9.198,0-14.947-9.958-10.348-17.925l126.81-219.641
			C1226.048,1094.185,1230.072,1092.193,1234.097,1092.193L1234.097,1092.193z M1234.097,1082.193
			c-7.936,0-15.041,4.103-19.009,10.975l-126.811,219.641c-3.967,6.872-3.967,15.078,0,21.95
			c3.968,6.872,11.074,10.975,19.009,10.975h253.62c7.936,0,15.041-4.103,19.009-10.975s3.968-15.078,0-21.95l-126.81-219.641
			C1249.138,1086.296,1242.031,1082.193,1234.097,1082.193L1234.097,1082.193z"/>
		<polygon style="fill:#231F20;" points="1227.673,1155.003 1264.709,1155.003 1227.642,1239.874 1260.135,1227.271 
			1203.484,1316.414 1227.673,1257.729 1203.484,1266.729 		"/>
	</g>
	<g>
		<path style="fill:#FCBA00;" d="M1388.575,876.68l-126.81-219.642c-5.689-9.854-16.291-15.974-27.669-15.974
			s-21.979,6.121-27.669,15.974l-126.81,219.642c-5.689,9.854-5.689,22.096-0.001,31.95c5.689,9.854,16.291,15.975,27.669,15.975
			h253.62c11.378,0,21.98-6.121,27.67-15.975C1394.265,898.775,1394.265,886.533,1388.575,876.68z"/>
		<path style="fill:#231F20;" d="M1234.097,661.064c4.024,0,8.049,1.992,10.349,5.975l126.81,219.642
			c4.6,7.966-1.149,17.924-10.349,17.924h-253.62c-9.198,0-14.947-9.958-10.348-17.924l126.81-219.642
			C1226.048,663.056,1230.072,661.064,1234.097,661.064L1234.097,661.064z M1234.097,651.064c-7.936,0-15.041,4.102-19.009,10.975
			L1088.277,881.68c-3.967,6.872-3.967,15.077,0,21.949c3.968,6.872,11.074,10.975,19.009,10.975h253.62
			c7.936,0,15.041-4.102,19.009-10.975c3.968-6.872,3.968-15.077,0-21.949l-126.81-219.642
			C1249.138,655.167,1242.031,651.064,1234.097,651.064L1234.097,651.064z"/>
		<path style="fill:#231F20;" d="M1273.263,782.721c1.511-3.505,2.334-7.274,2.334-11.201c0-18.686-18.58-35.833-41.5-35.833
			s-41.5,17.148-41.5,35.833c0,3.927,0.822,7.696,2.334,11.201c1.574,3.653,1.503,7.815,0.019,11.505
			c-0.23,0.573-0.353,1.174-0.353,1.794c0,3.958,4.999,7.167,11.167,7.167c1.715,0,3.339-0.249,4.79-0.694
			c1.267,1.021,1.683,1.356,2.95,2.378l-1.154,7.699c-0.314,3.463,2.412,6.45,5.891,6.45h31.713c3.479,0,6.205-2.987,5.891-6.45
			l-1.14-7.529c1.331-1.072,1.77-1.426,3.1-2.498c1.409,0.414,2.976,0.644,4.626,0.644c6.167,0,11.167-3.208,11.167-7.167
			c0-0.62-0.122-1.221-0.354-1.794C1271.76,790.535,1271.688,786.373,1273.263,782.721z M1226.697,785.207
			c-4.385,4.668-10.229,4.377-13.82,2.812c-4.563-1.988-5.439-8.952-2.5-11.156c7.659-5.743,17.028-1.636,17.945,1.281
			C1229.239,781.061,1226.697,785.207,1226.697,785.207z M1255.316,788.019c-3.591,1.565-9.436,1.856-13.82-2.812
			c0,0-2.542-4.146-1.625-7.063c0.917-2.917,10.286-7.024,17.944-1.281C1260.756,779.067,1259.878,786.031,1255.316,788.019z"/>
		<path style="fill:#231F20;" d="M1287.004,856.17c-1.709-0.361-3.396-0.152-4.84,0.493c-4.389,1.959-9.483,1.525-13.77-0.649
			l-24.993-12.682l25.122-12.747c4.335-2.2,9.424-2.382,13.89-0.462c0.837,0.36,1.757,0.582,2.731,0.635
			c4.174,0.226,7.729-2.751,7.939-6.649c0.158-2.92-1.605-5.529-4.256-6.748c-1.461-0.672-2.321-2.177-2.453-3.78
			c-0.129-1.579-0.8-3.121-1.905-4.353c-2.605-2.906-7.241-3-10.354-0.208c-1.301,1.166-2.128,2.652-2.46,4.198
			c-1.01,4.699-4.369,8.554-8.655,10.728l-28.904,14.667l-28.905-14.667c-4.285-2.174-7.645-6.029-8.654-10.728
			c-0.332-1.546-1.159-3.031-2.46-4.198c-3.112-2.791-7.748-2.698-10.354,0.208c-1.106,1.233-1.776,2.774-1.906,4.353
			c-0.131,1.603-0.991,3.108-2.452,3.78c-2.65,1.22-4.414,3.829-4.256,6.748c0.211,3.898,3.766,6.875,7.939,6.649
			c0.974-0.053,1.895-0.275,2.731-0.635c4.466-1.92,9.554-1.737,13.889,0.462l25.122,12.747l-24.993,12.682
			c-4.285,2.174-9.38,2.609-13.769,0.649c-1.443-0.645-3.131-0.854-4.841-0.493c-4.09,0.864-6.751,4.66-5.945,8.479
			c0.269,1.271,0.938,2.36,1.847,3.224c1.7,1.613,2.406,3.947,2.263,6.286c-0.152,2.48,0.771,4.898,2.815,6.23
			c3.27,2.131,7.771,1.02,10.054-2.482c0.532-0.816,0.896-1.689,1.1-2.576c1.091-4.738,4.239-8.739,8.575-10.939l32.2-16.339
			l32.2,16.339c4.336,2.2,7.484,6.201,8.575,10.939c0.204,0.887,0.567,1.76,1.1,2.576c2.282,3.502,6.784,4.613,10.054,2.482
			c2.044-1.332,2.968-3.75,2.815-6.23c-0.144-2.339,0.563-4.673,2.263-6.286c0.909-0.864,1.578-1.953,1.846-3.224
			C1293.756,860.83,1291.095,857.034,1287.004,856.17z"/>
	</g>
	<g>
		<path style="fill:#FCBA00;" d="M1862.343,1304.606l-126.81-219.642c-5.688-9.854-16.291-15.975-27.669-15.975
			s-21.98,6.121-27.669,15.975l-126.812,219.643c-5.688,9.854-5.688,22.096,0.002,31.948c5.688,9.854,16.29,15.975,27.668,15.975
			h253.62c11.379,0,21.98-6.121,27.67-15.976C1868.032,1326.701,1868.032,1314.459,1862.343,1304.606z"/>
		<path style="fill:#231F20;" d="M1707.864,1088.99c4.024,0,8.049,1.991,10.349,5.975l126.81,219.642
			c4.6,7.966-1.149,17.924-10.349,17.924h-253.62c-9.198,0-14.947-9.958-10.349-17.924l126.811-219.642
			C1699.815,1090.981,1703.84,1088.99,1707.864,1088.99L1707.864,1088.99z M1707.864,1078.99c-7.936,0-15.042,4.103-19.009,10.975
			l-126.811,219.642c-3.967,6.872-3.967,15.077,0,21.949c3.968,6.872,11.074,10.975,19.009,10.975h253.62
			c7.936,0,15.041-4.103,19.009-10.975s3.968-15.077,0-21.949l-126.81-219.642C1722.905,1083.093,1715.799,1078.99,1707.864,1078.99
			L1707.864,1078.99z"/>
		<path style="fill:#231F20;" d="M1669.53,1138.27c0,0,12.334,21.667,8.334,27.333c-4,5.667-12,20-11.667,21
			s16.334,9.334,16.334,9.334s-3.667,10-3.667,11s-4.505,20-4.505,20s14.172,13.978,16.505,15.322
			c2.333,1.344,13.667-6.678,18.667,0s9.333,16.678,8.666,18.344c-0.666,1.667-8,12-1.333,18.334c6.667,6.333,24,8,25,8
			s29.333-2.667,34.333,2c5,4.666,14.858,21.333,13.93,25c-0.93,3.666,25.07,14.666,25.07,14.666l8.667,8.334l-244,2
			c0,0-23.667-13.667-17.334-25.334C1568.864,1301.937,1669.53,1138.27,1669.53,1138.27z"/>
		<path style="fill:#231F20;" d="M1706.197,1188.937c0,0,23-1,25.334,3.666c2.333,4.667,2,13.648-2.667,18.157
			c-4.667,4.51-14.667,13.177-14.667,13.177l-17-9.667c0,0,3.334-17.667,2.334-19.667S1706.197,1188.937,1706.197,1188.937z"/>
		<path style="fill:#231F20;" d="M1743.864,1219.937c0,0-7.333,3.333-3.667,6c3.667,2.666,14.667,4.333,14.667,4.333
			L1743.864,1219.937z"/>
		<path style="fill:#231F20;" d="M1741.197,1258.603c0,0-3.666,18.667,0,18.667c3.667,0,15-7,13.667-9.333
			C1753.531,1265.603,1741.197,1258.603,1741.197,1258.603z"/>
	</g>
	<g>
		<path style="fill:#FCBA00;" d="M917.48,876.68L790.67,657.038c-5.689-9.854-16.292-15.974-27.669-15.974
			s-21.98,6.121-27.669,15.974l-126.81,219.643c-5.688,9.853-5.688,22.096,0,31.949c5.689,9.853,16.291,15.974,27.669,15.974h253.62
			c11.378,0,21.98-6.121,27.669-15.974C923.169,898.776,923.169,886.534,917.48,876.68z"/>
		<path style="fill:#231F20;" d="M763.001,661.064c4.024,0,8.049,1.992,10.349,5.975L900.16,886.68
			c4.599,7.966-1.15,17.924-10.349,17.924h-253.62c-9.199,0-14.948-9.958-10.349-17.924l126.81-219.642
			C754.953,663.056,758.977,661.064,763.001,661.064L763.001,661.064z M763.001,651.064c-7.935,0-15.041,4.102-19.009,10.975
			L617.183,881.68c-3.968,6.872-3.968,15.077,0,21.949c3.968,6.872,11.074,10.975,19.009,10.975h253.62
			c7.935,0,15.041-4.102,19.009-10.975c3.967-6.872,3.967-15.077,0-21.949L782.01,662.039
			C778.043,655.167,770.936,651.064,763.001,651.064L763.001,651.064z"/>
		<polygon style="fill:#231F20;" points="819.334,777.373 791.993,750.032 763.001,779.023 734.01,750.032 706.668,777.373 
			735.66,806.365 706.668,835.356 734.01,862.698 763.001,833.706 791.993,862.698 819.334,835.356 790.343,806.365 		"/>
	</g>
	<g>
		<path style="fill:#FCBA00;" d="M917.48,1307.809l-126.81-219.641c-5.689-9.854-16.291-15.975-27.669-15.975
			c-11.378,0-21.98,6.121-27.669,15.975l-126.81,219.642c-5.689,9.854-5.688,22.097,0.001,31.95
			c5.689,9.853,16.291,15.974,27.669,15.974h253.62c11.378,0,21.98-6.121,27.669-15.974
			C923.169,1329.906,923.17,1317.663,917.48,1307.809z"/>
		<path style="fill:#231F20;" d="M763.001,1092.193c4.024,0,8.049,1.991,10.349,5.975l126.81,219.641
			c4.599,7.967-1.15,17.925-10.349,17.925h-253.62c-9.199,0-14.948-9.958-10.349-17.925l126.81-219.641
			C754.953,1094.185,758.977,1092.193,763.001,1092.193L763.001,1092.193z M763.001,1082.193c-7.935,0-15.041,4.103-19.009,10.975
			l-126.81,219.641c-3.968,6.872-3.968,15.078,0,21.95c3.968,6.872,11.074,10.975,19.009,10.975h253.62
			c7.935,0,15.041-4.103,19.009-10.975c3.967-6.872,3.967-15.078,0-21.95l-126.81-219.641
			C778.043,1086.296,770.936,1082.193,763.001,1082.193L763.001,1082.193z"/>
		<rect x="690.687" y="1213.462" style="fill:#231F20;" width="145.419" height="63.53"/>
		<g>
			<path style="fill:#FCBA00;" d="M711.037,1216.144c8.692,0,13.16,5.199,13.16,14.298v1.787h-8.449v-2.355
				c0-4.062-1.624-5.605-4.468-5.605s-4.468,1.544-4.468,5.605c0,11.698,17.466,13.892,17.466,30.139
				c0,9.1-4.549,14.299-13.323,14.299c-8.773,0-13.323-5.199-13.323-14.299v-3.493h8.449v4.063c0,4.062,1.787,5.524,4.63,5.524
				c2.843,0,4.63-1.463,4.63-5.524c0-11.698-17.466-13.892-17.466-30.14C697.876,1221.343,702.344,1216.144,711.037,1216.144z"/>
			<path style="fill:#FCBA00;" d="M730.86,1216.794h27.621v8.124h-9.342v48.742h-8.936v-48.742h-9.342V1216.794z"/>
			<path style="fill:#FCBA00;" d="M765.712,1230.441c0-9.099,4.793-14.298,13.566-14.298c8.774,0,13.567,5.199,13.567,14.298v29.57
				c0,9.1-4.793,14.299-13.567,14.299c-8.773,0-13.566-5.199-13.566-14.299V1230.441z M774.648,1260.581
				c0,4.062,1.787,5.605,4.63,5.605c2.843,0,4.631-1.544,4.631-5.605v-30.708c0-4.062-1.788-5.605-4.631-5.605
				c-2.843,0-4.63,1.544-4.63,5.605V1260.581z"/>
			<path style="fill:#FCBA00;" d="M829.16,1230.848v7.393c0,9.099-4.387,14.055-13.323,14.055h-4.225v21.365h-8.936v-56.866h13.161
				C824.773,1216.794,829.16,1221.749,829.16,1230.848z M811.612,1224.918v19.253h4.225c2.843,0,4.387-1.3,4.387-5.361v-8.53
				c0-4.063-1.543-5.361-4.387-5.361H811.612z"/>
		</g>
	</g>
	<g>
		<path style="fill:#FCBA00;" d="M446.615,1307.809l-126.809-219.64c-5.689-9.854-16.291-15.976-27.669-15.976
			c-11.378,0-21.981,6.121-27.669,15.976l0-0.001l-126.81,219.641c-5.689,9.854-5.689,22.097,0,31.95
			c5.689,9.854,16.291,15.975,27.669,15.975h253.62c11.377,0,21.979-6.121,27.668-15.974
			C452.304,1329.906,452.304,1317.663,446.615,1307.809z"/>
		<path style="fill:#231F20;" d="M292.136,1092.193c4.025,0,8.049,1.991,10.349,5.975l126.81,219.641
			c4.599,7.967-1.15,17.925-10.349,17.925h-253.62c-9.199,0-14.948-9.958-10.348-17.925l126.81-219.641
			C284.087,1094.185,288.111,1092.193,292.136,1092.193L292.136,1092.193z M292.136,1082.193c-7.935,0-15.041,4.103-19.009,10.975
			l-126.81,219.641c-3.968,6.872-3.968,15.078,0,21.95c3.967,6.872,11.073,10.975,19.008,10.975h253.62
			c7.935,0,15.041-4.103,19.009-10.975c3.968-6.872,3.968-15.078,0-21.95l-126.81-219.641
			C307.177,1086.296,300.071,1082.193,292.136,1082.193L292.136,1082.193z"/>
		<g>
			<circle style="fill:#231F20;" cx="292.092" cy="1244.518" r="15.58"/>
			<g>
				<path style="fill:#231F20;" d="M292.092,1263.214c-3.517,0-6.805-0.973-9.614-2.66l-17.192,29.648
					c7.865,4.625,17.023,7.288,26.806,7.288c9.712,0,18.807-2.626,26.633-7.188l-17.081-29.713
					C298.848,1262.254,295.582,1263.214,292.092,1263.214z"/>
			</g>
			<g>
				<path style="fill:#231F20;" d="M308.289,1235.26c-1.758-3.046-4.245-5.407-7.111-6.996l17.081-29.713
					c7.938,4.498,14.823,11.098,19.715,19.57c4.857,8.411,7.129,17.6,7.091,26.659l-34.272,0.064
					C310.836,1241.59,310.034,1238.282,308.289,1235.26z"/>
			</g>
			<g>
				<path style="fill:#231F20;" d="M275.983,1235.26c1.758-3.046,4.245-5.407,7.111-6.996l-17.081-29.713
					c-7.938,4.498-14.823,11.098-19.714,19.57c-4.856,8.411-7.129,17.6-7.091,26.659l34.273,0.064
					C273.435,1241.59,274.237,1238.282,275.983,1235.26z"/>
			</g>
		</g>
		<path style="fill:#231F20;" d="M292.136,1183.674c-35.538,0-64.346,28.809-64.346,64.347s28.808,64.347,64.346,64.347
			s64.347-28.809,64.347-64.347S327.673,1183.674,292.136,1183.674z M292.136,1308.021c-33.137,0-60-26.863-60-60
			c0-33.138,26.863-60,60-60c33.137,0,60,26.862,60,60C352.136,1281.157,325.273,1308.021,292.136,1308.021z"/>
	</g>
	<g>
		<path style="fill:#FCBA00;" d="M1858.526,876.68l-126.81-219.642c-5.689-9.854-16.291-15.974-27.669-15.974
			s-21.979,6.121-27.669,15.974l-126.812,219.643c-5.688,9.854-5.688,22.096,0.002,31.949c5.688,9.853,16.291,15.974,27.668,15.974
			h253.62c11.378,0,21.98-6.121,27.67-15.975C1864.216,898.775,1864.216,886.533,1858.526,876.68z"/>
		<path style="fill:#231F20;" d="M1704.048,661.064c4.024,0,8.049,1.992,10.349,5.975l126.81,219.642
			c4.6,7.966-1.149,17.924-10.349,17.924h-253.62c-9.198,0-14.947-9.958-10.349-17.924l126.811-219.642
			C1695.999,663.056,1700.023,661.064,1704.048,661.064L1704.048,661.064z M1704.048,651.064c-7.936,0-15.042,4.102-19.009,10.975
			L1558.229,881.68c-3.968,6.872-3.968,15.077,0,21.949c3.968,6.872,11.074,10.975,19.009,10.975h253.62
			c7.936,0,15.041-4.102,19.009-10.975c3.968-6.872,3.968-15.077,0-21.949l-126.81-219.642
			C1719.089,655.167,1711.982,651.064,1704.048,651.064L1704.048,651.064z"/>
		<path style="fill:#231F20;" d="M1662.665,839.354c-0.063,0.945-0.108,1.896-0.108,2.857c0,19.099,12.874,35.18,30.414,40.068
			c-7.329-3.922-12.318-11.644-12.318-20.538c0-5.491,1.901-10.538,5.08-14.519c5.366,3.083,11.581,4.856,18.213,4.856
			c6.633,0,12.848-1.772,18.214-4.856c3.179,3.981,5.08,9.028,5.08,14.519c0,10.695-7.22,19.682-17.043,22.417
			c20.006-3.02,35.342-20.284,35.342-41.132c0-0.961-0.044-1.912-0.108-2.857c14.454-6.52,24.521-21.045,24.521-37.931
			c0-4.933-0.864-9.662-2.439-14.052c-0.505-1.173-1.04-2.33-1.605-3.468c0.763,2.303,1.182,4.764,1.182,7.323
			c0,12.865-10.429,23.293-23.294,23.293c-1.1,0-2.179-0.083-3.238-0.231c-0.129-13.478-7.539-25.209-18.488-31.458
			c3.369-8.715,11.823-14.898,21.727-14.898c6.78,0,12.882,2.899,17.139,7.522c-0.401-0.582-0.812-1.158-1.23-1.727
			c-12.968-15.311-35.487-19.393-53.216-8.688c-0.823,0.497-1.614,1.026-2.39,1.569c-13.052-9.004-30.69-10.113-45.146-1.385
			c-3.672,2.217-6.866,4.919-9.576,7.962c4.038-3.369,9.231-5.398,14.902-5.398c9.916,0,18.38,6.199,21.741,14.932
			c-11.023,6.204-18.506,17.943-18.678,31.452c-1.003,0.132-2.024,0.203-3.063,0.203c-12.864,0-23.293-10.429-23.293-23.293
			c0-2.782,0.489-5.449,1.384-7.922c-0.852,1.662-1.635,3.365-2.354,5.101c-1.211,3.902-1.869,8.048-1.869,12.349
			C1638.145,818.309,1648.211,832.834,1662.665,839.354z M1687.238,787.997c0.214,1.268,0.331,2.57,0.331,3.899
			c0,4.293-1.166,8.311-3.192,11.765h39.232c-1.974-3.421-3.109-7.387-3.109-11.621c0-1.338,0.119-2.649,0.336-3.925
			c8.766,5.425,14.728,14.943,15.216,25.889c-4.815-1.699-8.909-4.927-11.684-9.113l-19.39,33.583
			c5.298,0.231,10.133,2.236,13.936,5.429c-4.471,2.358-9.562,3.699-14.969,3.699c-5.406,0-10.497-1.341-14.969-3.699
			c3.799-3.19,8.627-5.193,13.918-5.429l-19.342-33.502c-2.806,4.127-6.904,7.298-11.711,8.95
			C1672.359,802.934,1678.394,793.389,1687.238,787.997z"/>
	</g>
</g>
<g>
	<g>
		<rect y="1415.479" style="fill:#FCBA00;" width="2000" height="94.188"/>
		<polygon style="fill:#231F20;" points="75.95,1415.479 33.446,1415.479 47.97,1442.57 12,1509.67 54.5,1509.67 75.95,1469.67 
			90.47,1442.57 75.95,1415.48 		"/>
		<polygon style="fill:#231F20;" points="135.95,1415.479 93.446,1415.479 107.97,1442.57 72,1509.67 114.5,1509.67 135.95,1469.67 
			150.47,1442.57 135.95,1415.48 		"/>
		<polygon style="fill:#231F20;" points="195.95,1415.479 153.446,1415.479 167.97,1442.57 132,1509.67 174.5,1509.67 
			195.95,1469.67 210.47,1442.57 195.95,1415.48 		"/>
		<polygon style="fill:#231F20;" points="255.95,1415.479 213.446,1415.479 227.97,1442.57 192,1509.67 234.5,1509.67 
			255.95,1469.67 270.47,1442.57 255.95,1415.48 		"/>
		<polygon style="fill:#231F20;" points="315.95,1415.479 273.446,1415.479 287.97,1442.57 252,1509.67 294.5,1509.67 
			315.95,1469.67 330.47,1442.57 315.95,1415.48 		"/>
		<polygon style="fill:#231F20;" points="375.95,1415.479 333.446,1415.479 347.97,1442.57 312,1509.67 354.5,1509.67 
			375.95,1469.67 390.47,1442.57 375.95,1415.48 		"/>
		<polygon style="fill:#231F20;" points="435.95,1415.479 393.446,1415.479 407.97,1442.57 372,1509.67 414.5,1509.67 
			435.95,1469.67 450.47,1442.57 435.95,1415.48 		"/>
		<polygon style="fill:#231F20;" points="495.95,1415.479 453.446,1415.479 467.97,1442.57 432,1509.67 474.5,1509.67 
			495.95,1469.67 510.47,1442.57 495.95,1415.48 		"/>
		<polygon style="fill:#231F20;" points="555.95,1415.479 513.445,1415.479 527.97,1442.57 492,1509.67 534.5,1509.67 
			555.95,1469.67 570.47,1442.57 555.95,1415.48 		"/>
		<polygon style="fill:#231F20;" points="615.95,1415.479 573.445,1415.479 587.97,1442.57 552,1509.67 594.5,1509.67 
			615.95,1469.67 630.47,1442.57 615.95,1415.48 		"/>
		<polygon style="fill:#231F20;" points="675.95,1415.479 633.445,1415.479 647.97,1442.57 612,1509.67 654.5,1509.67 
			675.95,1469.67 690.47,1442.57 675.95,1415.48 		"/>
		<polygon style="fill:#231F20;" points="735.95,1415.479 693.445,1415.479 707.97,1442.57 672,1509.67 714.5,1509.67 
			735.95,1469.67 750.47,1442.57 735.95,1415.48 		"/>
		<polygon style="fill:#231F20;" points="795.95,1415.479 753.445,1415.479 767.97,1442.57 732,1509.67 774.5,1509.67 
			795.95,1469.67 810.47,1442.57 795.95,1415.48 		"/>
		<polygon style="fill:#231F20;" points="855.95,1415.479 813.445,1415.479 827.97,1442.57 792,1509.67 834.5,1509.67 
			855.95,1469.67 870.47,1442.57 855.95,1415.48 		"/>
		<polygon style="fill:#231F20;" points="915.95,1415.479 873.445,1415.479 887.97,1442.57 852,1509.67 894.5,1509.67 
			915.95,1469.67 930.47,1442.57 915.95,1415.48 		"/>
		<polygon style="fill:#231F20;" points="975.95,1415.479 933.445,1415.479 947.97,1442.57 912,1509.67 954.5,1509.67 
			975.95,1469.67 990.47,1442.57 975.95,1415.48 		"/>
		<polygon style="fill:#231F20;" points="1035.95,1415.479 993.445,1415.479 1007.97,1442.57 972,1509.67 1014.5,1509.67 
			1035.95,1469.67 1050.47,1442.57 1035.95,1415.48 		"/>
		<polygon style="fill:#231F20;" points="1095.95,1415.479 1053.445,1415.479 1067.97,1442.57 1032,1509.67 1074.5,1509.67 
			1095.95,1469.67 1110.47,1442.57 1095.95,1415.48 		"/>
		<polygon style="fill:#231F20;" points="1155.95,1415.479 1113.445,1415.479 1127.97,1442.57 1092,1509.67 1134.5,1509.67 
			1155.95,1469.67 1170.47,1442.57 1155.95,1415.48 		"/>
		<polygon style="fill:#231F20;" points="1215.95,1415.479 1173.445,1415.479 1187.97,1442.57 1152,1509.67 1194.5,1509.67 
			1215.95,1469.67 1230.47,1442.57 1215.95,1415.48 		"/>
		<polygon style="fill:#231F20;" points="1275.949,1415.479 1233.445,1415.479 1247.97,1442.57 1212,1509.67 1254.5,1509.67 
			1275.95,1469.67 1290.47,1442.57 1275.95,1415.48 		"/>
		<polygon style="fill:#231F20;" points="1335.949,1415.479 1293.445,1415.479 1307.97,1442.57 1272,1509.67 1314.5,1509.67 
			1335.95,1469.67 1350.47,1442.57 1335.95,1415.48 		"/>
		<polygon style="fill:#231F20;" points="1395.949,1415.479 1353.445,1415.479 1367.97,1442.57 1332,1509.67 1374.5,1509.67 
			1395.95,1469.67 1410.47,1442.57 1395.95,1415.48 		"/>
		<polygon style="fill:#231F20;" points="1455.949,1415.479 1413.445,1415.479 1427.97,1442.57 1392,1509.67 1434.5,1509.67 
			1455.95,1469.67 1470.47,1442.57 1455.95,1415.48 		"/>
		<polygon style="fill:#231F20;" points="1515.949,1415.479 1473.445,1415.479 1487.97,1442.57 1452,1509.67 1494.5,1509.67 
			1515.95,1469.67 1530.47,1442.57 1515.95,1415.48 		"/>
		<polygon style="fill:#231F20;" points="1575.949,1415.479 1533.445,1415.479 1547.97,1442.57 1512,1509.67 1554.5,1509.67 
			1575.95,1469.67 1590.47,1442.57 1575.95,1415.48 		"/>
		<polygon style="fill:#231F20;" points="1635.949,1415.479 1593.445,1415.479 1607.97,1442.57 1572,1509.67 1614.5,1509.67 
			1635.95,1469.67 1650.47,1442.57 1635.95,1415.48 		"/>
		<polygon style="fill:#231F20;" points="1695.949,1415.479 1653.445,1415.479 1667.97,1442.57 1632,1509.67 1674.5,1509.67 
			1695.95,1469.67 1710.47,1442.57 1695.95,1415.48 		"/>
		<polygon style="fill:#231F20;" points="1755.949,1415.479 1713.445,1415.479 1727.97,1442.57 1692,1509.67 1734.5,1509.67 
			1755.95,1469.67 1770.47,1442.57 1755.95,1415.48 		"/>
		<polygon style="fill:#231F20;" points="1815.949,1415.479 1773.445,1415.479 1787.97,1442.57 1752,1509.67 1794.5,1509.67 
			1815.95,1469.67 1830.47,1442.57 1815.95,1415.48 		"/>
		<polygon style="fill:#231F20;" points="1875.949,1415.479 1833.445,1415.479 1847.97,1442.57 1812,1509.67 1854.5,1509.67 
			1875.95,1469.67 1890.47,1442.57 1875.95,1415.48 		"/>
		<polygon style="fill:#231F20;" points="1935.949,1415.479 1893.445,1415.479 1907.97,1442.57 1872,1509.67 1914.5,1509.67 
			1935.95,1469.67 1950.47,1442.57 1935.95,1415.48 		"/>
	</g>
	<polygon style="fill:#231F20;" points="2000,1423.036 1995.95,1415.48 1995.949,1415.479 1953.445,1415.479 1967.97,1442.57 
		1932,1509.67 1974.5,1509.67 1995.95,1469.67 2000,1462.111 	"/>
	<polygon style="fill:#231F20;" points="15.95,1415.48 15.95,1415.479 0,1415.479 0,1499.414 15.95,1469.67 30.47,1442.57 	"/>
</g>
</svg>
